<?xml version="1.0" standalone="no"?>
<!DOCTYPE svg PUBLIC "-//W3C//DTD SVG 1.1//EN" "http://www.w3.org/Graphics/SVG/1.1/DTD/svg11.dtd" >
<svg xmlns="http://www.w3.org/2000/svg" xmlns:xlink="http://www.w3.org/1999/xlink" version="1.1">
<metadata>
Created by FontForge 20160405 at Thu Feb 15 10:28:33 2018
 By www-data
Copyright (c) 2017 by Just Font You. All rights reserved.
</metadata>
<defs>
<font id="AesthetikScript" horiz-adv-x="271" >
  <font-face 
    font-family="Aesthetik Script"
    font-weight="400"
    font-stretch="normal"
    units-per-em="1000"
    panose-1="0 0 0 0 0 0 0 0 0 0"
    ascent="750"
    descent="-250"
    x-height="498"
    cap-height="909.5"
    bbox="-322 -488.227 1100 1093.14"
    underline-thickness="50"
    underline-position="-150"
    unicode-range="U+000D-007E"
  />
<missing-glyph 
 />
    <glyph glyph-name=".notdef" 
 />
    <glyph glyph-name=".null" horiz-adv-x="0" 
 />
    <glyph glyph-name="nonmarkingreturn" unicode="&#xd;" 
 />
    <glyph glyph-name="NULL" horiz-adv-x="0" 
 />
    <glyph glyph-name="NULL" horiz-adv-x="0" 
 />
    <glyph glyph-name="space" unicode=" " 
 />
    <glyph glyph-name="exclam" unicode="!" horiz-adv-x="548" 
d="M507 902q5 -3 8.5 -9.5t1.5 -11.5q-2 -6 -5 -9l-2 -4q-2 -5 -5 -9.5t-5 -9.5q-6 -11 -12 -21.5t-12 -21.5q-10 -16 -18.5 -32t-16.5 -33q-4 -7 -7.5 -14t-7.5 -14l-2 -4q-11 -22 -22.5 -43.5t-22.5 -44.5q-11 -24 -21.5 -48.5t-21.5 -49.5q-3 -7 -6.5 -13.5t-6.5 -14.5
q-11 -25 -22.5 -52t-25.5 -59q-10 -26 -23 -55q-10 -23 -19.5 -45.5t-19.5 -45.5q-6 -14 -12.5 -28t-13.5 -28q-7 -13 -11 -25q-4 -7 -7 -13.5t-6 -13.5q-8 -16 -15 -31.5t-14 -31.5q-2 -5 -5 -9t-5 -9q-3 -5 -6.5 -10t-5.5 -11q-3 -10 -13 -12q-4 -2 -8 -2q-5 0 -9 3
q-8 6 -6 23v1q1 5 3.5 11t5.5 13l3 9l12 24q2 5 4 8.5t4 7.5q4 8 7.5 14.5t6.5 14.5q11 23 21.5 46t21.5 46q17 37 33.5 74.5t32.5 74.5l6 13q7 16 13.5 31.5t12.5 30.5q8 20 16.5 39t17.5 38q5 12 10.5 24t10.5 23l27 60q10 24 22.5 50t27.5 55q2 4 4.5 8t4.5 8
q14 27 28.5 54t31.5 53q4 4 6 9q4 6 7.5 11t8.5 10q6 5 9.5 5.5t11.5 -4.5zM31 -81q1 11 9.5 19t18.5 7q8 -1 17 -10t8 -17q-2 -11 -12.5 -21.5t-18.5 -8.5q-10 2 -16.5 11t-5.5 20z" />
    <glyph glyph-name="quotedbl" unicode="&#x22;" horiz-adv-x="268" 
d="M122 687q-14 -1 -20 7.5t-1 20.5q7 15 15 29t17 28q4 5 8.5 10t7.5 11q9 17 22 30.5t26 27.5q2 2 3.5 3t3.5 3q5 4 12 4.5t12 -0.5q3 -1 5 -7t4 -11q2 -3 0 -5.5t-3 -4.5q-2 -11 -9 -18.5t-12 -15.5q-17 -20 -31 -42.5t-29 -44.5q-4 -5 -8.5 -10t-8.5 -10q-7 -7 -14 -5z
M156 877q-2 -3 -2.5 -7t-2.5 -6q-6 -9 -10 -19t-11 -18q-17 -20 -30.5 -42.5t-29.5 -44.5q-7 -10 -17 -12t-17 6q-8 8 -5 20q4 14 11 26.5t15 23.5q12 17 22 35.5t24 34.5q4 5 8 9t8 9q6 8 13.5 7t15.5 -1q4 0 4 -5v-8.5t4 -7.5z" />
    <glyph glyph-name="numbersign" unicode="#" horiz-adv-x="590" 
d="M235 279q-11 0 -21.5 -0.5t-21.5 0.5q-20 0 -25 -17q-4 -11 -9 -21.5t-9 -21.5q-13 -32 -24 -68q-1 -3 -2.5 -5.5t-3.5 -4.5q-5 -6 -10.5 -6.5t-11.5 0.5q-7 2 -7.5 7t-2.5 10q-1 3 1 11q8 24 14 49t16 49q3 8 1 10.5t-12 2.5q-5 1 -10.5 0t-10.5 3q-5 3 -8.5 1.5
t-8.5 -3.5q-14 -7 -25 -6q-8 1 -12 7t0 14q7 15 25 18q17 3 32.5 6.5t32.5 3.5q16 -1 21 14q11 29 22.5 56t23.5 54q5 9 3 11.5t-11 2.5q-10 0 -19.5 1t-18.5 4q-16 6 -32 5q-7 0 -9 2q-5 4 -8.5 7t-5.5 8q-1 2 3.5 6.5t8.5 7.5q5 3 10 5.5t12 2.5q16 -1 32 -1h33
q2 0 4.5 -0.5t4.5 -0.5q14 -4 18 -2t10 16q19 41 38 81t41 79q14 26 26.5 53t29.5 52l12 16t10 18q2 5 6.5 8.5t9.5 5.5q6 4 13 0q3 -2 0 -4.5t-2 -5.5q1 -4 0.5 -8t-0.5 -9q2 -16 -2.5 -30t-11.5 -28q-16 -30 -30 -60.5t-31 -59.5q-24 -45 -47 -91q-2 -5 -4 -9l-4 -8
q-5 -13 -3.5 -15.5t15.5 -5.5q6 -1 12 -1h12h52q11 -2 15 8q11 26 23 51t23 51q4 8 7 15.5t8 14.5q17 26 29.5 54.5t31.5 54.5q6 9 16 13q5 2 11.5 -1t7.5 -9q0 -14 -4 -23q-12 -33 -27 -64t-31 -62q-12 -25 -23 -50l-22 -50q-2 -5 -1.5 -6t5.5 -2q23 -3 45.5 -5.5
t45.5 -8.5q8 -2 17 -5.5t14 -13.5q5 -9 0 -21q-3 -5 -7.5 -7t-8.5 -4q-4 -3 -6.5 -1t-5.5 4q-12 5 -24 6t-24 3q-16 2 -31 1t-31 4q-12 3 -16 -10l-18 -48t-19 -48q-3 -9 6 -9q19 2 37.5 -1t37.5 -4q13 -2 25 -3t24 -6q2 -1 5 -2t5 -2q7 -2 9.5 -7.5t2.5 -11.5
q0 -5 -5.5 -10.5t-12.5 -5.5q-24 2 -48.5 0.5t-48.5 3.5q-12 2 -25 1.5t-26 -0.5q-5 0 -7 -5t-4 -8.5t-4 -8.5q-18 -54 -37.5 -105.5t-38.5 -104.5q-16 -44 -36 -91q-3 -9 -10 -16q-9 -10 -16 -9.5t-16 8.5q-8 9 -3 19q26 54 42 110t37 112q8 22 15 44t17 43q6 12 -8 12h-48
zM205 323q7 5 16 4.5t19 -0.5h55q12 0 14.5 2t7.5 15q8 19 16 38.5t14 39.5q2 5 6 9t0 9q-4 4 -10 4.5t-12 2.5q-5 1 -9.5 0.5t-9.5 -0.5q-12 1 -24.5 0t-24.5 4q-14 4 -23 -13l-45 -105q-3 -10 10 -10z" />
    <glyph glyph-name="dollar" unicode="$" horiz-adv-x="504" 
d="M69 68q17 -2 32.5 1.5t32.5 7.5q5 2 9 4t9 2q13 0 17 16q5 27 11 54t12 53q11 47 21.5 93t21.5 93q8 30 14.5 60.5t15.5 59.5q3 12 -6 20q-14 14 -25.5 29.5t-21.5 32.5q-8 12 -12 25t-7 27q-11 45 4 83.5t39 74.5q11 16 24 29t28 25q17 12 34 20.5t35 14.5q11 4 14 15
q5 20 10.5 40t10.5 40q1 3 1.5 6.5t1.5 6.5q3 7 10.5 10.5t13.5 1.5q4 -2 7.5 -9t1.5 -13q-6 -23 -7.5 -46t-10.5 -45q-3 -7 5 -11q42 -20 43 -65q1 -26 -6.5 -48t-19.5 -44q-3 -5 -6.5 -10.5t-6.5 -11.5q-7 -13 -18 -14t-17 6t-1 18q5 12 9.5 25t10.5 24q5 11 6 22t4 22
q4 9 -1 18q-3 4 -4.5 9t-7.5 5q-7 0 -6.5 -6t-0.5 -9q-10 -34 -19 -67.5t-18 -67.5q-6 -24 -12.5 -47.5t-13.5 -46.5q-3 -11 -6 -21.5t-6 -21.5q-3 -17 10 -27q35 -29 65.5 -60t53.5 -69q23 -37 26 -76t-17 -78q-28 -55 -79 -96q-20 -17 -41 -31.5t-43 -28.5
q-16 -10 -32 -18.5t-33 -13.5q-18 -5 -25 -16t-9 -26q-6 -35 -14 -70.5t-16 -70.5q-2 -8 -4.5 -16.5t-9.5 -15.5q-16 -18 -30 1q-4 6 -3 13q7 29 12.5 58t11.5 58q3 13 5.5 25.5t6.5 24.5t-8 9q-34 -10 -74 -10q-15 1 -29 9q-12 7 -12 21t13 14q6 1 12.5 0.5t13.5 -0.5z
M423 314q1 11 -2 22t-8 21q-17 38 -50 71l-54 54q-7 7 -10 -2q-11 -45 -22 -88t-21 -88q-8 -38 -16 -74.5t-17 -73.5q-2 -8 -3.5 -16t-2.5 -16q-1 -10 1.5 -11.5t10.5 2.5q17 7 31.5 16t29.5 19q31 20 59 43.5t50 53.5q23 32 24 67zM241 680q-3 -28 9.5 -51t23.5 -39
q3 -5 6 -4t4 6q3 15 7.5 29t8.5 29q11 46 24 91.5t26 91.5q2 5 -1 6t-6 0q-45 -28 -72 -68q-14 -20 -23 -42.5t-7 -48.5z" />
    <glyph glyph-name="percent" unicode="%" horiz-adv-x="455" 
d="M31 19q0 14 3 28t7 28q8 31 15.5 62t17.5 61q28 96 61 189q11 31 23.5 61.5t24.5 62.5q22 57 47.5 110.5t54.5 107.5q12 23 25 44t25 44l20 36t21 35q5 8 11.5 14.5t15.5 11.5q9 4 15.5 0t6.5 -14q0 -8 -4 -13q-9 -12 -14 -26.5t-13 -27.5q-10 -19 -20.5 -37.5
t-21.5 -36.5q-20 -32 -37.5 -66t-34.5 -68q-23 -48 -43 -96t-39 -98q-22 -56 -41 -111.5t-37 -112.5q-15 -48 -29 -96.5t-31 -96.5q-2 -5 -3.5 -10.5t-6.5 -7.5q-19 -8 -19 14q-1 2 -0.5 4t0.5 5zM208 162q0 36 24 62q7 7 11.5 15t12.5 14t16.5 10t19.5 -2q22 -10 22 -35
q0 -12 -4 -22l-8 -20q-5 -11 -10.5 -21t-11.5 -20t-15 -15.5t-19 -9.5q-5 -2 -14.5 2t-14.5 9q-9 10 -9 33zM199 786q1 -8 -3 -18t-10.5 -19t-14.5 -16t-15 -10q-11 -5 -21.5 2t-12.5 19q-2 10 1 18t7 16q8 21 31 34q14 8 25.5 1.5t12.5 -23.5v-4z" />
    <glyph glyph-name="ampersand" unicode="&#x26;" horiz-adv-x="428" 
d="M31 3q-2 39 5.5 75t16.5 71q3 11 5.5 23t9.5 23q7 10 13.5 13.5t17.5 0.5q3 -1 5.5 -0.5t5.5 1.5q22 5 41 16.5t37 23.5q37 24 72 50.5t65 58.5q2 2 2.5 3t2.5 2q5 5 10.5 11.5t0.5 11.5q-4 5 -12 3.5t-15 -3.5q-51 -17 -96 -48q-5 -5 -11 -9t-11 -9q-5 -4 -11 -6.5
t-13 -2.5q-14 0 -19 12q-3 6 -3 12.5t6 11.5l9.5 9.5t9.5 8.5q17 13 34 25.5t33 27.5l7.5 7.5t8.5 6.5q27 23 50 50t40 59q2 4 3 7q7 16 -10 18q-23 2 -45.5 -1.5t-44.5 -13.5q-18 -8 -32 -20t-25 -29q-3 -4 -7 -7.5t-6 -8.5q-3 -8 -8.5 -10t-12.5 -1q-13 0 -19 8t-2 20
q14 43 30 80q15 32 28 64.5t28 64.5q14 32 28 63.5t33 60.5q5 9 12.5 15.5t15.5 13.5q7 7 18 2q9 -5 6 -17q-3 -14 -9 -26q-17 -30 -31 -60.5t-28 -62.5q-14 -28 -26 -56t-24 -57q-3 -3 -1 -4q2 -3 3 -2l2 2q16 9 32.5 14t33.5 9q32 7 64 1q27 -4 37.5 -24t2.5 -47
q-6 -20 -17 -36t-23 -32q-2 -3 -4.5 -5t-3.5 -4q-2 -7 -7 -11t-9 -10q4 -5 11.5 -3t12.5 -2q1 -2 6 -2q20 -7 28 -21.5t2 -33.5l-4 -12t-7 -12q-13 -15 -25 -30.5t-29 -28.5q-16 -12 -30.5 -25.5t-31.5 -25.5q-29 -20 -58 -39.5t-61 -35.5q-8 -4 -15.5 -5t-15.5 -4
q-8 -4 -10 -11q-8 -23 -13.5 -46t-10.5 -46t-8 -45.5t-2 -45.5q1 -5 0 -8.5t-3 -7.5q-2 -5 -5 -8.5t-8 -2.5q-13 0 -17 10q-5 8 -5 15q1 11 0.5 21t-0.5 18z" />
    <glyph glyph-name="quotesingle" unicode="'" horiz-adv-x="165" 
d="M54 807q-14 0 -20 9t-1 21q7 15 14 28.5t20 24.5q5 5 8 11t5 12q7 14 21 25q9 8 21 2.5t13 -16.5q0 -11 -7 -20q-14 -20 -25 -41.5t-25 -42.5q-5 -7 -10.5 -11t-13.5 -2z" />
    <glyph glyph-name="parenleft" unicode="(" horiz-adv-x="291" 
d="M243 931q5 -2 9 -4.5t7 -7.5q2 -5 0.5 -8l-3.5 -7q-7 -11 -15.5 -20t-14.5 -21q-5 -11 -11.5 -21t-13.5 -21q-10 -15 -17.5 -30.5t-15.5 -31.5q-13 -27 -22.5 -55t-18.5 -57q-8 -28 -14.5 -56t-14.5 -57q-5 -20 -7.5 -41t-7.5 -41q-5 -22 -4 -43t0 -43q-2 -34 0 -67
q2 -26 5.5 -50.5t7.5 -49.5q8 -43 21 -84.5t26 -83.5q2 -7 2.5 -13t-2.5 -12q-3 -9 -10 -10.5t-14 4.5q-12 13 -17 28q-14 32 -25.5 65.5t-18.5 68.5q-5 26 -10.5 50.5t-8.5 50.5q-4 29 -3 58.5t-1 58.5q-1 12 2.5 23.5t2.5 23.5q-2 23 4 44q2 11 2.5 22.5t2.5 22.5
q1 17 4.5 33.5t6.5 33.5q7 33 16.5 65t20.5 64q11 30 25 58t30 56q14 26 33 49t40 44q5 5 10.5 7.5t11.5 4.5z" />
    <glyph glyph-name="parenright" unicode=")" horiz-adv-x="291" 
d="M48 -9q-5 2 -9 4.5t-7 7.5q-2 5 -0.5 8l3.5 7q7 11 15.5 20t14.5 21q5 11 11.5 21t13.5 21q10 15 17.5 30.5t15.5 31.5q13 27 22.5 55t18.5 57q8 28 14.5 56t14.5 57q5 20 7.5 41t7.5 41q5 22 4 43t0 43q2 33 0 67q-2 26 -5.5 50.5t-7.5 49.5q-8 43 -21 84.5t-26 83.5
q-2 7 -2.5 13t2.5 12q3 9 10 10.5t14 -4.5q12 -13 17 -28q14 -32 25.5 -65.5t18.5 -68.5q5 -26 10.5 -50.5t8.5 -50.5q4 -29 3 -58.5t1 -58.5q1 -12 -2.5 -23.5t-2.5 -23.5q2 -23 -4 -44q-2 -11 -2.5 -22.5t-2.5 -22.5q-1 -17 -4.5 -33.5t-6.5 -33.5q-7 -33 -16.5 -65
t-20.5 -64q-11 -30 -25 -58t-30 -56q-14 -26 -33 -49t-40 -44q-5 -5 -10.5 -7.5t-11.5 -4.5z" />
    <glyph glyph-name="asterisk" unicode="*" horiz-adv-x="316" 
d="M74 555q2 28 4.5 55.5t9.5 54.5q1 2 0 3t-1 3q-4 -2 -5 -3q-3 -7 -8 -12l-10 -10q-9 -11 -18 -4q-7 5 -10 12t2 12q8 11 13 23.5t13 23.5t13.5 21.5t13.5 20.5q5 5 2 11q-2 2 -5 2h-6q-9 0 -14 -2q-10 -6 -23 -2q-5 2 -9.5 4t-5.5 10q0 9 2 13t10 6q14 4 26.5 8t26.5 2
q5 -1 7 2t0 7q-6 10 -5 21.5t-3 22.5q-5 19 -5.5 39.5t-0.5 40.5q0 10 10 13q5 2 8 2.5t7 -5.5q12 -17 17 -35t7 -37q0 -3 -0.5 -7.5t2.5 -3.5q4 0 3 4t1 7q5 14 8.5 29t7.5 29q4 11 11 15.5t15 8.5t13.5 -0.5t5.5 -13.5t-3 -16q-4 -8 -6.5 -15.5t-4.5 -15.5q0 -1 0.5 -2
t0.5 -2q3 0 3 1q5 8 13.5 11.5t12.5 12.5q2 5 7 7.5t10 4.5q6 3 12.5 1.5t9.5 -6.5q6 -11 -1 -20q-5 -6 -10 -11.5t-10 -12.5q-23 -32 -50 -65q-3 -5 -1 -6t4 -3t7 -2q17 2 31.5 -4t29.5 -11l4 -2t4 -1q5 -1 9.5 -1.5t7.5 -5.5q2 -4 2 -8t-1 -8q-1 -8 -8.5 -12.5t-16.5 -3.5
q-2 0 -4.5 1t-4.5 2q-20 4 -40.5 8t-41.5 3q-9 0 -9 -10q2 -13 6 -24.5t7 -22.5q8 -29 16.5 -56.5t17.5 -55.5q2 -5 1.5 -9t0.5 -9q2 -11 -8 -14q-5 -2 -9.5 -2t-8.5 5q-6 6 -8 11q-9 24 -20 47t-19 48q0 1 -2 5q0 -2 -1 -2.5t-1 -1.5q1 -5 -1.5 -8t-3.5 -8q0 -15 -3.5 -30
t-5.5 -30q-2 -20 -4.5 -39t-0.5 -39q0 -13 -7 -19q-8 -7 -15.5 -5.5t-9.5 11.5q-4 12 -6.5 24t-0.5 25z" />
    <glyph glyph-name="plus" unicode="+" horiz-adv-x="277" 
d="M107 382v19q-1 8 0.5 16.5t-3.5 13.5q-5 4 -13.5 3t-16.5 -1q-6 0 -12 -0.5t-12 0.5t-12.5 7t-6.5 11q-1 4 4.5 10t10.5 8q14 5 28 8.5t29 3.5q9 0 9 8q-2 18 2 35.5t2 35.5q0 6 2 11t3 10q4 15 24 15q8 0 11.5 -4.5t5.5 -10.5q7 -14 2 -29q-5 -14 -4 -29t-1 -30
q0 -7 7 -7h16.5t16.5 -5q5 -3 16 3q9 4 20 -2q13 -8 11 -19q-1 -5 -6 -10.5t-12 -5.5q-16 1 -31.5 -3t-31.5 -2q-12 2 -10 -9q2 -14 -2 -28.5t-3 -28.5t0.5 -27.5t-0.5 -27.5q0 -5 0.5 -9.5t-1.5 -9.5t-3.5 -9.5t-9.5 -4.5q-10 0 -13.5 2t-6.5 10q-4 13 -7 25t-2 26v31z" />
    <glyph glyph-name="comma" unicode="," horiz-adv-x="128" 
d="M98 95q-3 -50 -39 -77q-4 -3 -9 -6.5t-12 2.5q-6 5 -7.5 10.5t2.5 14.5q3 7 7 14q2 5 5 9.5t4 9.5q1 6 -4 9t-9 7q-6 6 -6 17q1 12 12 23t24 12q10 0 20 -9.5t12 -21.5v-14z" />
    <glyph glyph-name="hyphen" unicode="-" horiz-adv-x="263" 
d="M138 442q-6 0 -12 0.5t-12 -0.5q-16 -2 -31.5 2t-31.5 3q-3 0 -6 1.5t-5 3.5q-9 5 -10 13t7 16q9 9 26 9q10 0 19.5 -0.5t18.5 1.5q24 5 48 3.5t47 0.5q12 1 23 -5q15 -7 13 -26q-1 -8 -7 -11.5t-11 -4.5q-8 -2 -17 -4.5t-18 -1.5q-10 1 -20 1h-21v-1z" />
    <glyph glyph-name="period" unicode="." horiz-adv-x="125" 
d="M31 104q0 15 11 24t24 8q12 -2 20.5 -10t7.5 -19q-1 -14 -12.5 -24.5t-25.5 -9.5q-11 0 -18.5 9t-6.5 22z" />
    <glyph glyph-name="slash" unicode="/" horiz-adv-x="479" 
d="M31 135q3 19 14 41q14 32 29 64t29 64q19 44 39.5 85.5t42.5 83.5q20 37 39 73.5t41 72.5q10 16 18 32.5t17 33.5q23 38 43.5 76.5t45.5 75.5q5 7 8.5 14t7.5 14q3 6 8.5 9t10.5 5q9 3 17.5 -4t6.5 -17q-2 -11 -6 -20l-63 -108q-7 -12 -13.5 -24t-13.5 -25l-32 -60
t-33 -59q-44 -78 -83.5 -156.5t-78.5 -158.5q-9 -20 -17.5 -39t-15.5 -39q-4 -13 -10.5 -24.5t-12.5 -23.5q-4 -8 -7 -9q-5 -2 -10 -5t-10 1q-5 3 -9 7.5t-2 11.5v8z" />
    <glyph glyph-name="zero" unicode="0" horiz-adv-x="618" 
d="M587 629q-1 -29 -6 -54t-11 -50q-8 -29 -19 -57t-23 -56q-20 -48 -45 -92t-54 -86q-15 -22 -31 -43t-34 -41q-26 -29 -55.5 -51.5t-64.5 -38.5q-24 -11 -49.5 -17t-52.5 -3q-38 4 -65.5 26.5t-38.5 61.5q-2 11 -3.5 22t-3.5 22q-2 13 0.5 26t4.5 25q4 25 11 49t16 47
q12 32 27 62.5t32 60.5q14 24 29 46.5t32 45.5q10 15 23 29q19 22 37.5 43.5t40.5 40.5q22 18 43.5 36.5t45.5 33.5q12 7 24.5 13t26.5 11q16 5 29.5 4t24.5 -14q4 -4 8 -4.5t9 -0.5q14 0 26 -3.5t24 -9.5q28 -15 36 -47q3 -10 5.5 -19.5t0.5 -17.5zM159 87q10 1 19 0.5
t19 1.5q35 11 63.5 29t54.5 42q22 20 40 43.5t35 47.5q31 47 56 92q18 32 34 65t30 68q10 28 17.5 55.5t12.5 56.5q5 30 2 55q-1 19 -13.5 30t-29.5 9q-9 -2 -19 -3t-20 -4q-47 -14 -89 -33q-23 -11 -45 -23t-39 -32q-16 -20 -32.5 -39t-32.5 -39q-25 -32 -45.5 -65
t-38.5 -68q-13 -26 -23.5 -51.5t-18.5 -52.5q-5 -18 -9.5 -36t-4.5 -37q0 -2 -0.5 -5t-0.5 -5q-4 -14 0 -36.5t11 -35.5q11 -19 34 -27q8 -4 16.5 -3t16.5 0z" />
    <glyph glyph-name="one" unicode="1" horiz-adv-x="571" 
d="M514 774q17 2 24 -10.5t-1 -29.5q-5 -11 -10 -21t-13 -19q-14 -18 -25.5 -37t-25.5 -37q-19 -24 -34.5 -50t-32.5 -52q-20 -31 -38.5 -62.5t-37.5 -63.5q-27 -46 -51 -93t-47 -95q-13 -28 -25 -56t-25 -57q-3 -8 6 -8q10 0 14 1q54 10 108 -2q7 -2 13.5 -5.5t12.5 -7.5
q7 -4 10 -10.5t1 -11.5q-2 -8 -9.5 -14t-14.5 -3q-11 5 -22 5t-22 2q-13 3 -26.5 3t-26.5 -2q-12 -3 -25 -3q-14 -1 -28 -4t-28 -4q-18 -2 -35.5 -6.5t-34.5 -9.5q-9 -3 -20.5 2t-13.5 10q-2 7 3 15.5t13 15.5q17 14 37 14h5q7 2 15 3t14 5q5 4 6 11t3 12q11 32 23 62t27 59
q16 33 32 66.5t34 65.5l40 72t42 71q51 84 108 165q1 2 1.5 4t2.5 4q2 3 0 4h-5q-7 -7 -15.5 -10.5t-16.5 -8.5q-5 -3 -10 -3.5t-10 -1.5q-14 0 -20 14q-4 8 -1 13.5t7 7.5q8 5 14.5 11.5t14.5 11.5l16 10l16 10q16 8 30 18.5t29 20.5t28 9z" />
    <glyph glyph-name="two" unicode="2" horiz-adv-x="503" 
d="M472 657q2 -18 -3 -34t-13 -31q-12 -28 -28 -54t-33 -52q-27 -41 -56.5 -80.5t-59.5 -79.5q-23 -29 -44 -58t-44 -58q-23 -28 -45 -55t-45 -55q-3 -2 -3 -6q1 -5 8 -3q13 2 26 2.5t25 3.5q14 3 27 4t26 3q17 2 33 4.5t33 1.5t32.5 -0.5t32.5 -0.5q40 -1 79 -9
q16 -3 28 -16q6 -8 5.5 -17t-7.5 -15q-9 -9 -17 -2q-8 5 -16.5 6t-17.5 1q-28 0 -55.5 -0.5t-55.5 0.5q-22 1 -43.5 -1t-43.5 -5q-21 -3 -42.5 -5.5t-43.5 -6.5q-14 -3 -30 -3t-30 8q-29 15 -17 49q4 11 10.5 19t13.5 16q13 17 26 32.5t26 31.5q21 26 41.5 50.5t40.5 50.5
q16 20 31 40.5t31 40.5q36 48 71 97t67 101q8 15 15.5 29.5t13.5 29.5q4 11 4 20.5t-2 19.5q-2 14 -16 21q-17 8 -33.5 8.5t-33.5 -2.5q-7 -2 -14 -2.5t-14 -2.5q-14 -5 -26.5 -13t-23.5 -16q-10 -7 -18.5 -14t-16.5 -15q-4 -4 -7.5 -6.5t-8.5 0.5q-5 2 -9 6t-4 10q1 5 1 9
t3 9q16 23 36.5 39.5t46.5 27.5q17 7 34 11t34 6q52 8 95 -26q11 -8 16.5 -20.5t7.5 -26.5q1 -5 0.5 -8.5t-0.5 -8.5z" />
    <glyph glyph-name="three" unicode="3" horiz-adv-x="468" 
d="M214 718q-11 0 -23 -2.5t-25 -5.5q-9 -2 -18.5 -2.5t-18.5 -3.5q-3 -1 -7.5 1t-8.5 5t-6.5 7.5t-1.5 7.5q4 16 17 22q14 5 28 9.5t28 4.5q13 1 25.5 0.5t25.5 -0.5q20 0 32 -11q27 -24 7 -57q-11 -18 -23 -34t-24 -33l-66 -90q-4 -6 -5 -10q-1 -1 -1 -2t-1 -1q2 -3 7 -1
q17 13 36 21.5t38 18.5q52 28 106 34q19 2 35 -4q53 -20 66 -76q4 -19 0.5 -36.5t-8.5 -34.5q-11 -36 -29.5 -68.5t-39.5 -63.5q-22 -31 -45 -61t-49 -58q-10 -11 -19.5 -22t-20.5 -21q-23 -20 -45 -40t-48 -37q-14 -9 -27.5 -18.5t-27.5 -18.5q-9 -7 -22 -13
q-4 -2 -11.5 -0.5t-10.5 4.5q-2 3 -2 11t3 12l15 15q21 17 42 32.5t42 32.5q26 21 50.5 44.5t47.5 49.5q30 35 58.5 70t52.5 74q14 22 27 45t19 49l6 24t-2 26q-6 17 -17 28t-30 13q-11 1 -26 -2q-47 -10 -88 -31.5t-81 -46.5q-10 -6 -19.5 -12.5t-21.5 -9.5q-18 -5 -28 3
t-7 27q2 15 8 25q26 38 52 74.5t55 71.5q11 14 20.5 28t18.5 28q5 6 4 7.5t-8 1.5h-10z" />
    <glyph glyph-name="four" unicode="4" horiz-adv-x="398" 
d="M114 391q32 0 62.5 8t59.5 22q23 11 30 39q7 29 17 57t25 54q1 2 1.5 3.5t1.5 3.5q7 9 19.5 14t20.5 0q8 -4 13 -16t2 -23q-8 -31 -19.5 -60t-28.5 -56q-18 -24 -22 -48q-5 -36 -12 -72q-2 -15 -1.5 -30.5t-5.5 -29.5q-2 -4 -1.5 -8t0.5 -9v-175q0 -8 -2 -15t-9 -12
q-17 -15 -28 6q-1 1 -2.5 6.5t-3 12t-2.5 12.5t-1 9v39q-1 11 -0.5 22t-3.5 22q-5 14 0 26q4 12 3.5 24t0.5 24q1 28 4 56t10 55v10q1 8 0 8.5t-9 -2.5q-24 -9 -48 -15t-49 -11q-17 -3 -34 -1.5t-34 3.5q-23 2 -32.5 19t-2.5 42l8 28t10 27q22 48 44 94t47 91q6 11 11.5 22
t11.5 22q7 13 16.5 24t15.5 25l3.5 3.5l3.5 3.5q7 5 15 6.5t13 -2.5q8 -5 6.5 -12t-3.5 -14q-5 -20 -14.5 -37.5t-22.5 -34.5q-7 -8 -12 -17.5t-10 -18.5q-13 -26 -26 -51.5t-25 -51.5t-22.5 -53.5t-21.5 -54.5q-4 -8 -1.5 -10t10.5 -2q6 -1 12 -1h12z" />
    <glyph glyph-name="five" unicode="5" horiz-adv-x="344" 
d="M129 433q-11 2 -22.5 -1.5t-22.5 -9.5q-4 -2 -7 -4t-7 -4q-15 -7 -27 0t-13 24q0 19 3.5 37.5t4.5 36.5t5.5 35t-0.5 36q-2 7 -0.5 14t3.5 15q4 19 8.5 37.5t9.5 37.5v9q-2 17 1.5 33t8.5 32q3 13 9.5 23.5t23.5 9.5q21 9 43.5 12.5t44.5 8.5q20 5 40.5 8.5t40.5 3.5
q10 0 17 -3t12 -13q3 -8 3 -15t-6 -11q-5 -3 -10 -6.5t-13 -5.5q-25 -5 -49.5 -9t-49.5 -5q-5 0 -9.5 -1t-9.5 -2q-7 -2 -14.5 -1.5t-15.5 4.5q-3 2 -6 0t-3 -7q0 -23 -4.5 -44t-8.5 -44q-2 -11 -3.5 -22t-3.5 -22q-2 -13 -2.5 -25.5t-5.5 -25.5q-1 -2 -1 -9q0 -18 -2.5 -36
t-6.5 -36q-2 -11 9 -9q8 2 16 4.5t16 1.5q12 0 24 -1t23 -4q22 -7 44 -15t41 -22q17 -14 30.5 -30t18.5 -38q3 -15 7 -30.5t-4 -31.5q2 -20 -3.5 -38.5t-12.5 -36.5q-12 -32 -28.5 -62.5t-38.5 -57.5q-29 -37 -61 -70.5t-66 -66.5q-14 -13 -31 -21q-12 -6 -24 1
q-7 5 -8.5 10.5t-0.5 13.5q0 6 6 9q15 9 26 21.5t23 23.5q21 20 41 40.5t38 43.5q32 40 55.5 83.5t34.5 94.5q5 22 3.5 44t-16.5 42q-6 8 -10 10q-21 15 -49.5 26.5t-57.5 9.5z" />
    <glyph glyph-name="six" unicode="6" horiz-adv-x="424" 
d="M47 150v22.5t-1 22.5q0 9 3 17t2 16q0 6 -2.5 5t-4.5 0q-5 1 -9.5 3.5t-3.5 10.5t1.5 15.5t5.5 14.5q7 11 12 22.5t12 22.5q5 8 8 18t5 20q9 47 22.5 92.5t30.5 90.5q21 57 46 111t60 105q10 14 21.5 25.5t28.5 18.5q18 8 32 1q7 -3 9 -9t-2 -11q-3 -6 -8 -9
q-23 -18 -39 -40.5t-30 -47.5q-35 -59 -57.5 -121.5t-44.5 -125.5q-1 -3 -1 -7v-3.5t4 0.5t8 4.5t7 6.5q18 19 40.5 30.5t47.5 16.5q46 10 84.5 -9t53.5 -72q7 -26 5 -51.5t-8 -51.5q-9 -43 -26 -82.5t-37 -77.5q-14 -25 -30 -48t-34 -46q-13 -17 -28.5 -29.5t-32.5 -25.5
q-11 -8 -23.5 -12t-26.5 -6q-26 -2 -44 10.5t-32 32.5q-8 13 -12 27.5t-8 29.5q-5 18 -4.5 36t0.5 37zM94 148q0 -11 0.5 -22.5t-0.5 -22.5q0 -14 4 -27.5t9 -27.5q4 -8 10 -14.5t17 -9.5q13 -4 23 -0.5t20 9.5q22 15 39.5 34t32.5 41q20 29 36.5 58.5t30.5 61.5
q16 38 26 75.5t7 78.5q-2 21 -10 36q-6 11 -14.5 19t-21.5 10q-24 2 -47 -2t-45 -18q-23 -14 -40.5 -32t-36.5 -35q-9 -9 -13.5 -20.5t-6.5 -23.5q-2 -16 -5.5 -31t-5.5 -31q-2 -18 -5 -35t-4 -35v-36z" />
    <glyph glyph-name="seven" unicode="7" horiz-adv-x="392" 
d="M262 796q-28 0 -55.5 -4t-55.5 -2q-19 -5 -38 -3.5t-38 -0.5q-11 -2 -19 1.5t-17 7.5q-10 5 -8 18q1 5 5.5 10t9.5 6h2q20 -2 38.5 2.5t37.5 2.5q12 -1 23.5 2.5t23.5 2.5q11 -1 22.5 -0.5t22.5 4.5q6 2 13.5 1.5t14.5 -0.5h79q15 0 28 -11q8 -7 9.5 -14.5t-0.5 -17.5
q-4 -18 -11.5 -34t-15.5 -33q-22 -48 -41.5 -95.5t-38.5 -95.5q-17 -43 -31 -86l-28 -86q-15 -47 -27.5 -93.5t-23.5 -94.5q-6 -23 -9.5 -47t-7.5 -48q-4 -20 -6 -40.5t-7 -40.5q-2 -10 -3.5 -20.5t-1.5 -21.5q0 -5 -2 -8t-4 -7q-2 -6 -10 -8.5t-14 -0.5q-4 2 -7 9.5
t-1 11.5q5 8 4.5 16t-0.5 16q-2 24 1 47t5 46q3 31 8.5 61t12.5 61q8 37 17.5 73.5t20.5 72.5q2 8 2 12q0 6 -5 6h-18t-18 -1q-14 -2 -25 4t-15 19q-2 9 5 18.5t18 11.5q7 2 14 2t12 -2q13 -7 24 -3t22 4q4 0 4.5 2.5t1.5 4.5q4 7 5.5 14t4.5 14q17 46 33 91t35 90
q30 72 63 144q2 6 1.5 7.5t-7.5 2.5h-34z" />
    <glyph glyph-name="eight" unicode="8" horiz-adv-x="475" 
d="M444 775q1 -26 -6 -50.5t-15 -50.5q-14 -41 -29.5 -80t-32.5 -78q-16 -35 -31 -69.5t-32 -68.5q-2 -5 -3.5 -10t-3.5 -10q-3 -5 -7.5 -11.5t-1.5 -11.5t10 -7t12 -5q16 -8 32 -15.5t30 -18.5q16 -11 27 -25t18 -34q9 -27 2 -58q-7 -35 -22.5 -65.5t-37.5 -59.5
q-36 -48 -89 -82q-21 -14 -44 -25t-49 -15q-45 -6 -79 11t-51 68q-9 25 -10 50.5t3 51.5q6 39 19 75t31 70q14 26 29.5 51t36.5 46q4 5 4.5 8t-4.5 8q-30 28 -40 72q-6 40 0 78q6 36 19.5 69.5t30.5 65.5q11 20 22.5 38t24.5 35q17 22 34.5 43t38.5 39q14 12 27.5 23.5
t30.5 20.5q24 14 49 13q34 -2 48 -31q7 -13 8 -26.5t1 -28.5zM144 -27h23q4 -1 6.5 1t4.5 3q26 5 48 18.5t42 30.5q15 12 29.5 25.5t25.5 30.5q17 23 29 48.5t16 55.5q6 44 -29 67q-16 10 -32 17t-33 15q-5 2 -7 1t-5 -3q-11 -6 -22 -3t-11 14q-1 11 -7 15.5t-12 8.5
q-14 10 -18.5 9t-14.5 -14q-3 -4 -6 -7t-6 -7q-22 -32 -39.5 -65.5t-29.5 -69.5q-7 -21 -12 -42.5t-5 -44.5q-1 -14 1 -27t4 -27q2 -11 8 -21.5t14 -18.5q15 -15 38 -10zM155 484q0 -6 0.5 -9.5t-0.5 -6.5q-2 -22 6 -39t23 -33q11 -11 23 -17.5t23 -17.5q11 -10 16 4
q7 20 15.5 40t17.5 40l30 68t29 69q18 43 33 87q10 24 16.5 48.5t9.5 50.5q1 10 2 18.5t-3 17.5q-7 17 -21 12q-7 -2 -13 -5.5t-12 -7.5q-29 -19 -53 -43t-44 -51q-24 -32 -44.5 -66t-34.5 -72q-8 -22 -14.5 -44t-4.5 -43z" />
    <glyph glyph-name="nine" unicode="9" horiz-adv-x="466" 
d="M329 903q28 1 51 -15q5 -4 8 -4.5t8 6.5q5 8 14 9.5t14 -3.5q6 -6 9.5 -12.5t1.5 -17.5q-5 -22 -9 -44t-2 -45q0 -4 -2 -14q-3 -11 -6 -22.5t-2 -23.5q2 -8 -2 -16t-3 -16q1 -15 -3 -30q-3 -10 -3 -20.5t-2 -21.5q-2 -20 -5 -40l-6 -40l-10 -64t-13 -64
q-5 -20 -7.5 -40.5t-7.5 -40.5q-4 -17 -7 -35t-8 -35q-7 -29 -14 -58.5t-18 -58.5q-29 -83 -82 -149q-18 -22 -38 -41.5t-40 -39.5q-16 -15 -38 -24q-23 -10 -33 10q-4 8 -1 18.5t11 15.5q6 4 8 0q5 -6 8.5 -5.5t8.5 4.5t9 7.5t9 8.5q35 38 66 78t52 88q11 26 20 51.5
t15 52.5q5 23 11 46.5t11 46.5q5 22 8.5 44t8.5 45q2 17 5.5 32.5t6.5 31.5q2 9 3 18t3 17q4 23 6.5 45t7.5 45q2 7 1 14t1 15q1 5 3.5 9t-2.5 7q-2 2 -4.5 -3.5t-4.5 -9.5q-14 -28 -28 -55.5t-30 -54.5q-20 -33 -40.5 -65t-48.5 -58q-34 -32 -78 -26q-16 3 -30 14
q-14 12 -24.5 25.5t-17.5 31.5q-9 23 -14 46t-3 48q2 21 7 42t13 41q11 29 24.5 55t28.5 52q12 20 25.5 38.5t27.5 36.5q23 30 50 55.5t59 44.5q14 8 30 13.5t33 3.5zM78 513v-22q0 -41 25 -74q27 -33 58 -9q10 8 19.5 17.5t16.5 20.5q29 40 54 82.5t48 86.5
q13 25 24.5 50.5t21.5 51.5q16 46 30 93q6 20 -6 34.5t-32 16.5q-18 1 -34 -4.5t-30 -15.5q-18 -13 -34.5 -27t-30.5 -31q-12 -16 -24.5 -31.5t-23.5 -32.5q-17 -25 -31.5 -50.5t-26.5 -53.5q-11 -26 -18.5 -51t-5.5 -51z" />
    <glyph glyph-name="colon" unicode=":" horiz-adv-x="125" 
d="M31 404q0 15 11 24t24 8q12 -2 20.5 -10t7.5 -19q-1 -14 -12.5 -24.5t-25.5 -9.5q-11 0 -18.5 9t-6.5 22zM31 204q0 15 11 24t24 8q12 -2 20.5 -10t7.5 -19q-1 -14 -12.5 -24.5t-25.5 -9.5q-11 0 -18.5 9t-6.5 22z" />
    <glyph glyph-name="semicolon" unicode=";" horiz-adv-x="128" 
d="M34 404q0 15 11 24t24 8q12 -2 20.5 -10t7.5 -19q-1 -14 -12.5 -24.5t-25.5 -9.5q-11 0 -18.5 9t-6.5 22zM98 196q-3 -50 -39 -77q-4 -3 -9 -6.5t-12 2.5q-6 5 -7.5 10.5t2.5 14.5q3 7 7 14q2 5 5 9.5t4 9.5q1 6 -4 9t-9 7q-6 6 -6 17q1 12 12 23t24 12q10 0 20 -9.5
t12 -21.5v-14z" />
    <glyph glyph-name="less" unicode="&#x3c;" horiz-adv-x="369" 
d="M318 730q6 0 12 -3.5t8 -8.5q2 -8 -0.5 -14t-6.5 -11q-2 -2 -5 -4l-6 -4q-17 -11 -33 -22.5t-33 -22.5q-8 -5 -15 -11.5t-15 -11.5q-18 -14 -35.5 -29.5t-34.5 -29.5t-32 -28t-30 -29q-6 -6 -6 -8.5t7 -8.5q8 -8 16 -15t17 -13q24 -17 46 -37t42 -42q21 -23 41 -47.5
t38 -50.5q3 -5 5 -9.5t4 -9.5q7 -16 -9 -23q-2 -2 -4 -0.5t-4 2.5q-6 2 -10.5 5.5t-8.5 8.5q-26 29 -52.5 57t-55.5 55q-20 18 -39.5 35t-41.5 33q-8 6 -15.5 13t-15.5 13q-15 11 -15.5 31.5t12.5 33.5q40 39 84 75q16 13 31 26.5t32 26.5l57 42q11 8 25 12.5t25 13.5
q2 2 5.5 3.5t5.5 3.5q6 4 10 3z" />
    <glyph glyph-name="equal" unicode="=" horiz-adv-x="263" 
d="M138 442q-6 0 -12 0.5t-12 -0.5q-16 -2 -31.5 2t-31.5 3q-3 0 -6 1.5t-5 3.5q-9 5 -10 13t7 16q9 9 26 9q10 0 19.5 -0.5t18.5 1.5q24 5 48 3.5t47 0.5q12 1 23 -5q15 -7 13 -26q-1 -8 -7 -11.5t-11 -4.5q-8 -2 -17 -4.5t-18 -1.5q-10 1 -20 1h-21v-1zM138 342
q-6 0 -12 0.5t-12 -0.5q-16 -2 -31.5 2t-31.5 3q-3 0 -6 1.5t-5 3.5q-9 5 -10 13t7 16q9 9 26 9q10 0 19.5 -0.5t18.5 1.5q24 5 48 3.5t47 0.5q12 1 23 -5q15 -7 13 -26q-1 -8 -7 -11.5t-11 -4.5q-8 -2 -17 -4.5t-18 -1.5q-10 1 -20 1h-21v-1z" />
    <glyph glyph-name="greater" unicode="&#x3e;" horiz-adv-x="369" 
d="M51 236q-6 0 -12 3.5t-8 8.5q-2 8 0.5 14t6.5 11q2 2 5 4l6 4q17 11 33 22.5t33 22.5q8 5 15 11.5t15 11.5q18 14 35.5 29.5t34.5 29.5t32 28t30 29q6 6 6 8.5t-7 8.5q-8 8 -16 15t-17 13q-24 17 -46 37t-42 42q-21 23 -41 47.5t-38 50.5q-3 5 -5 9.5t-4 9.5q-7 16 9 23
q2 2 4 0.5t4 -2.5q6 -2 10.5 -5.5t8.5 -8.5q26 -29 52.5 -57t55.5 -55q20 -18 39.5 -35t41.5 -33q8 -6 15.5 -13t15.5 -13q15 -11 15.5 -31.5t-12.5 -33.5q-41 -39 -84 -75q-16 -13 -31 -26.5t-32 -26.5l-57 -42q-11 -8 -25 -12.5t-25 -13.5q-2 -2 -5.5 -3.5t-5.5 -3.5
q-6 -4 -10 -3z" />
    <glyph glyph-name="question" unicode="?" horiz-adv-x="594" 
d="M481 860q-20 1 -37 -5.5t-34 -14.5q-21 -8 -40 -20t-37 -25q-26 -19 -47.5 -41.5t-38.5 -49.5q-14 -23 -23 -48t-11 -53v-6t-2 -5q-2 -3 -3.5 -7.5t-7.5 -3.5q-5 1 -10.5 1t-8.5 6q-6 9 -7 19t1 20q2 8 2.5 17t3.5 17q11 29 25 55t34 49q48 54 111 91q26 15 53.5 26.5
t57.5 16.5q21 5 39 1t36 -15q9 -5 13 -12.5t7 -15.5t6.5 -16t-4.5 -17q-3 -29 -18 -52t-32 -45q-14 -20 -30.5 -37.5t-32.5 -36.5l-44 -52t-44 -53q-23 -30 -45 -60.5t-44 -61.5q-71 -102 -123 -213q-10 -21 -18 -42t-16 -43q-2 -4 -4 -7t-4 -7q-4 -4 -8.5 -4t-9.5 2
q-8 3 -8 13q1 7 1.5 14t2.5 14q5 24 13.5 47t17.5 46q8 21 18 40.5t21 39.5q19 32 38.5 63.5t41.5 61.5q19 26 37 52.5t39 51.5q19 22 36 44.5t35 44.5q9 11 18.5 21t19.5 21q20 22 38.5 44t35.5 45q8 11 14.5 23t10.5 25q10 36 -25 37h-10zM88 15q0 -26 -26 -34
q-16 -6 -26 7q-11 17 0 30q6 7 13 13q5 5 10 9t14 0q16 -7 15 -25z" />
    <glyph glyph-name="at" unicode="@" horiz-adv-x="592" 
d="M429 779q-34 0 -65 -9.5t-61 -26.5q-38 -20 -67.5 -48t-56.5 -59q-31 -36 -55 -76t-43 -84q-17 -38 -24.5 -76.5t-2.5 -79.5q5 -33 20.5 -60t47.5 -44q33 -18 67 -26.5t71 -6.5q16 2 29.5 7.5t26.5 13.5q4 2 5.5 6t3.5 8q5 5 8 11.5t7 12.5q4 5 10 5.5t11 -1.5
q15 -8 9 -22q-11 -21 -24.5 -38.5t-36.5 -26.5q-25 -8 -49.5 -13t-50.5 -1q-45 7 -85 24t-72 52q-16 17 -23.5 37.5t-12.5 42.5q-6 24 -6 49q2 26 7.5 51t13.5 50q18 51 44.5 97t59.5 89q11 14 22.5 27t23.5 26q22 23 46 43t51 36q23 14 47 24t50 16q36 9 71 7.5t69 -19.5
q46 -25 62 -79q8 -30 3.5 -59t-15.5 -58q-9 -24 -20.5 -47t-25.5 -45q-20 -33 -43 -63.5t-51 -57.5q-18 -17 -39 -27q-26 -12 -45.5 -0.5t-22.5 41.5q-2 24 2 47t10 46q0 3 2 7q0 1 -2 7q-1 -1 -2 -1.5t-2 -1.5q-7 -8 -14.5 -15t-13.5 -16q-5 -8 -12 -14.5t-14 -13.5
l-53 -53q-10 -11 -21.5 -19t-23.5 -16q-17 -11 -34.5 -5.5t-22.5 23.5q-3 9 0 17.5t6 16.5q11 31 27 58.5t35 54.5l14 18t14 17q18 22 40 38.5t48 27.5q12 5 24 4.5t23 -8.5q6 -4 12 -4.5t12 7.5q5 5 13 6t13 -2t8 -11.5t1 -15.5q-8 -23 -15 -45.5t-14 -45.5
q-7 -25 -12.5 -50t-4.5 -51q0 -8 2 -9.5t9 3.5q30 16 54 46q11 13 21 26.5t20 27.5q20 28 37 57.5t28 61.5q5 14 8 28.5t3 29.5q0 23 -8 41.5t-21.5 31.5t-31 19.5t-36.5 6.5q-4 -1 -8 -0.5t-9 0.5zM340 588q0 5 -5 3q-10 -4 -20.5 -6t-20.5 -9q-17 -13 -32 -26t-28 -30
q-20 -25 -37 -51t-31 -55q-1 -2 -1.5 -4.5t1.5 -4.5q4 -2 8 2q18 18 37 34.5t36 36.5q20 23 39 45t39 44z" />
    <glyph glyph-name="A" unicode="A" horiz-adv-x="800" 
d="M530 329q-30 2 -58 -2t-56 -2q-10 1 -14.5 -5t-8.5 -13q-14 -22 -26 -43.5t-25 -43.5q-23 -38 -42.5 -76t-39.5 -77q-12 -23 -24.5 -46.5t-22.5 -47.5q-5 -11 -11.5 -20.5t-13.5 -19.5q-2 -4 -5 -7l-6 -6q-7 -6 -18 -2q-8 5 -8 14q0 11 3 20.5t7 20.5q12 32 28 62.5
t31 61.5q26 52 53.5 102.5t59.5 98.5q1 2 1 3.5t1 2.5q7 7 3 13t-13 1q-3 -2 -11 -2q-23 2 -46 -1l-46 -6q-37 -4 -73 -2.5t-73 -0.5q-14 -2 -23 9q-4 6 -2.5 13t7.5 10q8 5 16.5 8t18.5 4q23 2 46 2.5t46 2.5q26 2 51 4t50 6q21 2 41.5 3t40.5 5q11 2 18 13q11 17 22 33.5
t22 33.5q32 49 64.5 95.5t66.5 93.5q20 27 39.5 53.5t39.5 52.5l54 66q18 20 36 41t38 40q11 11 23 19.5t28 12.5q8 2 19 -2t16 -12q5 -11 8 -22t-4 -23q-2 -26 -9.5 -49.5t-15.5 -47.5q-13 -38 -27 -74.5t-28 -73.5q-20 -53 -38.5 -105.5t-37.5 -105.5q-4 -10 -6.5 -20.5
t-7.5 -20.5q-2 -5 -0.5 -7t4.5 -4q6 -4 12 -6t10 -10q8 -17 -8 -25q-10 -6 -22 -1q-9 3 -12 1.5t-6 -11.5q-30 -84 -57.5 -166.5l-55.5 -166.5q-15 -46 -29.5 -91.5t-28.5 -92.5q-11 -35 -21.5 -69t-21.5 -69q-2 -8 -4.5 -16.5t-3.5 -17.5q0 -3 -2 -9q-4 -9 -7.5 -12
t-10.5 -2q-7 0 -14 5.5t-8 12.5t-1.5 14t1.5 14q4 19 8.5 37.5t9.5 37.5q11 38 23 74.5t23 74.5l22 66t21 67q14 46 29 91.5t31 91.5q12 34 23.5 67t22.5 67q4 9 -5 9q-20 -1 -40 3t-40 1zM616 373q15 0 18 1.5t7 11.5q11 29 20.5 58.5t20.5 58.5t21 59t21 59q19 46 35.5 92
t33.5 93q5 13 8.5 26.5t7.5 26.5q1 2 0 3.5t-1 3.5l-6 -3l-26 -28l-26 -28q-26 -28 -49 -57.5t-46 -59.5q-29 -37 -55 -74.5t-53 -74.5q-12 -17 -23 -34t-23 -34q-16 -20 -29.5 -42t-27.5 -44q-4 -6 -3 -7.5t8 -1.5q42 -1 84 1t83 -6z" />
    <glyph glyph-name="B" unicode="B" horiz-adv-x="633" 
d="M398 798q51 14 106 -3q26 -8 44.5 -24t32.5 -39q18 -29 23 -61.5t2 -67.5q-4 -38 -16 -73t-29 -69q-11 -20 -22.5 -37.5t-23.5 -34.5q-17 -23 -36.5 -42.5t-40.5 -38.5q-20 -17 -41.5 -30.5t-44.5 -25.5l-6 -3q2 -1 3.5 -2.5t3.5 -2.5q44 -16 73 -57q11 -16 17 -38
q9 -38 3.5 -74t-17.5 -72q-14 -45 -37.5 -83.5t-51.5 -74.5q-20 -27 -45 -50t-57 -39q-25 -12 -49.5 -10t-44.5 20q-16 14 -23 37q-9 34 -7.5 67t7.5 66q8 45 20.5 89t25.5 88q10 32 22 64l24 64q17 45 36 89t39 89q25 55 53 112q11 23 20.5 45t20.5 45q8 15 16 24
q9 12 23 6q5 -2 9.5 -9t3.5 -13q-2 -10 -4 -14q-35 -78 -72 -156q-20 -42 -37.5 -84t-35.5 -84q-4 -6 -4 -11q0 -6 6 -6q2 1 4.5 1t4.5 1l52 26t49 32q20 17 37.5 34t34.5 37q23 26 39 55t30 60q20 42 24 88q2 26 -0.5 51t-15.5 48q-14 26 -36.5 39t-51.5 15q-30 2 -58 -5.5
t-56 -19.5q-42 -19 -77 -46.5t-66 -60.5q-17 -19 -32.5 -38.5t-28.5 -40.5q-29 -48 -47 -99.5t-20 -108.5q-1 -19 -0.5 -36.5t4.5 -36.5q2 -7 4.5 -13t5.5 -13q2 -3 3 -7.5t-4 -9.5q-6 -5 -11.5 -5t-10.5 2q-8 5 -14.5 13t-8.5 19q-7 28 -9.5 56.5t0.5 57.5q2 18 4 36.5
t6 35.5q5 22 13.5 43.5t18.5 41.5q13 25 28 48t32 45q57 75 137 127q20 13 40.5 23t41.5 20q11 5 22.5 6t22.5 3zM402 130q-1 3 -1 6.5t-2 6.5q-5 17 -15 30.5t-27 23.5q-38 19 -83 22q-11 2 -14.5 0t-6.5 -11q-5 -11 -8 -21t-7 -21q-15 -44 -29.5 -87.5t-25.5 -88.5
q-8 -32 -13.5 -65t-7.5 -66q-1 -12 1.5 -24t6.5 -23q2 -7 8 -13.5t16 -5.5q8 1 16 2.5t16 6.5q28 15 49 37.5t40 47.5q12 15 22.5 32t20.5 34q14 26 25 54t17 57q4 17 5 33t-3 33z" />
    <glyph glyph-name="C" unicode="C" horiz-adv-x="785" 
d="M56 -37v24q2 26 7.5 52.5t10.5 52.5q11 54 28 104.5t37 101.5q17 42 36 81t41 78q47 86 103 163q19 26 39.5 50.5t41.5 47.5q15 16 30.5 31t30.5 29q26 22 51.5 39.5t55.5 31.5q15 7 31 11.5t33 6.5q31 2 56.5 -16t33.5 -56q8 -35 2 -68t-18 -66q-7 -22 -29 -22
q-12 1 -18.5 9.5t-1.5 20.5q12 30 14 61t3 63q1 9 -6.5 16.5t-16.5 8.5q-27 5 -49 -5q-29 -11 -54.5 -27.5t-48.5 -36.5q-5 -5 -10 -9.5t-11 -9.5q-38 -34 -70.5 -73.5t-62.5 -82.5q-58 -82 -104 -170q-24 -48 -45.5 -97t-38.5 -100q-12 -34 -21.5 -69t-17.5 -70
q-5 -23 -7 -52q-2 -17 -5 -34t-1 -34q0 -26 2.5 -52.5t13.5 -50.5q9 -23 26 -37t43 -16q13 -1 25.5 1.5t24.5 7.5q52 20 94 53q38 29 72.5 62.5t66.5 65.5q22 20 41 41t38 44q8 11 17.5 19.5t18.5 19.5l54 62t55 63q29 33 56 67.5t57 67.5q5 5 8.5 11.5t7.5 12.5q8 9 14 9.5
t15 -4.5q18 -10 9 -30q-5 -9 -9.5 -18.5t-12.5 -17.5q-12 -13 -22.5 -28t-22.5 -29q-17 -20 -33.5 -39.5t-33.5 -40.5q-14 -16 -27.5 -31.5t-27.5 -32.5q-8 -9 -15.5 -17t-15.5 -16q-17 -20 -35 -38.5t-35 -38.5q-22 -24 -44.5 -47t-45.5 -45q-15 -18 -31.5 -35t-34.5 -31
q-23 -22 -48.5 -42t-54.5 -37q-22 -12 -45.5 -23t-49.5 -14q-23 -3 -46.5 -0.5t-45.5 16.5q-26 16 -42 41q-11 19 -17.5 39.5t-10.5 42.5q-3 20 -3 40t1 40z" />
    <glyph glyph-name="D" unicode="D" horiz-adv-x="1161" 
d="M1100 504q-5 0 -5 -7q-2 -48 -15 -92t-33 -88q-31 -67 -72 -125q-32 -44 -66 -84q-19 -22 -39 -42.5t-41 -40.5q-20 -19 -40.5 -36t-42.5 -34q-23 -20 -48.5 -37t-51.5 -33q-41 -23 -82.5 -42.5t-86.5 -30.5q-24 -6 -48 -10t-50 -4q-33 1 -64.5 8t-63.5 18
q-17 5 -33 10.5t-33 10.5q-8 2 -16.5 1.5t-16.5 -8.5q-7 -7 -15 -12l-16 -10q-10 -6 -20.5 -10t-23.5 -3q-7 1 -13 3t-9 8q-2 6 -3.5 12.5t0.5 14.5q7 21 22.5 31t33.5 17q5 2 10 4.5t10 0.5q13 -2 21 4t16 14q21 21 39.5 45t36.5 48q22 30 42 61l40 62q17 29 33 57t33 57
q20 33 39 65.5t39 65.5q12 21 23.5 42t23.5 42q14 24 28 47.5t27 48.5q13 26 28 50t24 52q3 9 8 18t9 18q2 5 5.5 8t7.5 6q4 5 9 5.5t10 -1.5t8.5 -6t3.5 -10q0 -3 0.5 -6.5t-0.5 -5.5q-8 -25 -17.5 -48.5t-22.5 -46.5q-11 -17 -20.5 -34.5t-19.5 -34.5q-19 -35 -38 -68
t-39 -67q-16 -27 -31 -54.5t-31 -55.5q-18 -30 -36 -59.5t-35 -59.5q-23 -39 -48 -76.5t-51 -75.5q-14 -20 -28.5 -40t-31.5 -38q-4 -4 -6.5 -8t-5.5 -9q-4 -5 -10 -8.5t-3 -9.5q2 -4 9 -5t12 -3q24 -7 48 -15t48 -12q23 -5 46.5 -6.5t47.5 3.5q22 4 43.5 8.5t42.5 11.5
q30 11 58 25t56 30q32 18 61.5 39t58.5 44q39 30 76 69q11 12 22.5 23t22.5 23q20 21 37.5 43t34.5 45q19 25 35 50.5t30 52.5q15 30 26.5 61t19.5 64t9 66t-1 66q-1 23 -8 44t-15 41q-15 35 -35.5 65.5t-48.5 56.5q-42 39 -100 61q-20 8 -40.5 13t-42.5 8q-36 6 -71 3
q-30 -2 -59.5 -9.5t-58.5 -18.5q-35 -14 -67.5 -33t-61.5 -42q-32 -25 -61 -53t-55 -60q-36 -43 -63 -88q-31 -48 -54.5 -97t-40.5 -103q-7 -21 -12.5 -41.5t-10.5 -41.5q-3 -12 -4 -24.5t-2 -24.5q-1 -8 -0.5 -14.5t5.5 -13.5q9 -10 0 -19q-4 -3 -12 -3t-13 3q-10 7 -14 17
t-5 22q-2 21 1.5 42t8.5 42l14 58t18 58q11 31 23.5 60t29.5 57q13 22 26 43.5t28 42.5q11 17 24 33t27 32q11 12 21 24t22 23q44 42 91.5 76.5t103.5 58.5q23 11 47.5 17.5t50.5 11.5q20 4 39.5 7t39.5 2q65 -4 123.5 -22.5t109.5 -58.5q40 -31 69 -69t49 -83
q17 -40 24 -80q2 -11 3 -21t1 -21q0 -5 5 -5v-43z" />
    <glyph glyph-name="E" unicode="E" horiz-adv-x="753" 
d="M922 878q-9 -14 -22.5 -18t-27.5 -6q-19 -2 -37 -3.5t-37 -2.5q-30 -2 -60.5 -5t-61.5 -5q-16 -1 -31 -2l-30 -2q-6 0 -11 -1t-10 -3q-6 -1 -9 -6q-11 -18 -23 -34t-26 -32q-21 -26 -40.5 -51.5t-39.5 -50.5q-17 -20 -32.5 -41.5t-31.5 -43.5q-20 -29 -39 -57.5
t-38 -57.5q-1 -2 -2 -3.5t0 -3.5q2 -3 3.5 -1.5t3.5 2.5h2q23 -2 44 1.5t44 5.5q34 3 67.5 2t67.5 3q25 2 49 1.5t49 1.5q12 0 20 -5t9.5 -12.5t-6.5 -14.5q-5 -6 -12.5 -8.5t-15.5 -2.5q-17 0 -35 -2t-35 -4q-20 -2 -38.5 -2t-37.5 -3q-20 -3 -39 -2.5t-39 -1.5
q-27 -3 -54 -5.5t-54 -4.5q-7 0 -13 -2.5t-13 -1.5q-5 0 -11 -8q-11 -19 -21 -38t-21 -38q-18 -31 -34 -63l-32 -64q-16 -33 -28.5 -67.5t-20.5 -70.5q-3 -15 -5 -30t2 -32q10 -43 49 -63q43 -24 93 -30q7 0 13 -3t14 -2q7 0 14 -1l14 -2q15 -2 29.5 -2.5t29.5 3.5
q12 2 23.5 3.5t23.5 3.5h2q8 1 14 -2t13 -5q-3 -5 -6.5 -10.5t-7.5 -10.5q-8 -9 -17.5 -13t-19.5 -6q-26 -6 -52.5 -6.5t-52.5 1.5q-41 3 -85 14q-24 6 -47.5 15t-43.5 26q-19 15 -30.5 34t-19.5 41q-2 4 -1.5 8t0.5 8q-4 34 2.5 66t17.5 63q8 23 17 45t20 44
q8 14 13.5 28.5t13.5 28.5q17 29 31 58t33 56q1 2 1.5 3.5t1.5 3.5q3 4 -2 4q-8 0 -14.5 0.5t-14.5 -2.5q-4 -2 -6 -2q-20 2 -40.5 -2t-40.5 -3q-24 0 -37 19q-6 8 0 13q5 5 10 8t11 3q9 0 17.5 1.5t17.5 2.5q22 4 44 6t45 5q8 2 16 3.5t16 0.5q8 0 12.5 5t8.5 10
q8 12 16 24.5t16 24.5l32 48t33 47q16 22 31.5 43.5t32.5 43.5q13 16 25.5 31.5t25.5 30.5q15 19 30 37t30 37q2 4 3 5q-6 2 -7 2q-14 0 -26.5 -2.5t-24.5 -4.5q-11 -2 -21 -3.5t-21 -3.5l-42 -8t-43 -8l-84 -18q-8 -2 -15 -3.5t-15 -2.5q-14 0 -21 14q-2 5 -0.5 10.5
t6.5 10.5q6 7 13.5 9.5t15.5 4.5q18 4 36 7t35 8q31 8 61.5 14.5t61.5 12.5q19 5 38 7t39 5q16 3 32.5 2t32.5 6h2q23 -2 44 2t44 3q26 0 52 2.5t52 4.5q16 0 32 0.5t32 3.5q14 2 27 2.5t27 1.5q20 2 32 -15v-9z" />
    <glyph glyph-name="F" unicode="F" horiz-adv-x="634" 
d="M382 527q27 5 54 4t53 2q20 2 40.5 2t40.5 2q7 0 13 -1.5t12 -3.5q8 -1 11.5 -6.5t4.5 -11.5q4 -13 -12 -20q-3 -2 -6.5 -3.5t-6.5 -1.5q-13 -2 -25.5 -4t-26.5 -1t-27.5 1t-27.5 -2q-22 -3 -43.5 -3t-44.5 -2q-11 -2 -23 -3.5t-23 0.5q-12 1 -18 -4.5t-9 -15.5
q-13 -34 -26.5 -68t-26.5 -69q-5 -13 -12.5 -38t-17.5 -56t-20.5 -65t-20 -65.5t-17 -56.5t-11.5 -38q-8 -29 -16 -57t-16 -57q-2 -7 -5 -13t-4 -13q-1 -6 -4 -10t-7 -8q-3 -3 -6 -5.5t-8 -1.5q-5 2 -9.5 7.5t-4.5 10.5q-1 5 -1.5 10.5t1.5 10.5q5 22 8.5 44t9.5 43
q3 10 9.5 32.5t15 51.5t17.5 60.5t17.5 60.5t15.5 51.5t11 32.5q17 47 33.5 93.5t35.5 92.5q3 7 5 14t7 14q1 2 0 4t-5 2h-7q-11 -1 -21.5 -2.5t-21.5 2.5q-7 2 -12 -2q-4 -3 -8.5 -3t-9.5 1q-6 0 -12.5 6.5t-7.5 11.5q0 5 5.5 11.5t11.5 8.5q19 5 37.5 10t38.5 5
q3 0 6 -0.5t6 0.5q14 2 21.5 7t11.5 19q4 13 9.5 24.5t10.5 22.5q12 28 25 54.5t25 54.5q12 26 24.5 50.5t24.5 50.5q7 15 -9 14q-19 -1 -40 -6l-84 -18q-10 -2 -20 -4.5t-21 -5.5q-23 -7 -46.5 -13t-46.5 -14q-20 -8 -40.5 -13t-40.5 -10q-8 -2 -15 0t-9 7q-2 6 1 12.5
t10 9.5q19 8 37.5 18t38.5 16q23 6 45 13t45 13q25 7 49.5 13t49.5 12q30 6 59.5 12t59.5 11q9 1 14 8q4 8 9.5 14t11.5 12q2 2 2 5t5 4q5 0 5 -4.5t2 -6.5t2 -4q1 -5 -0.5 -10t3.5 -7q11 -6 21 -1q12 6 25.5 4t25.5 5q19 -2 37 2.5t36 2.5q11 -1 21 2.5t21 2.5t21.5 0
t21.5 3q16 3 33 3t34 -2q20 -1 39 2.5t39 2.5h79q5 0 9 1.5t9 2.5q11 3 20.5 -3.5t8.5 -20.5q-1 -9 -6.5 -14.5t-12.5 -7.5q-6 -2 -12 -4.5t-13 -1.5q-54 2 -107.5 -2.5t-107.5 -2.5q-23 -5 -45.5 -3.5t-45.5 -5.5q-3 -1 -6 -0.5t-6 0.5q-22 0 -42.5 -3.5t-42.5 -5.5
q-14 -1 -28 -3.5t-28 -2.5q-12 1 -15 -11q-2 -7 -5 -13t-6 -13q-18 -36 -35.5 -72.5t-35.5 -73.5q-13 -27 -25 -54.5t-26 -55.5q-3 -9 6 -9h26z" />
    <glyph glyph-name="G" unicode="G" horiz-adv-x="796" 
d="M517 144q-6 -2 -9 -5.5t-6 -7.5q-21 -28 -45.5 -52t-50.5 -47q-30 -28 -63.5 -50.5t-71.5 -39.5q-17 -8 -34.5 -12.5t-36.5 -8.5q-17 -3 -32 -1t-30 5q-42 10 -64 52q-8 16 -13 31.5t-6 33.5q-1 10 -3.5 19.5t-0.5 19.5l4 30t4 31q5 38 16 74t23 72q4 11 8 20.5t9 20.5
q33 76 76 145q22 37 47 70.5t50 68.5q7 10 15.5 19t16.5 18q12 14 25 26.5t24 26.5q8 11 19 19t21 18q32 30 67 55.5t73 48.5q29 18 60 31t63 24q30 9 60 12q21 2 41 -3t38 -19q12 -9 18 -20.5t8 -24.5q1 -9 -3 -18.5t-11 -17.5q-6 -7 -13 -13t-11 -14q0 1 -3 -2q0 1 -0.5 2
t-0.5 2q0 3 -0.5 5.5t0.5 4.5q4 6 4 12t-1.5 12t-3.5 12t0 12q-7 10 -15.5 16t-20.5 7q-26 2 -50 -3t-47 -14q-32 -12 -62.5 -28t-59.5 -36q-25 -17 -48.5 -35.5t-46.5 -38.5q-10 -10 -20 -19l-20 -18q-24 -23 -45 -48.5t-43 -51.5q-34 -43 -62 -86q-19 -28 -35.5 -57
t-31.5 -59q-18 -37 -33.5 -74.5t-26.5 -77.5q-6 -20 -10.5 -41t-8.5 -43q-4 -17 -4 -33t-1 -33q-1 -26 10 -55q15 -41 56 -42q35 -2 65 9.5t59 28.5q47 30 86 66q14 13 28.5 25.5t26.5 27.5q18 20 36 40.5t35 41.5q26 33 50 67t49 68q5 7 8.5 14.5t8.5 13.5q3 3 1 6.5
t-6 3.5q-10 2 -14 0q-21 -5 -42 -4.5t-41 1.5q-17 0 -34.5 -3t-34.5 -3q-12 0 -24 3t-25 3q-9 0 -16 7t-8 15q-2 13 9 23t25 6q17 -6 34 0q9 3 19 0q24 -5 48 -4t49 4q11 2 21 1t21 0q12 1 24 -0.5t23 4.5q17 -3 33.5 -7t26.5 -21q5 -9 4.5 -19t-3.5 -20q-5 -16 -13.5 -30
t-17.5 -28q-19 -32 -38.5 -64t-38.5 -64q-48 -79 -89 -160.5t-82 -163.5q-10 -20 -19 -39.5t-18 -39.5q-7 -14 -21 -25q-13 -11 -25 1q-13 14 -6 30q5 11 9.5 22t9.5 22q29 60 58 118.5t58 118.5q8 17 17 33t18 33q2 3 3 5.5t0 5.5q2 1 4 1q1 2 0 2.5t-2 -0.5q-1 0 -1 -3z
" />
    <glyph glyph-name="H" unicode="H" horiz-adv-x="688" 
d="M337 458q29 6 61 4.5t64 1.5q40 4 80 3q11 0 16 12q10 21 19.5 43t20.5 44q13 28 26.5 56t27.5 55q15 31 31 61t31 60q9 17 16.5 34t15.5 34q10 19 25 14q7 -2 11.5 -10t1.5 -17q-4 -12 -8.5 -24t-9.5 -24q-19 -47 -42.5 -91t-45.5 -90q-21 -46 -42 -91.5t-41 -91.5
q-15 -36 -29.5 -71.5t-28.5 -71.5q-20 -52 -38 -104.5t-36 -106.5q-20 -59 -36 -115q-17 -60 -35.5 -118.5t-38.5 -116.5q-4 -11 -7.5 -21.5t-11.5 -18.5q-4 -3 -7 -6t-9 2q-6 4 -10 9.5t-2 10.5q8 27 15 54t15 53q7 24 12.5 47.5t12.5 47.5q16 59 35 120q16 51 32.5 101
t34.5 101q12 35 25.5 70.5t27.5 70.5q5 15 14 32q2 5 -0.5 7.5t-6.5 0.5q-8 -3 -14 -3q-35 0 -70 -3.5t-70 -1.5q-18 1 -35.5 -2.5t-35.5 -2.5q-6 0 -8.5 -3.5t-4.5 -8.5q-6 -14 -13 -28t-14 -29q-9 -20 -17.5 -40.5t-16.5 -40.5l-105 -255q-4 -9 -6 -18.5t-6 -19.5
q-2 -6 -8.5 -12t-10.5 -5q-7 0 -12.5 8t-6.5 16q0 8 2.5 16t4.5 16l28 80t30 80q14 36 28.5 71.5t28.5 70.5q8 20 16.5 38t16.5 37q1 2 1.5 3.5t1.5 3.5q5 12 -9 10h-3q-29 -8 -59 -13t-59 -14q-9 -2 -18.5 -1.5t-19.5 0.5q-5 0 -7 4.5t0 9.5q2 4 3 8.5t4 8.5q5 9 15 12
q25 7 49.5 13.5t50.5 11.5q17 4 33 7.5t33 5.5q15 1 21 15q12 28 24.5 55t24.5 55q1 2 1.5 4t2.5 4l34 72l34 72q19 38 38 74t37 74q5 11 10 20.5t14 16.5q12 10 23 4q12 -10 9 -25q-4 -15 -10 -29.5t-14 -28.5q-17 -34 -34.5 -67.5t-33.5 -68.5q-19 -39 -36.5 -78
t-34.5 -78q-8 -17 -16 -35t-16 -35q-4 -8 -3 -9.5t9 -1.5h13z" />
    <glyph glyph-name="I" unicode="I" horiz-adv-x="452" 
d="M500 909q19 0 32.5 0.5t25.5 -1.5q26 -4 52 -4t51 -9q10 -4 16 -10t5 -11q-1 -8 -8.5 -13t-18.5 -5q-19 0 -38 -0.5t-38 1.5q-10 0 -19 2.5t-19 1.5q-5 0 -7 -5q-8 -16 -17 -30.5t-20 -29.5q-11 -17 -21.5 -34.5t-21.5 -34.5q-20 -33 -37.5 -67t-34.5 -68
q-20 -38 -38.5 -77.5t-35.5 -78.5q-18 -39 -35.5 -78t-33.5 -78q-22 -55 -43.5 -108.5t-41.5 -108.5q-16 -42 -30 -82.5t-28 -82.5q-1 -3 -2.5 -5.5t-1.5 -5.5q0 -4 1 -7t6 -3q8 2 16.5 0.5t16.5 2.5q10 4 16 1q11 -5 21.5 -4t21.5 0q2 0 3.5 0.5t3.5 -0.5q7 -1 14 -3t9 -10
q2 -7 -4 -11.5t-11 -7.5q-14 -9 -31 -11q-19 -1 -37.5 -3.5t-37.5 -1.5q-22 1 -42.5 -2.5t-41.5 -6.5q-17 -2 -35 -1t-35 1q-5 0 -10 5q-4 3 -5 5.5t4 7.5q14 13 30.5 19.5t34.5 9.5q10 2 19 4t18 1q12 0 12 10q0 29 9.5 54.5t17.5 51.5q14 42 29.5 82.5t32.5 81.5
q14 32 25.5 65t25.5 65q8 21 18 41.5t19 41.5q14 32 28 63.5t28 62.5q16 35 33 68t34 67q26 50 52.5 98.5t58.5 94.5l3 6l18 33q-11 5 -21 4.5t-21 -2.5l-20 -2l-20 -2q-14 -1 -27 1t-27 4q-3 0 -7 2q-14 7 -4 21q10 15 27 15q17 1 33.5 3t33.5 4q20 2 39 1.5t33 1.5z" />
    <glyph glyph-name="J" unicode="J" horiz-adv-x="1000" 
d="M919 673q1 20 1 39t-5 39q-11 42 -30.5 77t-63.5 53q-22 9 -44.5 12t-46.5 -2q-17 -3 -34.5 -6.5t-34.5 -8.5q-37 -12 -70.5 -30.5t-65.5 -41.5q-50 -36 -89 -78q-9 -11 -18 -21t-17 -21q-5 -8 -11 -13.5t-11 -11.5q-5 -5 -11 -5q-5 1 -10 0t-9 5t-5.5 12.5t3.5 13.5
l10 16t12 15q19 20 36.5 40.5t38.5 39.5q39 35 82 64.5t92 51.5q26 11 52.5 19t54.5 11q43 5 83.5 -4t76.5 -38q26 -21 42 -46.5t26 -55.5q7 -20 11 -40.5t4 -42.5q0 -9 2.5 -18t1.5 -19q0 -21 -3 -41.5t-5 -40.5q-3 -23 -8.5 -44.5t-10.5 -44.5q-6 -25 -14.5 -49t-18.5 -48
l-22 -52t-25 -52q-20 -39 -42.5 -76t-47.5 -73q-22 -32 -45.5 -61.5t-49.5 -58.5q-12 -14 -24 -27t-25 -25q-34 -32 -69.5 -61t-75.5 -54q-25 -16 -51.5 -30t-55.5 -22q-20 -5 -39.5 -10t-39.5 -9q-24 -4 -47.5 -4t-47.5 1q-70 3 -122 48l-3 3q-12 22 -22 44.5t-7 48.5
l10 58t16 58q8 20 16.5 39.5t19.5 39.5q3 5 6 9.5t10 5.5q5 2 10 2t10 -6q8 -13 1 -27q-7 -11 -11.5 -22t-10.5 -22q-10 -18 -15 -37.5t-10 -39.5q-4 -19 -4 -37v-37q-1 -14 4.5 -26.5t11.5 -24.5q4 -6 10 -11t14 -7q13 -4 24.5 -7.5t25.5 -4.5q14 -2 27 -3.5t27 -0.5
q35 3 69.5 9t67.5 20q42 18 80 42t73 53q22 18 43 36t40 39q57 60 108 129q33 47 62.5 95t53.5 100q17 37 31 75.5t26 77.5q7 26 12 51.5t10 51.5q2 13 1 27t-1 28z" />
    <glyph glyph-name="K" unicode="K" horiz-adv-x="710" 
d="M50 -48q0 7 3 14t6 15q13 30 28 59.5t29 58.5q19 39 36 78t35 78q11 24 22.5 47.5t22.5 47.5q17 42 37.5 81.5t40.5 78.5q17 32 34 63t35 63t37 62.5t37 62.5q14 24 28.5 47.5t29.5 46.5q4 7 9 12.5t11 10.5q14 11 28 -1q4 -4 6 -12t-3 -12q-11 -11 -13.5 -25t-10.5 -26
q-8 -11 -15 -23.5t-15 -24.5q-22 -33 -42.5 -67t-40.5 -69q-19 -35 -38 -67q-2 -5 1 -6l4 2q39 30 77.5 61.5t78.5 60.5q56 41 112 80t116 73q10 5 19 12t18 13q13 9 29 9q8 -1 12 -4.5t6 -8.5q5 -11 -4 -20q-5 -4 -9.5 -7.5t-9.5 -6.5q-29 -18 -56 -38.5t-56 -39.5
q-14 -9 -27.5 -16t-26.5 -18q-23 -17 -45.5 -33t-45.5 -34q-22 -18 -44.5 -34.5t-45.5 -33.5q-14 -11 -27.5 -22.5t-27.5 -22.5t-27 -21t-27 -20q-14 -11 -18 -19.5t0 -25.5q8 -35 15.5 -70t17.5 -70q11 -38 23 -75.5t29 -74.5q14 -31 29.5 -60t29.5 -59q23 -52 48.5 -102
t50.5 -101q6 -12 8.5 -25t2.5 -27q-1 -7 -5 -13t-9 -7q-7 -1 -13 -1t-11 7q-5 8 -10.5 14.5t-9.5 14.5q-18 32 -33.5 65.5t-29.5 67.5l-24 54q-13 28 -25 55.5t-24 55.5q-8 16 -15 31.5t-14 32.5q-13 29 -23 58.5t-19 59.5q-7 25 -13.5 49t-11.5 48q-2 10 -4 19.5t-4 19.5
q-2 5 -4 5q-4 1 -5 -3q-8 -15 -15 -30.5t-15 -30.5q-2 -3 -2.5 -6.5t-2.5 -6.5q-19 -42 -38.5 -82t-37.5 -82q-16 -35 -33.5 -69.5t-34.5 -69.5q-6 -13 -14 -25.5t-16 -25.5q-3 -6 -7 -12.5t-5 -14.5q-3 -8 -10 -12q-12 -6 -20.5 -1t-8.5 20z" />
    <glyph glyph-name="L" unicode="L" horiz-adv-x="667" 
d="M351 -169h45q40 2 77 9q5 1 15 1q9 -1 17.5 0t16.5 5q9 5 18 4.5t17 0.5q9 0 13 -9q2 -9 -4 -13q-8 -8 -17 -14.5t-21 -9.5q-11 -2 -22.5 -5t-23.5 -3q-21 1 -42 -1.5t-42 -7.5h-15h-47q-26 -1 -52 2t-52 7q-35 5 -68 15q-21 7 -39.5 17.5t-34.5 27.5q-13 14 -21 30
t-13 33q-9 34 -4 66t15 64q11 32 24 64t30 62q28 52 56.5 102.5t59.5 101.5q38 65 77.5 127.5t82.5 124.5q43 63 90 123q17 21 33.5 42t32.5 42q11 14 23.5 26.5t24.5 26.5q5 6 15 11q5 3 10.5 4t9.5 -3q9 -11 5 -22q-1 -5 -3.5 -8.5t-5.5 -7.5q-22 -29 -43.5 -56t-43.5 -56
q-20 -26 -39 -52l-38 -52q-23 -32 -44.5 -63t-42.5 -63q-22 -34 -43.5 -68t-41.5 -69q-18 -31 -36.5 -61t-35.5 -61q-21 -36 -39.5 -73t-37.5 -74q-14 -27 -24 -55t-18 -57q-5 -20 -6 -41.5t6 -41.5q10 -34 42 -53q19 -11 39.5 -17.5t41.5 -11.5q32 -6 63 -9t60 -1z" />
    <glyph glyph-name="M" unicode="M" horiz-adv-x="935" 
d="M627 848q1 -20 -2 -40.5t-6 -41.5q-6 -42 -15.5 -83.5t-18.5 -83.5q-11 -51 -23.5 -100t-23.5 -99l-14 -60t-12 -61q-2 -17 -6 -32t-8 -32q0 -3 2 -9q2 2 3 2.5t3 2.5q8 7 15 16t13 18q27 39 53.5 78t53.5 77q29 42 58 83t59 82q22 30 44 58.5t45 57.5q9 12 20 22.5
t19 22.5q6 8 14 13.5t16 10.5q8 6 17.5 8t19.5 -5q20 -15 15 -37q-4 -15 -8 -30.5t-9 -30.5q-15 -41 -32 -80t-34 -79q-9 -24 -20 -46.5t-21 -45.5q-14 -32 -27.5 -64.5t-27.5 -64.5q-12 -27 -23.5 -54.5t-22.5 -55.5q-14 -32 -27 -64.5t-26 -65.5q-15 -39 -30.5 -77.5
t-29.5 -78.5t-27.5 -80t-27.5 -81q-5 -15 -10.5 -30t-11.5 -29q-4 -13 -20 -10q-6 1 -8 5t-4 12q-1 11 1.5 21.5t5.5 20.5q14 45 26.5 90t29.5 90q13 33 24.5 66.5t24.5 66.5q13 34 26 67t27 65q11 26 21.5 52t21.5 52q16 35 31 71.5t32 71.5q6 13 11.5 25.5t11.5 25.5
q25 54 48 108t46 109q2 5 4.5 10t-0.5 12q-4 -4 -8 -7.5t-7 -7.5q-16 -18 -30.5 -36.5t-29.5 -36.5q-22 -26 -41 -53t-39 -53q-11 -14 -21.5 -30t-21.5 -31q-33 -48 -66 -95t-65 -95q-15 -20 -29.5 -41t-32.5 -39q-5 -5 -9 -8.5t-10 -6.5q-35 -17 -49 21q-4 11 -5 21t2 19
q4 12 4 24t4 24q6 20 9.5 41t8.5 41q5 23 10.5 45.5t10.5 45.5l12 52l12 52t12 50.5t12 49.5q5 20 10.5 40.5t7.5 41.5q2 19 5.5 37t6.5 37q3 23 2.5 45t0.5 45q1 5 0.5 10t-5.5 7t-9 -1t-7 -6q-15 -14 -29.5 -29.5t-27.5 -32.5q-15 -21 -30.5 -42t-29.5 -44
q-37 -58 -73 -121q-25 -44 -49 -88t-46 -90q-23 -48 -46 -96.5t-43 -99.5q-15 -36 -31 -71.5t-31 -72.5q-6 -14 -11.5 -28t-11.5 -28q-2 -7 -6 -13t-12 -10q-11 -6 -19.5 -0.5t-10.5 17.5q-1 8 1.5 15.5t4.5 14.5q14 36 29.5 71.5t29.5 70.5q14 32 26 64t26 64
q10 23 20.5 46t20.5 46q18 42 36.5 82t37.5 82q9 20 18.5 38.5t18.5 37.5q16 34 31.5 68t31.5 68q3 7 7 13.5t8 13.5l5 5q5 5 13 6t13 -2q6 -3 6 -8.5t1 -10.5q0 -4 -2.5 -6.5t-2.5 -6.5q0 -2 1 -2q0 -3 3 0l6 8t6 9q35 53 84 97q13 13 32 18q23 4 38.5 -6.5t20.5 -34.5
l4 -10t2 -10q-1 -9 -1 -18v-18z" />
    <glyph glyph-name="N" unicode="N" horiz-adv-x="828" 
d="M149 211q9 5 13 13t9 16q28 37 54 74.5t55 73.5q20 26 40 51t40 51q11 15 25 28.5t26 28.5q36 45 75 85t81 79q41 38 84 73t91 64q36 20 81 28q11 2 25.5 -5t20.5 -17q9 -15 11 -35q1 -27 -5 -52t-16 -49q-17 -45 -36 -88t-40 -85q-19 -38 -37 -75t-36 -75
q-14 -29 -28.5 -59t-28.5 -59q-16 -34 -31.5 -67t-30.5 -67q-23 -49 -44.5 -98t-43.5 -98q-11 -26 -23.5 -51.5t-27.5 -49.5q-3 -6 -8 -11q-4 -3 -6.5 -6.5t-9.5 -0.5q-10 5 -12.5 8.5t-2.5 12.5q1 2 1 5t1 5q5 14 10.5 28t11.5 28q18 43 36.5 85t37.5 84q19 44 39 86.5
t40 86.5q13 28 27 55.5t26 56.5q19 42 39.5 82t40.5 82q23 48 45.5 95t40.5 97q8 20 15 40.5t7 42.5v10q0 7 -8 7q-9 0 -17 -2.5t-16 -6.5q-44 -20 -81 -48q-21 -16 -41.5 -33t-40.5 -34q-26 -23 -50 -47t-49 -48q-21 -21 -41 -44l-40 -46l-42 -48l-24 -28t-23 -29
q-17 -23 -34 -45t-34 -45q-20 -26 -38.5 -52.5t-36.5 -52.5l-30 -44t-29 -44q-9 -13 -18 -25t-17 -26q-5 -8 -12 -15t-15 -14q-8 -8 -20 -5.5t-17 13.5q-3 7 -5 14t0 16q6 26 14.5 50.5t17.5 49.5q13 35 27 69.5t28 69.5q9 23 19 47t21 47q29 64 60.5 126t63.5 124
q16 31 32 60.5t34 58.5q4 8 8 15t7 15t8.5 13t11.5 10t13 4t14 -3q6 -2 6 -9v-13.5t-5 -13.5q-11 -15 -19 -31t-16 -33q-20 -37 -39 -74t-39 -73q-19 -35 -36 -71.5t-34 -71.5q-22 -47 -42.5 -94t-38.5 -95q-4 -10 -8 -19.5t-9 -19.5q-2 -3 -1.5 -6.5t0.5 -7.5
q-1 0 -1.5 -0.5t-1.5 -0.5h-1q-2 -4 2 -2q1 1 1 4z" />
    <glyph glyph-name="O" unicode="O" horiz-adv-x="769" 
d="M718 649q2 -37 -5.5 -73t-16.5 -73q-10 -40 -23 -78t-28 -76q-21 -51 -44.5 -99t-49.5 -96q-23 -42 -49 -82.5t-53 -80.5q-51 -77 -121 -139q-21 -18 -44.5 -31t-52.5 -20q-39 -10 -73.5 6.5t-54.5 42.5q-18 25 -28.5 52.5t-15.5 57.5q-9 54 -9 108q1 8 3.5 16t1.5 16
t1 15t3 15q2 20 6 38.5t9 37.5q6 29 15.5 57t20.5 56q17 46 42 94q20 40 43 78t50 73q14 19 28.5 37t30.5 35q12 12 23 25t24 25q27 24 55 46.5t58 42.5q8 5 17 6.5t17 3.5q13 3 28 11q18 10 37 17.5t40 6.5q29 -1 52.5 -13.5t38.5 -39.5q11 -20 18 -42t6 -45v-31zM406 671
l-4 -2q-20 -20 -40 -39t-38 -42q-13 -16 -25 -31t-24 -32q-17 -25 -33 -50.5t-31 -51.5q-34 -61 -59 -129q-13 -34 -23.5 -68.5t-17.5 -70.5q-9 -47 -12 -93q-2 -19 -0.5 -37.5t3.5 -37.5q3 -26 10 -49.5t20 -46.5q4 -8 12 -18t12 -13q18 -15 38 -15.5t41 4.5q22 5 39 18
t34 28q15 14 28.5 28.5t27.5 29.5q32 39 59 77q32 45 60 92.5t54 96.5q15 29 29.5 58.5t26.5 59.5q8 17 15 34.5t13 35.5q16 44 30 88t20 91q2 19 4 37.5t4 37.5q1 11 -1.5 22t-4.5 22q-2 12 -6.5 23t-11.5 22q-10 14 -24 20.5t-29 4.5q-34 -3 -61 -23q-47 -35 -78 -82
q-20 -32 -35 -66.5t-23 -72.5q-5 -26 -8.5 -52.5t-4.5 -52.5q-1 -17 -0.5 -33t3.5 -33q2 -12 5 -23t8 -22q8 -14 15.5 -28t18.5 -25q19 -20 -8 -31q-3 -1 -5 -0.5t-4 0.5q-11 5 -21 12t-16 17q-6 11 -11.5 22t-9.5 23q-10 29 -12.5 58.5t-6.5 58.5q-2 17 1 34.5t3 34.5
q0 14 2 26.5t5 24.5q7 28 15.5 55t22.5 53q2 5 5.5 10t3.5 11q1 1 1.5 1t1.5 1q2 2 -2 2q0 -1 -0.5 -2t-0.5 -2z" />
    <glyph glyph-name="P" unicode="P" horiz-adv-x="688" 
d="M50 548q4 1 4 7q1 20 6 37.5t13 34.5q13 31 30.5 58.5t37.5 53.5q19 23 40 44.5t43 41.5q26 23 54 42t58 36t61 30.5t63 23.5q22 7 44 12.5t45 6.5q9 1 18.5 3t18.5 1q41 -2 79 -13t70 -37q30 -24 46.5 -55t17.5 -71q2 -33 -6 -64t-20 -61q-12 -32 -29.5 -61t-37.5 -57
t-42.5 -54t-48.5 -49q-43 -38 -88 -72t-94 -63q-31 -20 -62 -38t-64 -35q-15 -8 -28.5 -18t-29.5 -16q-5 -1 -7 -9q-14 -40 -29 -79t-29 -79q-16 -46 -33 -91.5t-34 -91.5q-2 -6 -5.5 -12t-6.5 -12q-2 -5 -5 -7.5t-9 -2.5q-5 1 -10 2.5t-7 7.5q-2 5 -4.5 10t-0.5 10
q5 20 10 38.5t11 37.5q15 44 29.5 87.5t31.5 86.5t33.5 85.5t34.5 85.5q32 78 68 152t74 149q15 30 30 59.5t32 58.5q5 11 10 20.5t13 17.5q4 4 7.5 8t8.5 6q5 3 10.5 5t11.5 -4q6 -5 7.5 -10.5t-2.5 -14.5q-12 -25 -23.5 -49.5t-24.5 -49.5q-20 -40 -40.5 -79.5
t-40.5 -79.5q-22 -45 -42.5 -90t-41.5 -91v-4q2 -3 3 -1.5t3 2.5q25 9 46.5 24t43.5 29q37 23 72 47.5t69 50.5q30 23 58 47.5t53 53.5q26 30 49 62t41 67q13 25 22.5 51t12.5 55q4 29 -3 55t-30 49q-36 35 -89 44q-23 5 -46.5 4.5t-47.5 -4.5q-51 -8 -96.5 -26t-90.5 -44
q-23 -13 -44 -27.5t-40 -31.5q-28 -23 -53.5 -49.5t-47.5 -55.5q-14 -18 -25 -38l-22 -40q-10 -20 -15.5 -40.5t-10.5 -41.5q-3 -22 -27 -20q-5 1 -5.5 5.5t-5.5 4.5v29z" />
    <glyph glyph-name="Q" unicode="Q" horiz-adv-x="910" 
d="M52 -46q-3 18 -0.5 39t6.5 43q8 49 20 95.5t29 93.5q13 34 26 67.5t29 66.5l16 36t18 36q21 41 44 80.5t49 76.5q25 35 50.5 69t55.5 64q10 10 18 20t18 19q38 34 78 66t85 58q24 14 49 25t51 19q20 5 39 10t40 3q10 -1 15.5 -5.5t10.5 -11.5q4 -5 0 -14t-11 -12
q-4 -2 -8.5 -2.5t-5.5 -6.5q0 -1 4.5 -3.5t8.5 -4.5q29 -20 43 -48t23 -60q7 -24 7 -49t-3 -50q-3 -27 -7.5 -54.5t-12.5 -53.5l-16 -52t-17 -52q-12 -34 -25.5 -67t-27.5 -65q-15 -35 -32 -67.5t-35 -64.5q-22 -37 -45.5 -73t-49.5 -70l-38 -50t-39 -48q-21 -25 -43 -47
l-45 -45q-32 -32 -68.5 -57.5t-78.5 -43.5q-4 -2 -7.5 -3t-8.5 -2q-2 -1 -4 -3t-1 -8q5 -20 10.5 -40.5t11.5 -40.5q9 -29 18 -57.5t18 -57.5q2 -8 2.5 -15t-4.5 -15q-9 -15 -24 -8q-6 4 -10 8t-6 12q-17 48 -31 96t-26 98q-3 12 -5.5 14t-16.5 3q-10 0 -20 -0.5t-20 3.5
q-61 19 -82 81q-7 19 -11 32.5t-6 26t-2 27.5v39zM95 -49q1 -18 0.5 -36t3.5 -36q4 -14 8 -27.5t12 -27.5q12 -22 31 -31t43 -9q8 0 8 9q-1 3 -1 6.5t-1 7.5q-5 18 -8 36.5t-5 36.5q-2 12 -3 24t-3 23t-2 21t-1 21t-2 20.5t0 20.5q2 14 7 23.5t19 14.5t14 -7
q0 -13 1.5 -25.5t2.5 -25.5q2 -17 4 -34.5t3 -34.5q1 -11 1.5 -21t2.5 -21q3 -18 6.5 -35.5t7.5 -35.5q3 -13 14 -9l6 2t7 3q37 18 70 41.5t62 52.5q28 27 54.5 55t50.5 58q16 20 31.5 39.5t29.5 39.5q26 38 51 76t47 79q19 35 36.5 69.5t32.5 71.5q19 45 35 89t28 91
q7 26 12 52.5t8 53.5q2 20 1.5 40t-4.5 40q-3 16 -7.5 31t-12.5 29q-21 35 -51 45.5t-67 -0.5q-20 -6 -38 -17.5t-35 -25.5q-26 -23 -49 -48.5t-43 -54.5q-38 -54 -70.5 -110.5t-58.5 -117.5q-15 -35 -28 -71t-24 -73q-4 -11 -7.5 -21.5t-2.5 -21.5q0 -23 -4 -44.5t-2 -43.5
q0 -5 0.5 -9t-1.5 -8q-5 -10 -4.5 -19.5t0.5 -19.5q1 -11 -2.5 -20.5t-1.5 -19.5q1 -17 -3.5 -33t-2.5 -33q1 -2 -0.5 -4.5t-2.5 -4.5q-5 -11 -14.5 -13.5t-17.5 5.5q-3 3 -5.5 7.5t-2.5 9.5q0 13 -1 26.5t2 25.5q5 21 4.5 41.5t3.5 40.5q3 20 5.5 39.5t6.5 39.5
q5 27 12 52.5t15 51.5q9 31 19.5 61t23.5 60q27 60 57 120q10 18 19.5 36t20.5 36q11 21 25 40q11 13 21 26.5t20 27.5q1 1 0.5 2.5t-0.5 2.5q-1 2 -4 0q-11 -11 -22 -20t-22 -20q-14 -14 -27 -28.5t-27 -28.5q-24 -26 -45.5 -53t-41.5 -56q-27 -38 -50 -77t-43 -81
q-12 -22 -21.5 -44t-19.5 -45q-20 -45 -36.5 -91.5t-30.5 -94.5q-12 -46 -20 -91.5t-7 -93.5z" />
    <glyph glyph-name="R" unicode="R" horiz-adv-x="710" 
d="M597 913q23 2 44 -2t41 -12q39 -14 66 -47.5t29 -81.5q2 -38 -7 -73t-23 -70q-15 -37 -36 -70t-44 -65t-48.5 -60.5t-54.5 -54.5q-26 -22 -52 -43.5t-55 -39.5q-35 -22 -70.5 -41t-75.5 -31q-3 -2 -6.5 -3t-6.5 -3q-5 -3 -4 -11q4 -15 10.5 -28.5t11.5 -27.5
q13 -32 20.5 -66t17.5 -66q5 -17 9.5 -32.5t9.5 -32.5q8 -30 16.5 -60.5t17.5 -60.5q4 -16 9 -31.5t10 -30.5l2 -4q8 -23 -13 -31q-7 -3 -15 0.5t-13 11.5q-8 18 -14 34q-14 39 -23.5 78.5t-20.5 78.5q-5 18 -11.5 35.5t-10.5 35.5q-8 35 -18.5 68t-21.5 66q-4 11 -8.5 21
t-6.5 21q0 4 -4 4q-3 -1 -5 -5q-8 -18 -15 -35.5t-15 -35.5l-34 -76t-33 -76q-14 -32 -28.5 -63t-31.5 -61q-2 -3 -3 -5.5t-3 -4.5q-7 -9 -14 -7q-12 3 -15 15q-1 4 -0.5 8t1.5 8q9 23 17.5 47t17.5 47q13 30 25 60.5t26 59.5l24 51q21 46 42 91.5t43 91.5q19 40 38.5 79.5
t39.5 77.5q29 56 56.5 111.5t55.5 110.5q8 15 17.5 28.5t16.5 28.5q4 10 14 11q23 3 23 -20q0 -5 -1.5 -9t-3.5 -9q-18 -42 -39 -82.5t-42 -81.5q-33 -66 -66.5 -131t-65.5 -131q-2 -3 -3.5 -6l-3.5 -7q-2 -3 0 -6q2 -2 7 0q43 17 84 37t79 48q31 23 60 46.5t55 51.5
q20 21 38.5 43t35.5 46q15 22 28.5 44t24.5 45q12 24 20.5 49t13.5 52q3 17 3.5 34t-4.5 34q-9 35 -41 55q-14 8 -28 12t-29 7q-24 5 -47 1.5t-46 -6.5q-35 -5 -66 -17t-62 -27q-25 -11 -47.5 -26.5t-45.5 -32.5q-26 -20 -49 -43t-45 -48q-35 -38 -61 -87q-8 -16 -12 -33
t-6 -34q-1 -5 -2 -9t-3 -8q-5 -9 -6 -10.5t-6 -0.5q-10 0 -17.5 3.5t-9.5 14.5v5l4 30t8 29q12 27 26 53t33 49q16 20 32.5 40t35.5 38q41 38 85 69.5t95 54.5q62 26 125 38q14 3 27 3t27 1z" />
    <glyph glyph-name="S" unicode="S" horiz-adv-x="860" 
d="M253 -263q-31 -3 -60.5 4t-56.5 21q-32 17 -51.5 43t-27.5 61q-9 34 -5 67.5t16 66.5q9 26 24 50l30 48q23 35 50.5 65t58.5 57q44 40 94 66q6 4 11.5 6.5t13.5 1.5q7 0 11.5 -2t8.5 -10q5 -7 2 -11.5t-5 -9.5q-7 -11 -16 -14q-13 -5 -24 -13t-23 -13q-16 -7 -29 -17
t-25 -22q-24 -23 -44.5 -48.5t-39.5 -53.5q-11 -16 -21.5 -32.5t-18.5 -33.5q-15 -29 -22 -58.5t-3 -61.5q2 -23 11.5 -43t29.5 -35q21 -16 43.5 -23t48.5 -8h26q32 -2 62 6t59 19q26 10 50 23t47 29q31 19 57 45q32 32 57 69t39 80q9 28 12 60q5 48 -7 90q-8 26 -20 50
t-27 46q-17 23 -34.5 44.5t-36.5 41.5q-26 26 -49.5 53t-43.5 58q-41 66 -31 139q3 26 14.5 50t27.5 46q23 31 51 55t60 44q31 20 64 35t69 20q35 5 69.5 1t65.5 -24q20 -14 33.5 -31.5t19.5 -41.5q7 -24 1 -53q-2 -13 -3.5 -26.5t-9.5 -25.5q-2 -2 -3 -5t-6 -5
q-6 -4 -13 -5t-11 3q-12 10 -9 28q3 16 4 31.5t3 32.5q1 23 -9.5 36.5t-27.5 24.5q-10 6 -19.5 8.5t-20.5 3.5q-27 3 -53.5 -1t-52.5 -14q-49 -19 -94 -53q-28 -20 -51 -45.5t-37 -57.5q-8 -17 -12 -34.5t-2 -35.5q4 -51 38 -92q17 -22 35.5 -43t38.5 -41q46 -45 80 -96
q21 -31 36 -65t22 -72q3 -21 3.5 -41.5t-1.5 -41.5q-3 -42 -20 -81q-14 -29 -29.5 -57t-36.5 -54q-57 -68 -134 -114q-35 -20 -71 -33.5t-74 -24.5q-37 -9 -76 -6z" />
    <glyph glyph-name="T" unicode="T" horiz-adv-x="581" 
d="M867 824q-11 0 -21.5 -0.5t-21.5 0.5q-12 1 -23.5 -2t-23.5 -3q-12 1 -24 1.5t-23 -4.5q-3 -2 -7 -1.5t-8 0.5q-20 0 -39.5 -3t-39.5 -6q-11 -1 -18 -10q-3 -4 -6.5 -8t-6.5 -9q-19 -28 -35 -57t-33 -58q-19 -35 -36.5 -70t-34.5 -70q-22 -45 -43 -90t-41 -91
q-16 -35 -30.5 -69.5t-28.5 -69.5q-18 -42 -35 -82t-34 -82q-12 -29 -24.5 -58t-25.5 -58q-13 -31 -25.5 -61.5t-28.5 -59.5q-2 -4 -3.5 -8t-3.5 -7q-5 -7 -11.5 -9.5t-11.5 -0.5t-10 10.5t-3 15.5q4 13 7 25t8 24q14 33 28 65.5t28 65.5q18 44 37 86.5t36 87.5
q8 20 17.5 40t17.5 40q36 84 75 168q42 93 89 184q10 18 18 37t19 36q16 29 31 58t33 57q2 2 3 5t3 5q3 6 -6 8q-5 0 -8 -2.5t-8 -2.5q-32 -4 -62.5 -10.5t-60.5 -14.5q-32 -8 -63 -17t-62 -21q-34 -13 -66.5 -27.5t-61.5 -34.5q-9 -7 -18 -13.5t-17 -14.5
q-18 -20 -24.5 -41.5t2.5 -47.5q2 -4 4 -7.5t-1 -7.5q-2 -3 -3 -7.5t-9 -4.5q-9 -1 -16.5 1t-11.5 11q-2 5 -4.5 10.5t-4.5 11.5q-7 16 -5.5 31.5t6.5 31.5q8 23 22.5 40.5t32.5 32.5t38 27t41 23q20 10 41.5 18t42.5 16q44 17 89 28.5t90 22.5q23 5 45 9t45 9q19 3 38 5
t38 7q9 3 19 3t20 2q16 1 31 2.5t31 3.5q23 2 46 2.5t46 3.5q29 4 58.5 2.5t58.5 0.5q8 0 15 -4q8 -5 11 -13.5t-3 -15.5q-7 -9 -15.5 -14.5t-20.5 -5.5q-12 1 -24.5 0.5t-25.5 -0.5z" />
    <glyph glyph-name="U" unicode="U" horiz-adv-x="817" 
d="M383 846q1 -7 -6 -16q-23 -26 -42.5 -55t-38.5 -58q-26 -43 -49 -87t-44 -89q-14 -31 -27 -61t-24 -62t-21 -64t-18 -65q-3 -14 -5 -28l-4 -28q-4 -19 -4.5 -37.5t0.5 -37.5q2 -23 7 -44t16 -41q5 -9 11 -17t15 -13q14 -10 30 -11q8 -1 15 -3.5t14 3.5q16 -2 31 2.5
t29 9.5q53 20 103 56q14 9 26 19.5t26 21.5q19 15 36 32t34 36q20 20 38 41.5t36 44.5q17 20 32.5 42t32.5 42q17 21 30 44.5t23 49.5q8 20 16.5 39.5t16.5 39.5q19 45 39.5 89t43.5 87q11 21 23 42t25 41q3 5 7 9l9 9q17 17 31 7q8 -5 11.5 -14.5t1.5 -20.5q-2 -12 -7 -23
t-9 -23q-10 -28 -22.5 -55t-25.5 -54q-10 -22 -22.5 -42.5t-23.5 -41.5q-18 -36 -40 -70t-42 -70q-11 -21 -19 -43.5t-17 -44.5q-18 -48 -35.5 -94t-35.5 -94q-10 -27 -19.5 -54.5t-20.5 -54.5q-14 -40 -29 -79l-30 -78q-5 -13 -11 -25t-11 -24q-5 -10 -11 -15t-12 -3
q-8 2 -12.5 11t-2.5 17q3 14 6 27.5t8 26.5q14 40 29.5 79t30.5 78q13 34 25 67.5t25 67.5l27 72q2 4 1 7q-2 2 -3 0.5t-3 -3.5q-9 -11 -18 -21.5t-18 -21.5q-2 -2 -3 -4t-3 -4q-15 -16 -29.5 -32.5t-30.5 -31.5q-32 -32 -67.5 -61t-74.5 -52q-59 -37 -123 -49
q-23 -5 -46 -4t-45 12q-34 17 -54 49q-23 39 -30 83q-4 26 -4 51.5t2 50.5q2 28 8 55.5t14 54.5q9 35 21 69t26 67q18 45 39.5 88.5t42.5 87.5q20 40 43 76.5t47 72.5q11 16 23.5 29.5t26.5 27.5q3 2 5.5 4t6.5 4q13 6 20.5 1.5t6.5 -19.5z" />
    <glyph glyph-name="V" unicode="V" horiz-adv-x="689" 
d="M51 -189q-1 32 2.5 65.5t4.5 68.5q0 15 1 30t3 29q2 25 4.5 49.5t4.5 49.5q2 17 4.5 34.5t5.5 35.5q4 20 6 40t6 40q2 12 3.5 24.5t3.5 24.5q2 13 3 25.5t5 25.5q3 9 3.5 18.5t1.5 18.5q2 23 5 45l6 44l6 44t7 44q3 20 6 39.5t5 39.5q2 17 5.5 32.5t6.5 31.5q2 10 4 19.5
t2 19.5q0 23 4.5 44t6.5 43q0 8 5 12.5t10 9.5q7 8 17 1q9 -6 12.5 -13t-0.5 -18q-1 -4 -1 -8v-8q0 -29 -4.5 -56.5t-9.5 -55.5q-2 -11 -3.5 -22t-2.5 -22q-2 -20 -6 -39.5t-7 -39.5q-2 -11 -2.5 -23t-2.5 -23q-5 -25 -8 -50l-6 -50q-2 -12 -4.5 -24.5t-1.5 -24.5
q1 -8 -2.5 -14t-2.5 -14q2 -14 -4 -28q-2 -8 -2.5 -18t-1.5 -19q-2 -21 -5.5 -42t-6.5 -42l-6 -44l-6 -44q-2 -16 -5 -31.5t-1 -31.5q1 -11 -2.5 -21t-2.5 -21q0 -11 0.5 -21.5t-4.5 -21.5v-4q1 -40 -3.5 -79t-2.5 -79v-4v-4.5t2 -4.5q1 -1 3 1l4 4q10 16 19.5 31t19.5 30
q36 56 71.5 110.5t70.5 111.5q26 43 53 85.5t51 87.5q20 36 42.5 70.5t42.5 69.5q21 38 43 75.5t44 74.5q18 31 36.5 60.5t36.5 59.5q28 48 60 93q19 28 38 55.5t41 53.5q11 12 19.5 24.5t18.5 26.5q5 6 15 10q7 3 14.5 1.5t11.5 -6.5t6 -11t0 -13q-3 -8 -9 -14
q-45 -50 -82.5 -104.5t-73.5 -110.5q-30 -46 -57 -93t-56 -94q-21 -35 -43 -70t-42 -71t-41 -71l-42 -70q-24 -41 -48.5 -79.5t-48.5 -78.5q-23 -37 -45 -73t-45 -73q-23 -35 -46 -70.5t-47 -70.5q-5 -8 -12.5 -15t-15.5 -14q-15 -14 -32 -9.5t-25 24.5q-5 12 -5 25
q1 10 0.5 20.5t-0.5 23.5z" />
    <glyph glyph-name="W" unicode="W" horiz-adv-x="925" 
d="M51 -37q-2 29 3 54.5t11 50.5q10 41 21 80.5t22 79.5q8 27 16.5 53.5t17.5 53.5q12 36 23.5 72.5t24.5 72.5q17 48 33 94t36 92q27 66 61 131q10 19 21 37t26 34q14 14 29 5q17 -12 7 -29q-5 -9 -10 -17.5t-10 -17.5q-18 -30 -34.5 -62t-30.5 -64q-38 -88 -68 -176.5
t-60 -178.5q-14 -42 -27 -84t-25 -85q-10 -35 -18 -70t-15 -71q-2 -11 -5 -22.5t-1 -23.5q0 -5 2 -5t4 3q23 32 44 64t41 65q22 38 44.5 73.5t44.5 73.5q28 47 57.5 92.5t59.5 91.5q42 66 90 126q8 10 16.5 17.5t18.5 14.5q17 11 29.5 5t18.5 -20q7 -14 3.5 -26t-5.5 -24
q-11 -46 -22 -91.5t-25 -91.5q-8 -29 -15 -58.5t-15 -58.5q-8 -30 -14 -60t-13 -60q-9 -39 -15 -73l-6 -36t-8 -36q-2 -11 -3 -21.5t-5 -21.5q-3 -10 -1.5 -21t-3.5 -21q2 -19 -2.5 -37t-2.5 -36q1 -10 2 -19t3 -19q0 -2 1.5 -3t3.5 0q5 2 9 4t7 6q14 18 27 36t24 38
q17 28 31.5 56.5t27.5 57.5q17 38 34 75t32 75q12 29 25.5 58t25.5 58q13 29 24.5 59t24.5 59q10 22 19.5 44t19.5 44q17 38 34.5 75.5t34.5 75.5q11 25 23.5 49.5t23.5 50.5q13 29 26 58.5t26 58.5q8 16 14 32.5t17 30.5q5 5 11.5 8t11.5 1q9 -4 14 -12t2 -16
q-4 -13 -8 -25.5t-10 -24.5q-23 -48 -44 -95.5t-44 -95.5q-15 -32 -30.5 -64.5t-29.5 -65.5q-18 -39 -35.5 -78.5t-34.5 -79.5q-13 -29 -25.5 -58t-24.5 -58q-18 -40 -35 -80t-34 -81q-5 -13 -11 -25l-12 -24q-14 -30 -27.5 -60.5t-29.5 -59.5q-15 -28 -31 -54.5t-34 -51.5
q-16 -20 -37 -38q-25 -19 -45 -13t-33 29q-6 11 -7.5 22.5t-3.5 22.5q-2 14 -2.5 29t3.5 30q2 4 2 8v8q1 24 5 48t8 47q2 17 5.5 33.5t5.5 33.5q2 14 5 27t5 26q8 32 14.5 63t14.5 62q6 26 13 52t13 52q8 30 15.5 60.5t15.5 61.5q6 20 12 41t12 41q0 2 -0.5 2.5t-0.5 2.5
q-3 0 -4 -1q-5 -5 -8.5 -10t-7.5 -10q-32 -40 -59 -81.5t-54 -83.5q-30 -47 -58.5 -93.5t-57.5 -94.5q-28 -45 -55 -90t-58 -88q-10 -14 -21 -25t-23 -22q-7 -7 -16 -9.5t-19 2.5q-22 11 -23 33q-1 7 -0.5 13.5t0.5 11.5z" />
    <glyph glyph-name="X" unicode="X" horiz-adv-x="710" 
d="M50 -207q5 5 7 11.5t4 12.5q14 29 32.5 56t35.5 54q20 31 41 60.5t41 60.5q31 46 61 91.5t62 91.5q4 6 7 9q12 12 12 33q-1 41 -1.5 81.5t1.5 81.5q3 47 2.5 93t2.5 93q2 23 2 45t3 45q2 20 2 40t2 40q6 41 4.5 80.5t-0.5 79.5q0 2 0.5 3.5t-0.5 3.5q0 11 8 14q5 2 9 2
t9 -5q7 -7 12 -14.5t7 -18.5q2 -20 3.5 -38.5t-0.5 -37.5q-4 -29 -3 -58t-2 -58q-4 -29 -3 -56.5t-2 -55.5q-6 -69 -4 -137.5t0 -137.5v-17q0 -4 1 -4q2 -1 6 3t6 7q14 24 31.5 45t34.5 44q24 30 48 59.5t50 58.5q23 26 46.5 51.5t46.5 51.5q17 18 34 36.5t35 35.5
q22 20 42.5 40t42.5 40q24 22 48.5 42.5t49.5 41.5q3 3 7 5.5t8 4.5q14 10 25 -4q11 -11 -1 -25q-26 -26 -51 -52t-54 -48q-3 -2 -6 -5.5t-6 -6.5q-38 -38 -77 -76.5t-77 -77.5q-17 -17 -32.5 -35t-30.5 -36q-9 -11 -18.5 -21.5t-18.5 -21.5q-14 -17 -27.5 -33t-27.5 -33
q-18 -23 -35 -46l-34 -46q-15 -20 -30 -39.5t-29 -39.5q-7 -10 -7 -23q1 -16 0 -31.5t1 -30.5q5 -29 3 -58t2 -58q3 -26 2 -51.5t3 -51.5q2 -21 1.5 -42.5t2.5 -42.5t2.5 -41.5t2.5 -41.5q4 -21 3 -42.5t2 -42.5q4 -28 3 -55t1 -54q2 -13 4 -25t1 -25q-2 -20 -17 -22
q-7 -1 -13 3t-8 12q-2 5 -4 8t-1 8q2 14 -1 28t-4 28q-2 23 -3 46t-6 46q-1 1 -1 4q2 27 -1 54t-5 53q-1 23 -1.5 45.5t-3.5 44.5q-2 20 -2 39.5t-2 38.5q-4 29 -3 58.5t-2 58.5q-2 17 -2.5 35t-1.5 36q0 2 -2 6q-2 -1 -5 -4q-47 -70 -92.5 -139t-92.5 -139q-17 -26 -35 -50
t-35 -50q-2 -4 -4.5 -6.5l-4.5 -4.5q-22 -21 -32 8q-1 1 -2 1t-2 1v5z" />
    <glyph glyph-name="Y" unicode="Y" horiz-adv-x="656" 
d="M382 292l-16 -16t-14 -17q-7 -10 -14.5 -18t-15.5 -16q-7 -8 -13 -15.5t-14 -14.5q-14 -11 -26.5 -23.5t-26.5 -23.5q-20 -16 -44 -27q-17 -8 -30.5 -9.5t-30.5 3.5q-15 5 -25 15.5t-19 22.5q-12 18 -18 38t-10 40q-5 22 -7 43.5t-4 43.5q-2 13 -3 25.5t0 25.5
q2 24 4 48.5t4 48.5q4 38 12.5 75.5t17.5 75.5q8 27 16.5 53.5t18.5 52.5q13 32 26 63t29 61q15 30 37 55q3 4 6 8.5t6 8.5q16 17 30 -2q6 -6 2 -13q-2 -5 -4.5 -10.5t-5.5 -10.5q-23 -33 -39.5 -68t-31.5 -72q-11 -26 -20.5 -53t-17.5 -54q-9 -29 -16.5 -57.5t-12.5 -58.5
q-2 -17 -4.5 -34.5t-5.5 -34.5q-5 -36 -5 -72t2 -71q2 -34 7.5 -67t22.5 -64q8 -16 27 -22q5 -2 15 1q20 5 35.5 16.5t29.5 24.5q17 17 34 33.5t34 34.5q19 22 37 43.5t35 44.5l28 36t28 37l48 68t44 71q14 28 29.5 54t31.5 52q36 57 75 111q15 20 31 40t34 38q10 9 22 9
q14 -1 20.5 -10t1.5 -23q-3 -8 -7 -15.5t-9 -15.5q-33 -47 -65.5 -94t-67.5 -92q-17 -23 -33 -46l-32 -46q-17 -25 -30.5 -51.5t-27.5 -53.5q-13 -25 -25.5 -50t-24.5 -51q-18 -38 -35.5 -77.5t-35.5 -77.5q-17 -38 -34 -76.5t-34 -77.5q-5 -12 -10.5 -23.5t-10.5 -23.5
q-9 -20 -18.5 -40.5t-18.5 -40.5q-20 -43 -40.5 -85.5t-40.5 -86.5q-10 -20 -18.5 -41t-18.5 -42l-4 -8t-7 -6q-9 -5 -17.5 -2t-9.5 13q-3 16 2 28q14 31 26.5 61.5t26.5 60.5q20 39 38.5 79t36.5 80q20 44 38.5 86.5t38.5 86.5q19 42 37 82.5t38 81.5q2 5 4.5 10t0.5 10
l4 2q2 2 -2 2q-1 -1 -1 -4z" />
    <glyph glyph-name="Z" unicode="Z" horiz-adv-x="602" 
d="M538 839q-11 0 -21.5 -0.5t-21.5 0.5q-12 1 -23.5 -2.5t-23.5 -2.5q-11 1 -23.5 1t-23.5 -5q-26 2 -52 -0.5t-52 4.5q-5 1 -10 2.5t-5 6.5t3 11t9 8q4 2 8.5 4t8.5 2q14 -1 27 2.5t27 2.5q12 -1 23.5 2t23.5 4q8 1 16 1.5t16 2.5q35 4 69 4.5t69 -0.5q44 0 83 -21
q22 -11 32 -35.5t5 -48.5q-7 -29 -20 -55.5t-29 -50.5q-19 -29 -39.5 -57t-42.5 -55t-43 -53.5t-44 -52.5q-20 -23 -38 -47t-38 -47q-14 -18 -29.5 -35.5t-30.5 -35.5l-45 -54q-16 -20 -31 -40.5t-30 -40.5q-31 -41 -60 -81.5t-54 -85.5q-6 -11 -11 -21t-9 -21
q-3 -10 -5 -19t-1 -19q3 -20 15.5 -30t28.5 -15q17 -7 34.5 -10.5t35.5 -5.5q20 -3 38.5 -2.5t37.5 -2.5q43 -7 85 -3q29 3 58 2.5t57 10.5q6 2 14 0q11 -2 15 -12t-4 -19q-18 -20 -43 -21q-25 -2 -49.5 -3.5t-48.5 -6.5q-6 -1 -12 -0.5t-12 0.5q-11 0 -21.5 0.5t-21.5 -0.5
q-24 -2 -47.5 1t-47.5 5q-22 2 -43 6t-41 12q-23 10 -42 24t-30 37q-8 17 -8 34.5t4 35.5q7 26 19.5 50t26.5 47q23 38 49.5 74t53.5 72q17 22 34.5 42.5t34.5 41.5q19 23 37.5 47t37.5 47q10 12 20 23t19 22q16 18 30.5 36.5t29.5 36.5l14 16l14 16q17 20 33 40.5t32 41.5
q18 23 35 45.5t34 46.5q14 20 25 41t19 44q9 26 -2 39t-34 18q-20 5 -39 4.5t-39 -0.5z" />
    <glyph glyph-name="bracketleft" unicode="[" horiz-adv-x="490" 
d="M177 -30h-42t-42 -1q-11 0 -20.5 1.5t-19.5 3.5q-15 4 -19.5 13.5t-1.5 25.5q4 17 11.5 32.5t14.5 31.5q13 29 22.5 57t19.5 57q11 32 21 64.5t19 64.5q12 39 24.5 77.5t26.5 77.5q12 33 24.5 65.5t24.5 65.5q16 44 34.5 86t33.5 87q2 8 4 15t4 15q3 15 8.5 21t21.5 8
q18 1 36 4t37 1q7 0 13 -1.5t12 -3.5q8 -2 10.5 -7.5t4.5 -11.5t-1.5 -10.5t-8.5 -7.5q-11 -7 -22 -6h-46q-13 -1 -18 -5t-8 -15q-11 -32 -23.5 -62.5t-25.5 -61.5q-11 -26 -20.5 -52.5t-19.5 -52.5q-15 -40 -29.5 -80t-27.5 -82q-12 -39 -25 -78.5t-25 -79.5
q-10 -32 -19.5 -64t-20.5 -64q-6 -19 -14 -36.5t-17 -34.5q-5 -10 6 -10q28 0 55.5 0.5t54.5 0.5q18 0 35.5 -0.5t34.5 0.5q10 0 23 -5q11 -5 13.5 -15t-5.5 -18q-12 -12 -28 -10h-100z" />
    <glyph glyph-name="backslash" unicode="\" horiz-adv-x="427" 
d="M359 105q-14 15 -23 37q-16 32 -31 63t-31 63q-22 42 -41 84.5t-38 86.5l-32 76t-30 78q-6 17 -13.5 34.5t-15.5 34.5q-14 42 -31 82.5t-30 82.5q-2 8 -5.5 15.5t-5.5 14.5q-3 6 -2 12.5t3 11.5q3 9 14 11t17 -6q7 -7 12 -17q11 -29 22 -58.5t22 -58.5q5 -14 10 -26.5
t10 -25.5q27 -63 51 -126q32 -83 68 -163.5t73 -161.5q9 -20 18.5 -38.5t20.5 -36.5q8 -11 12.5 -23.5t10.5 -24.5q4 -7 2 -12t-2.5 -10.5t-6.5 -7.5t-11.5 -1.5t-10.5 5.5q-2 1 -2.5 2t-3.5 3z" />
    <glyph glyph-name="bracketright" unicode="]" horiz-adv-x="490" 
d="M313 844h42t42 1q11 0 20.5 -1.5t19.5 -3.5q15 -4 19.5 -13.5t1.5 -25.5q-4 -17 -11.5 -32.5t-14.5 -31.5q-13 -29 -22.5 -57t-19.5 -57q-11 -32 -21 -64.5t-19 -64.5q-12 -39 -24.5 -77.5t-26.5 -77.5q-12 -33 -24.5 -65.5t-24.5 -65.5q-16 -44 -34.5 -86t-33.5 -87
q-2 -8 -4 -15t-4 -15q-3 -15 -8.5 -21t-21.5 -8q-18 -1 -36 -4t-37 -1q-7 0 -13 1.5t-12 3.5q-8 2 -10.5 7.5t-4.5 11.5t1.5 10.5t8.5 7.5q11 7 22 6h46q13 1 18 5t8 15q11 32 23.5 62.5t25.5 61.5q11 26 20.5 52.5t19.5 52.5q15 40 29.5 80t27.5 82q12 39 25 78.5t25 79.5
q10 32 19.5 64t20.5 64q6 19 14 36.5t17 34.5q5 10 -6 10q-28 0 -55.5 -0.5t-54.5 -0.5q-18 0 -35.5 0.5t-34.5 -0.5q-10 0 -23 5q-11 5 -13.5 15t5.5 18q11 11 28 10h100z" />
    <glyph glyph-name="asciicircum" unicode="^" horiz-adv-x="275" 
d="M244 731v-7q1 -6 -0.5 -11t-7.5 -7q-7 -2 -13.5 -2t-11.5 7q-2 3 -5 6t-5 7q-8 15 -15 30t-14 31q-5 11 -11 21l-12 20q-2 6 -6 0q-15 -23 -30.5 -46t-27.5 -48q-4 -8 -10 -15t-12 -13q-9 -7 -20 -1q-6 3 -10 10t-2 12q2 6 3.5 11.5t4.5 10.5q20 31 40.5 62t40.5 62
q2 3 6 7q14 15 24.5 14.5t22.5 -17.5q19 -24 32.5 -50t24.5 -54q5 -11 10.5 -20t3.5 -20z" />
    <glyph glyph-name="underscore" unicode="_" horiz-adv-x="323" 
d="M115 6h-28.5t-26.5 1q-4 0 -7.5 -0.5t-6.5 2.5q-5 4 -10.5 8t-4.5 12q1 7 6 11t11 6q21 4 40.5 12t41.5 6q16 -1 31.5 -0.5t30.5 1.5q17 0 33 2.5t33 1.5q25 -2 33 -22q3 -4 0 -9q-8 -20 -30 -22q-18 -2 -36.5 -3t-36.5 -3q-19 -2 -37.5 -2.5t-35.5 -1.5z" />
    <glyph glyph-name="grave" unicode="`" horiz-adv-x="211" 
d="M177 1012q3 -4 4 -9t-4 -10q-3 -5 -10 -7t-12 1q-6 2 -10 4.5t-9 5.5q-21 14 -42.5 27t-43.5 26q-9 4 -17 16q-5 11 0 20q2 5 10 6.5t13 -0.5q7 -2 13.5 -4.5t12.5 -7.5q20 -14 40.5 -27t41.5 -26q6 -5 13 -15z" />
    <glyph glyph-name="a" unicode="a" horiz-adv-x="613" 
d="M688 376q1 -7 -1 -12.5t-5 -10.5q-16 -23 -32.5 -45t-35.5 -43q-29 -34 -60 -67.5t-63 -65.5q-20 -20 -40.5 -38.5t-43.5 -34.5q-17 -11 -35.5 -20t-39.5 -13q-16 -3 -34.5 5t-29.5 25q-1 1 -1.5 2t-1.5 2q-8 14 -11 29.5t-3 29.5q0 35 9 68q4 8 7 17t7 17q2 4 2 14
q3 0 3 2q1 1 0.5 1.5t-2.5 -0.5q-1 0 -1 -1v-2h-1q-5 -1 -7 -4.5t-5 -6.5q-19 -18 -37 -37t-38 -37q-26 -25 -54 -46t-61 -36q-14 -6 -29 -10.5t-31 -4.5q-29 -1 -52.5 16t-31.5 51q-4 20 -2 38.5t8 37.5q12 44 33 83t49 74q27 35 58 64.5t69 52.5q23 14 47 23.5t51 10.5
q20 0 37 -7t33 -18q14 -9 25 -21t20 -26l3 -3q1 -2 1.5 -2.5t1.5 -2.5q1 -1 1 -1.5t1 -1.5l18 30t17 30q6 11 14 16.5t21 3.5l4 -2q5 -5 7.5 -11.5t-0.5 -13.5l-6 -14t-8 -13q-15 -20 -27 -42.5t-23 -45.5q-8 -14 -14.5 -28t-13.5 -28q-14 -32 -27 -64.5t-22 -66.5
q-1 -4 -1.5 -7.5t-1.5 -8.5q-5 -27 -2 -52q0 -7 3 -14q6 -12 13 -16t19 0q9 3 17.5 6.5t16.5 8.5q20 14 38.5 27t34.5 30q15 16 30.5 30.5t29.5 31.5q21 23 42 46.5t41 48.5q14 18 28.5 36.5t27.5 38.5q7 11 20 16q10 4 18 -2t9 -16zM265 289q14 17 27 34.5t28 33.5
q7 8 8 15.5t-2 16.5q-5 18 -15 30.5t-24 23.5q-11 9 -22.5 14t-25.5 3h-12.5t-12.5 -2q-36 -12 -64.5 -34t-54.5 -48q-11 -11 -21 -22.5t-19 -24.5q-24 -33 -44 -68t-31 -74q-3 -12 -5.5 -24t-0.5 -25q3 -39 42 -37q17 1 32 6.5t29 13.5q25 17 48.5 34t44.5 39l81 81
q4 4 7.5 7t6.5 7z" />
    <glyph glyph-name="b" unicode="b" horiz-adv-x="470" 
d="M74 342q4 2 7.5 6t7.5 8q29 31 60.5 57.5t68.5 48.5q48 25 98 25q18 0 33 -7.5t26 -20t17.5 -28.5t6.5 -32q-2 -36 -12 -68.5t-25 -63.5q-15 -32 -35.5 -58t-43.5 -50q-21 -23 -45 -41t-51 -34q-9 -5 -18 -8.5t-18 -6.5q-5 -2 -9.5 -2.5t-8.5 -5.5q-4 -2 -10 -4
q-32 -2 -63.5 -1.5t-62.5 11.5q-10 3 -15 1t-7 -13q-4 -17 -9.5 -32t-10.5 -29q-3 -8 -7.5 -14.5t-8.5 -15.5q-3 -7 -9.5 -8t-12.5 1q-13 0 -18 13q-2 11 -2 20t1 20q4 19 11 37t12 36q2 6 3 11t-1 11q-4 7 -1 12t8 6q8 5 11.5 10.5t7.5 13.5q7 15 14 28.5t12 28.5
q11 32 21.5 62.5t21.5 62.5q10 28 19.5 55t18.5 56q13 38 26.5 75.5t27.5 74.5q20 54 39.5 106t40.5 106q6 14 13 28t12 29q2 9 8.5 13t13.5 1q10 -2 15 -8.5t0 -17.5q-4 -18 -9 -35t-13 -33q-17 -38 -31 -76t-28 -78q-17 -45 -33 -88.5t-31 -87.5q-8 -23 -16 -47t-16 -47
q-1 -3 -2 -6.5t1 -6.5l-2 -3q-1 -1 -0.5 -1.5t1.5 0.5q-1 0 1 4zM117 105q21 4 39.5 14t37.5 22q36 25 64.5 55.5t52.5 65.5q6 10 10 19.5t9 19.5q12 18 16 38.5t8 42.5q2 4 1 9.5t0 11.5q1 17 -13.5 31t-30.5 11q-32 -2 -59 -13q-32 -17 -59 -37.5t-53 -45.5
q-30 -32 -56.5 -66.5t-50.5 -72.5q-11 -21 -18 -43.5t-15 -44.5q-2 -6 0.5 -8.5t7.5 -4.5q26 -6 53 -9t56 5z" />
    <glyph glyph-name="c" unicode="c" horiz-adv-x="421" 
d="M-48 170q-1 33 8 63t20 60q12 34 29.5 64t40.5 57q27 32 57.5 60t69.5 45q17 8 34 11t35 1q25 -3 39 -24q22 -32 17 -70q-2 -20 -24 -22q-10 0 -14.5 4t-9.5 14q-3 7 -3.5 13.5t-1.5 13.5q0 23 -23 23q-14 0 -26.5 -5.5t-23.5 -13.5q-32 -21 -58.5 -47.5t-48.5 -58.5
q-18 -28 -32.5 -57t-23.5 -61q-5 -20 -9.5 -39t-3.5 -39q2 -20 6.5 -38t21.5 -32q11 -10 28 -13q26 -5 48.5 2t44.5 18q26 14 49.5 31.5t46.5 37.5q27 23 52 48.5t51 50.5q23 22 43.5 44.5t41.5 45.5q6 7 13.5 11.5t17.5 4.5q11 -1 17.5 -9.5t1.5 -18.5q-7 -16 -16 -26
q-35 -40 -72 -77.5t-75 -73.5q-29 -28 -59 -53t-64 -46q-23 -15 -48.5 -25.5t-52.5 -15.5q-29 -5 -55 1.5t-49 26.5q-14 14 -22 30.5t-14 34.5q-4 12 -4 24.5v24.5z" />
    <glyph glyph-name="d" unicode="d" horiz-adv-x="435" 
d="M291 348q-5 -1 -7 -4t-4 -5q-11 -15 -22.5 -30.5t-23.5 -29.5l-42 -48t-44 -47q-17 -17 -35 -32t-38 -27q-13 -8 -27 -13.5t-28 -7.5q-23 -2 -42.5 9.5t-27.5 39.5q-6 19 -4.5 37.5t6.5 36.5q8 39 25.5 74t43.5 65q21 26 45 49t54 40q17 11 35 18t37 12q29 8 57 6t55 -18
q9 -5 13 -4t9 9q17 26 33.5 51.5t32.5 51.5q16 25 31 49.5t30 50.5q8 13 15 26t15 27q6 13 16 21q5 5 13 6t13 -2q12 -9 11 -22q-1 -6 -3.5 -10.5t-4.5 -9.5q-14 -23 -27.5 -46.5t-26.5 -46.5q-16 -29 -32 -56.5t-27 -58.5q-3 -8 -7.5 -15.5t-8.5 -15.5q-19 -38 -34.5 -77.5
t-30.5 -79.5t-28 -79.5t-26 -79.5q-28 -87 -51 -179q-4 -17 -7 -34t-8 -34v-2q-3 -18 -20 -21q-7 -1 -14 7.5t-9 16.5q-2 10 0 21q7 36 14.5 72t18.5 71q14 46 27.5 91.5t30.5 90.5q7 18 13 36t14 36q1 5 1 14q5 0 5 3q0 4 -1 4q-3 1 -3 -3v-4zM-7 184v-14q2 -19 20 -19
q12 0 23 4q28 13 50 33.5t44 40.5q5 6 10.5 12.5t11.5 12.5q5 6 10.5 11.5t10.5 11.5q16 18 31 36.5t30 38.5q11 14 22 28.5t22 29.5q5 8 2.5 20t-15.5 13q-8 1 -15 4.5t-15 -0.5t-16 -3t-16 -1q-26 -8 -49.5 -19.5t-43.5 -29.5q-33 -29 -60.5 -62.5t-42.5 -76.5
q-6 -16 -10.5 -33t-3.5 -38z" />
    <glyph glyph-name="e" unicode="e" horiz-adv-x="408" 
d="M4 180q-3 -31 7 -55q5 -15 16 -26t24.5 -17.5t28.5 -8.5t29 0q32 5 58 19.5t52 32.5q23 17 43.5 37t39.5 40q14 14 25 28t22 29q17 23 35 46.5t35 48.5q2 4 4.5 7.5t4.5 7.5q4 9 11 14q18 14 32 2q6 -5 7 -16t-5 -19q-14 -20 -27.5 -38.5t-27.5 -37.5q-13 -17 -26.5 -35
t-29.5 -35q-23 -27 -47.5 -52.5t-53.5 -47.5q-20 -15 -40.5 -29.5t-43.5 -25.5q-27 -12 -54.5 -18t-56.5 -1q-38 8 -64.5 30t-37.5 60q-6 20 -9 40t5 41q8 54 32 100t56 89q13 17 27.5 33.5t30.5 31.5q27 24 57.5 40.5t66.5 24.5q26 5 52.5 -7t39.5 -35q6 -15 9 -31t-2 -32
q-21 -84 -95 -135q-18 -14 -38 -22l-40 -16q-23 -7 -45 -6.5t-45 6.5q-22 7 -33 22q-5 6 -6.5 5.5t-4.5 -8.5q-8 -20 -14.5 -40t-3.5 -41zM108 283q19 -2 35.5 2t33.5 12q19 8 35 21t31 27q16 17 27 36t16 40q5 18 -1 33.5t-22 20.5q-18 6 -37 0q-33 -7 -58 -25.5t-49 -40.5
q-11 -10 -21 -22t-19 -25q-8 -11 -16.5 -22t-14.5 -24q-1 -2 -1.5 -4t2.5 -4q14 -8 27.5 -18.5t31.5 -6.5z" />
    <glyph glyph-name="f" unicode="f" horiz-adv-x="299" 
d="M243 610q53 0 99 -10q9 -2 13 -5q8 -5 12 -12.5t-1 -14.5t-10.5 -12.5t-16.5 -4.5q-19 1 -37.5 3.5t-37.5 4.5t-37.5 2.5t-37.5 -3.5q-8 -2 -12 -2q-12 2 -18 -4t-11 -15q-14 -33 -28.5 -66t-28.5 -67q-17 -46 -32 -91.5t-30 -91.5q-16 -49 -29 -98t-26 -99
q-4 -17 -8 -34.5t-6 -34.5q-2 -12 -1.5 -24.5t0.5 -25.5q0 -17 -15 -24q-7 -3 -9 3q-6 9 -5 18q2 18 0.5 36t3.5 35q2 5 1 9.5t0 9.5q1 21 4 42t7 42q13 60 31 119t30 120q2 10 6 20t9 19q14 34 26.5 67.5t27.5 66.5l10 24t11 23q2 5 0 9q-2 3 -4.5 2t-4.5 -2
q-29 -8 -58 -11t-59 -1q-8 0 -6 3.5t1 5.5q-4 17 -1 23.5t18 10.5q19 5 38 11t40 4q15 -2 30 3t30 7q8 1 12.5 6.5t7.5 11.5q20 39 44 74t50 70q22 29 47.5 55t52.5 50q20 17 41.5 30.5t47.5 20.5q17 5 32.5 3.5t29.5 -15.5q9 -11 11 -28q2 -23 -5 -43.5t-15 -40.5
q-2 -6 -6 -11.5t-6 -11.5q-8 -20 -23 -31.5t-31 -22.5q-2 -2 -4 -2q-3 2 -1 7q4 6 4 10q-2 23 6 41.5t16 37.5q5 12 10.5 24t7.5 26q1 9 0.5 10.5t-8.5 1.5q-6 1 -12 -1t-11 -4q-20 -9 -36.5 -21.5t-32.5 -27.5q-15 -14 -28.5 -28.5t-27.5 -29.5q-18 -22 -34 -44t-33 -45
q-6 -6 -9 -13q-7 -13 -15 -24t-12 -25h52z" />
    <glyph glyph-name="g" unicode="g" horiz-adv-x="429" 
d="M-3 270q1 19 6 37t13 35q14 35 36 64.5t51 54.5q24 20 51.5 34.5t58.5 19.5q20 3 39.5 -1.5t34.5 -21.5q6 -6 8 3q3 6 5.5 12.5t3.5 13.5q1 10 6 17t12 12q5 5 11 4.5t11 -3.5q12 -8 13 -19.5t-2 -23.5q-10 -43 -20.5 -85.5t-21.5 -86.5q-5 -21 -11.5 -42t-11.5 -43
q-11 -44 -25.5 -86.5t-28.5 -86.5q-2 -5 -3 -9.5t2 -10.5q8 -13 -6 -23q-11 -8 -16 -19t-9 -22q-10 -29 -21.5 -56t-23.5 -54q-20 -46 -50 -90q-14 -20 -30.5 -36t-36.5 -30q-42 -27 -80 1q-10 7 -14.5 16.5t-8.5 20.5q-6 18 -2.5 35t10.5 33q18 44 51 82q8 8 15.5 17.5
t15.5 17.5q31 27 63 51.5t68 44.5q21 12 27 34q16 50 32 99.5t28 100.5q4 14 8 29t9 29q1 4 1 7.5v6.5q0 2 -1 2q-2 3 -3 0q-8 -17 -21.5 -28.5t-24.5 -25.5q-11 -13 -23.5 -23.5t-25.5 -21.5q-17 -13 -33.5 -24t-36.5 -19q-20 -9 -41 -9q-27 0 -41.5 15t-16.5 41
q-1 3 -0.5 5.5t0.5 4.5zM44 276q0 -7 1 -10q0 -11 1.5 -12.5t12.5 -1.5q8 0 16 3q23 8 41 21t35 28q32 29 59.5 60.5t50.5 67.5q8 14 7.5 19.5t-13.5 14.5q-19 11 -41 5q-19 -5 -35.5 -13.5t-33.5 -20.5q-33 -24 -55.5 -55.5t-37.5 -68.5q-4 -9 -7 -19t-1 -18zM0 -243l4 2
l4 2q22 8 37 23.5t27 33.5q19 26 32.5 55.5t26.5 58.5q5 11 9 21.5t9 21.5q2 5 0 7q-4 2 -7 0q-1 -1 -1.5 -2t-1.5 -2q-30 -19 -56.5 -42t-49.5 -49q-19 -20 -33.5 -43t-19.5 -52q-1 -10 2 -19t11 -13q2 -2 3.5 -2t3.5 -1z" />
    <glyph glyph-name="h" unicode="h" horiz-adv-x="417" 
d="M226 751q0 -2 4 -4q12 -9 14 -16t-5 -19q-12 -24 -24.5 -48.5t-24.5 -48.5q-13 -26 -25 -52.5t-24 -52.5q-21 -45 -40.5 -88.5t-39.5 -88.5q-11 -24 -20.5 -47.5t-20.5 -47.5q-3 -8 -7 -16t-9 -16q-2 -4 -1.5 -7t0.5 -7q-4 0 -6 -3q0 -3 1 -3q3 -3 3 2q1 1 1 4
q9 5 14.5 12.5t11.5 14.5q14 15 27.5 30.5t27.5 30.5q11 12 23 24t25 23q15 12 30 23t34 16q9 3 18 5t20 -3q18 -8 23 -22q4 -8 7 -17t1 -19q-2 -16 -3 -31.5t-4 -31.5q-4 -23 -4.5 -45t-2.5 -44q0 -2 0.5 -3.5t0.5 -3.5q4 -11 14 -3q9 8 18.5 15.5t17.5 17.5
q20 20 36.5 41.5t34.5 43.5q20 25 38 51t35 53q6 8 17.5 10t19.5 -4q6 -5 6 -15q0 -15 -9 -30q-26 -37 -54.5 -73t-57.5 -71q-11 -12 -21 -24.5t-21 -25.5q-14 -14 -29 -24t-34 -14q-14 -4 -28 2.5t-21 19.5q-11 24 -10 48q1 19 1.5 38t4.5 38q2 17 4 32t3 31q0 8 1 12
q-2 5 -6 7t-9 0q-7 -4 -14.5 -7.5t-13.5 -8.5q-41 -36 -74 -75q-11 -13 -23.5 -26t-24.5 -27q-18 -20 -35.5 -42.5t-32.5 -45.5t-28 -47t-27 -48q-5 -7 -9.5 -13.5t-10.5 -12.5q-8 -10 -18 -11t-18 6q-7 4 -7 14q-1 11 2 21.5t8 21.5l28 66t29 67q14 32 29 64.5t29 65.5
q12 26 23.5 53t23.5 54q25 57 54 117q19 40 38 78.5t40 75.5q8 14 14.5 28.5t13.5 29.5q4 8 9.5 15t13.5 12q3 0 5 -1z" />
    <glyph glyph-name="i" unicode="i" horiz-adv-x="303" 
d="M-60 120q0 33 7.5 62.5t18.5 58.5q12 30 24 59.5t28 58.5q17 31 35 61.5t36 61.5q6 11 14 16.5t21 3.5q13 -1 14 -13q0 -14 -7 -27q-11 -18 -21 -36.5t-21 -36.5q-14 -20 -24.5 -41.5t-20.5 -43.5q-15 -32 -28 -64t-21 -67q-9 -33 -6 -68q0 -7 3 -13q7 -13 13.5 -17
t18.5 1q19 5 35 15q19 13 37.5 26t34.5 30q15 16 31 30.5t30 31.5q20 24 41 47t41 48q14 18 29 36.5t27 38.5q7 11 21 16q9 4 17 -2t10 -16q0 -12 -7 -22q-32 -47 -67 -88q-30 -35 -61 -68t-63 -65q-20 -20 -40.5 -39t-43.5 -35q-17 -11 -35.5 -20t-38.5 -13q-17 -3 -37 6
t-30 28q-8 15 -11.5 30t-3.5 29zM190 559q0 -12 -11 -23t-23 -10q-12 0 -20.5 9t-7.5 20q0 13 11 23.5t23 9.5q14 -1 21 -9.5t7 -19.5z" />
    <glyph glyph-name="j" unicode="j" horiz-adv-x="192" 
d="M-322 -169q2 18 9 37.5t17 38.5q17 29 39.5 53t48.5 44q45 36 98 69q9 6 18.5 12.5t19.5 11.5q8 5 11 12.5t6 15.5q10 28 18.5 57t17.5 58q10 35 19 68.5t20 68.5q5 17 11 32.5t11 32.5q10 25 14 45q3 12 10 22q8 8 16.5 6t13.5 -12l4 -8t0 -8q-7 -13 -6.5 -26t-4.5 -27
q-8 -24 -15 -48t-14 -47q-11 -34 -20.5 -67.5t-19.5 -66.5q-4 -11 -7 -21.5t-8 -20.5q0 -4 1 -4q1 -3 6 -1q12 11 24 20t24 20t24.5 23.5t25.5 23.5q28 25 50.5 53.5t45.5 58.5q5 6 11 12t11 12q5 5 13.5 5.5t13.5 -3.5t8 -9t1 -13q-1 -11 -8 -19q-21 -23 -40 -48.5
t-40 -48.5l-40 -40t-41 -38l-52 -44t-56 -40q-13 -10 -19 -27q-9 -20 -18.5 -40.5t-17.5 -40.5q-25 -54 -54 -101q-14 -26 -32 -48.5t-41 -40.5q-14 -12 -28.5 -20.5t-34.5 -9.5q-18 -1 -33 7t-23 25q-8 16 -8 44zM-96 21q-1 3 -4 2q-8 -2 -14 -7l-12 -10q-25 -16 -49 -34
t-46 -40q-46 -44 -56 -105q-1 -6 0 -13.5t8 -11.5q9 -6 20 0q5 4 10.5 5.5t10.5 6.5q14 12 26.5 25t23.5 28q22 32 40.5 67t35.5 70q2 4 3 8t3 9zM122 574q-1 -14 -10 -23t-22 -7q-8 0 -15 10t-6 18q0 10 11 20t22 9q21 -3 20 -27z" />
    <glyph glyph-name="k" unicode="k" horiz-adv-x="422" 
d="M-109 61q7 2 5.5 7.5t0.5 10.5q6 13 11 26t11 25q13 28 25.5 55t25.5 54l36 76t35 76q15 32 29 64l28 64q14 33 29 65.5t29 65.5q14 31 27 62t26 63q3 7 4.5 14t3.5 14q5 15 19 16q14 3 22 -10q4 -6 4 -13t-2 -13q-7 -24 -14.5 -47.5t-18.5 -46.5q-18 -40 -35.5 -79.5
t-34.5 -78.5q-17 -38 -32.5 -75t-32.5 -75q-1 -2 -2 -3.5t-2 -3.5q-1 -3 -3 -8t0 -6q5 -4 7.5 0t5.5 6q26 15 49.5 33.5t48.5 35.5q23 15 45.5 31.5t45.5 31.5q17 11 30 -2t1 -25q-6 -6 -12 -11.5t-13 -10.5q-16 -11 -31 -22t-30 -23q-17 -12 -33 -24.5t-32 -26.5
q-13 -11 -28 -19t-28 -19q-2 -2 -6 -4q-10 -8 -16.5 -15t-9.5 -15t-3 -18t2 -25q3 -20 11 -38t23 -33q13 -13 27 -15t30 2q28 8 52 21.5t47 30.5q25 17 48 36t46 39t44 41.5t38 47.5q8 14 18 19q5 3 9.5 6t11.5 -2q13 -7 13 -20q0 -8 -1.5 -14t-6.5 -12q-8 -11 -15.5 -21
t-16.5 -20q-17 -16 -32.5 -32.5t-32.5 -31.5q-33 -29 -67 -55.5t-72 -49.5q-16 -9 -32.5 -16t-33.5 -14q-40 -14 -81 3q-17 7 -29.5 20t-21.5 28q-10 17 -16.5 34t-7.5 37q-2 2 -2 3q-4 -2 -4 -3q-7 -12 -13.5 -24t-11.5 -26q-5 -12 -10.5 -23.5t-11.5 -22.5q-9 -19 -17 -38
t-19 -36q-4 -5 -7 -9.5t-8 -8.5q-10 -10 -15.5 -9t-16.5 12q0 2 -3 2v15z" />
    <glyph glyph-name="l" unicode="l" horiz-adv-x="342" 
d="M-19 -45q-22 -2 -38.5 15t-19.5 46q-1 6 -1 12t-2 11q-2 7 2 14q5 8 3 16q2 19 6.5 36.5t9.5 34.5q11 43 26.5 83t32.5 80q18 45 40.5 86t46.5 83q19 33 40 65t44 62q16 20 32 40.5t33 40.5q23 24 46 45.5t47 42.5q16 16 34.5 27.5t37.5 22.5q16 9 39 9q21 0 32 -16
t3 -40t-21 -44.5t-28 -39.5q-14 -18 -28 -34t-29 -31q-28 -29 -56 -57t-58 -52q-25 -19 -48 -40.5t-52 -35.5q-7 -5 -13.5 -11t-12.5 -10q-7 -7 -13.5 -13t-15.5 -8q-7 -1 -9 -5t-4 -9q-20 -41 -38.5 -81t-33.5 -82q-10 -28 -19 -55t-15 -56q-5 -18 -8.5 -35.5t-5.5 -36.5
q-1 -6 0 -11.5t3 -10.5q4 -11 8.5 -14t13.5 0q11 4 21.5 7.5t18.5 10.5q30 22 57.5 45.5t53.5 49.5q14 15 28 29.5t28 31.5q31 36 62 71t60 72q11 15 23.5 28.5t23.5 27.5q9 11 20.5 11t19.5 -10q7 -11 0 -25q-5 -6 -8 -12t-8 -11q-23 -26 -46 -53.5t-46 -54.5
q-17 -19 -34 -37.5t-35 -36.5q-15 -17 -30 -34.5t-32 -34.5q-23 -20 -45 -40.5t-47 -37.5q-13 -10 -26 -19t-29 -15q-10 -3 -20.5 -6.5t-20.5 -0.5zM156 494q1 1 4 1q13 14 27.5 24.5t28.5 22.5q38 35 76.5 68t71.5 72q20 22 37.5 44t29.5 51l2 5q-1 3 -6 1
q-17 -7 -32.5 -17t-29.5 -20q-28 -23 -51.5 -47.5t-46.5 -49.5q-25 -27 -46.5 -56.5t-43.5 -59.5q-6 -8 -10.5 -17.5t-11.5 -17.5q1 0 1 -4z" />
    <glyph glyph-name="m" unicode="m" horiz-adv-x="661" 
d="M227 497q-11 -9 -22.5 -17.5t-19.5 -19.5l-52 -66t-46 -69q-35 -59 -64.5 -118.5t-61.5 -119.5q-2 -4 -3.5 -7.5t-3.5 -7.5q-3 -6 -6 -11.5t-7.5 -9.5t-10 -5.5t-13.5 2.5q-16 7 -14 19.5t7 23.5q48 112 95.5 221.5t95.5 221.5q5 10 11.5 17t19.5 2q14 -6 12.5 -16
t-6.5 -21q-10 -23 -18.5 -45.5t-15.5 -46.5q7 8 13.5 16.5t14.5 16.5q15 16 30 31t32 29q12 11 27 17t32 -4q17 -9 20.5 -24.5t1.5 -32.5t-3.5 -33t-5.5 -33q-8 -33 -16.5 -65.5t-15.5 -66.5q5 9 13 20q38 50 74.5 99.5t76.5 98.5q11 15 28 26.5t34 21.5q28 15 50 4t25 -43
q5 -45 -6 -88q-17 -59 -35 -116t-36 -115q-8 -23 -14.5 -45.5t-14.5 -45.5q2 -1 3.5 -2t3.5 -2q11 9 22.5 18t21.5 20q55 65 109.5 129.5t109.5 130.5q4 5 6.5 10.5t7.5 8.5q6 3 14.5 5.5t12.5 -0.5q5 -3 5.5 -11.5t0.5 -15.5q1 -3 -2 -6t-5 -6l-114 -138t-116 -138
q-13 -14 -28 -26t-32 -22q-13 -8 -24.5 -8t-20 5t-13.5 15.5t-4 25.5q2 21 7 41.5t11 40.5q19 59 38.5 116.5t37.5 115.5q7 21 9.5 43t4.5 45q2 17 -5.5 21.5t-21.5 -6.5q-20 -16 -39.5 -33t-36.5 -36q-56 -64 -100 -135.5t-82 -146.5q-10 -19 -19 -38t-19 -39
q-6 -11 -13.5 -21.5t-23.5 -3.5q-8 3 -11.5 8t-3.5 11t2 12.5t4 12.5q14 46 28.5 91t28.5 92q14 44 25.5 87.5t22.5 87.5q2 10 2 20t2 20q-2 2 -4 3t-4 3z" />
    <glyph glyph-name="n" unicode="n" horiz-adv-x="510" 
d="M72 393q19 23 37 45.5t41 42.5q23 21 48 39.5t56 27.5q14 4 26.5 4t26.5 -5q13 -5 20.5 -15t11.5 -21q8 -23 11 -47.5t-3 -49.5q-2 -11 -2.5 -22t-2.5 -22q-5 -33 -10.5 -65t-13.5 -64q-2 -11 -3 -23t-3 -24l-4 -28t0 -28v-12q-2 -14 8 -21q5 -3 10.5 0t9.5 7
q11 10 23 18t19 22q30 32 55 68t52 70q18 23 34 46.5t33 47.5q11 15 28 14q8 -2 11.5 -7t1.5 -13q-1 -3 -1.5 -6.5t-2.5 -6.5q-17 -26 -35 -52.5t-36 -52.5q-15 -21 -30.5 -42t-31.5 -41q-17 -22 -33.5 -43.5t-37.5 -39.5q-6 -6 -13 -12t-14 -11q-12 -8 -25.5 -10t-27.5 0
q-18 3 -28 20q-5 8 -9.5 16t-3.5 19q1 7 -2.5 13t-1.5 14q5 29 7.5 57t9.5 56q4 17 7 33.5t5 33.5q2 20 6 38.5t6 37.5q2 23 3 46.5t-6 46.5q-4 12 -7 13.5t-14 2.5q-11 0 -23 -5q-19 -9 -35.5 -21t-32.5 -26q-35 -35 -64.5 -73.5t-54.5 -81.5q-18 -31 -33.5 -63t-32.5 -64
q-2 -3 -3 -6.5t-3 -6.5q-6 -11 -16 -13t-20 5q-7 5 -7 12q1 8 0.5 15.5t2.5 15.5q14 38 26 77t26 77q10 24 15 44q7 25 20.5 46t21.5 46q1 3 2.5 7t6.5 6q8 3 13.5 4t10.5 -3q7 -5 9 -10.5t-2 -14.5q-6 -15 -12.5 -30t-13.5 -30q-2 -5 -4.5 -10.5t-0.5 -12.5q-3 0 -4 -1
q-2 -4 2 -2q0 1 0.5 1.5t0.5 2.5z" />
    <glyph glyph-name="o" unicode="o" horiz-adv-x="458" 
d="M526 380q-21 -33 -50.5 -56t-60.5 -45q-26 -18 -54 -32t-57 -28q-18 -9 -28 -26q-21 -32 -46 -59.5t-56 -49.5q-22 -14 -46.5 -22t-51.5 -4q-13 2 -24.5 6t-21.5 12q-17 14 -27.5 32.5t-15.5 41.5t-0.5 44t9.5 43q2 9 4.5 18t-1.5 20q-5 14 -2 28t7 28q11 38 33.5 68
t53.5 55q19 14 38.5 25t41.5 19q55 17 106 -3q24 -10 37 -29t19 -42q9 -32 5.5 -63t-12.5 -62q-1 -5 -2 -8.5t-3 -7.5q-1 -3 0.5 -3.5t2.5 0.5q8 2 11 4l64 40t62 43q7 5 13.5 11.5t14.5 10.5q6 4 10 6q10 5 14 4.5t13 -10.5v-9zM134 226q11 1 21 1.5t21 2.5q23 4 43.5 10.5
t42.5 12.5l8 4t6 7q21 45 24 95q0 7 -2 12.5t-3 12.5q-3 31 -18 60q-4 9 -14 14q-23 14 -46.5 12.5t-46.5 -7.5q-5 -1 -10 -3.5t-10 -4.5q-8 -5 -14.5 -11.5t-14.5 -11.5q-49 -40 -70 -100q-2 -7 -5 -14.5t0 -14.5q3 -6 3.5 -11.5t1.5 -11.5q2 -23 11 -33.5t32 -15.5
q11 -3 20.5 -3.5t19.5 -1.5zM31 175v-15q1 -23 11.5 -37t32.5 -22q16 -6 30.5 -3.5t28.5 7.5q31 13 53 35l44 44q3 3 1 7q-1 1 -7 1q-19 -6 -38.5 -10.5t-39.5 -3.5h-36q-39 0 -70 22q-9 6 -9 -4q-1 -5 -1 -10.5v-10.5z" />
    <glyph glyph-name="p" unicode="p" horiz-adv-x="494" 
d="M49 296q0 -1 -1 -0.5t0 1.5q0 2 2 2q0 -2 -1 -3zM427 515q8 -36 3 -71t-16 -69q-9 -32 -23.5 -60.5t-31.5 -56.5q-16 -27 -36 -49.5t-43 -42.5q-22 -19 -46 -33.5t-52 -23.5l-16 -6t-17 -4q-29 -2 -56 2.5t-50 24.5l-15 12q-8 7 -10.5 6t-7.5 -12q-34 -73 -60 -148.5
t-51 -152.5q-11 -34 -25 -66t-25 -66q-5 -18 -12 -35t-9 -35q0 -5 -2 -10.5t-4 -10.5q-4 -8 -12 -11.5t-15 -1.5q-16 6 -10 27q9 35 20.5 70t22.5 70t21.5 69.5t20.5 69.5q2 8 5 14.5t5 14.5l39 123l16 48l16 48q27 89 58 176t61 175q8 25 17.5 49.5t23.5 47.5
q8 15 13.5 31.5t11.5 33.5q2 5 3.5 10.5t6.5 10.5q8 11 18 10t17 -12q2 -3 1 -5.5t-1 -4.5q-1 -14 -7.5 -26t-10.5 -25q-3 -8 -6.5 -16t-6.5 -16q-29 -69 -51 -140.5t-49 -141.5q0 -2 0.5 -3t0.5 -3q8 4 10.5 11.5t6.5 14.5q21 35 44.5 67.5t49.5 64.5t55.5 59t64.5 49
t72 22q17 1 30 -7t23 -21q8 -10 13 -21.5t7 -23.5zM48 297q0 2 2 2q0 -2 -1 -3q0 -1 -1 -0.5t0 1.5zM366 363q11 27 18 54.5t4 56.5q5 14 1 26l-8 24q-10 26 -39 23q-14 -1 -26.5 -7t-23.5 -13q-28 -17 -51.5 -39t-44.5 -48q-26 -32 -51 -66t-47 -70q-14 -26 -27.5 -51
t-27.5 -50q-2 -4 -5 -7.5t-2 -7.5q2 -5 5 -8.5t6 -7.5q2 -2 7 -6q18 -16 40 -20.5t49 -3.5q4 -2 9 2t11 6q23 6 43.5 17.5t39.5 25.5q22 17 39 37t33 42q29 41 48 91z" />
    <glyph glyph-name="q" unicode="q" horiz-adv-x="394" 
d="M254 551q2 -4 4 -3.5t6 -0.5q24 3 41 -12q5 -4 9.5 -7.5t10.5 -5.5q19 -7 15 -28q-1 -10 -5 -23q-16 -42 -35 -81t-43 -77q-19 -30 -38 -64q-9 -17 -15.5 -32.5t-14.5 -31.5q-9 -23 -18 -44t-17 -44q-5 -14 -10.5 -27.5t-10.5 -27.5q-6 -15 3 -28q11 -17 18 -36.5
t11 -39.5q2 -8 4.5 -16t3.5 -16q1 -17 0 -34.5t-1 -36.5q-1 -58 -17 -119q-5 -23 -14.5 -45t-26.5 -41q-14 -15 -34 -20q-11 -4 -21 0t-18 12q-7 6 -12.5 14t-5.5 18q0 8 -4.5 13.5t-3.5 11.5q3 12 1 24.5t-1 24.5q5 38 10.5 75t14.5 75q6 25 13 49t14 50q8 25 16.5 49.5
t17.5 49.5q6 16 12 31l12 30q4 4 0 6q-2 2 -2.5 0.5t-2.5 -2.5q-17 -13 -34 -22.5t-38 -11.5q-19 -2 -35.5 9t-26.5 27q-14 23 -14.5 46t2.5 46q5 42 21 80t39 73q7 10 12.5 19t13.5 18q23 27 50 51.5t59 42.5q16 8 32.5 16.5t36.5 10.5q7 -2 6 4q3 1 10 1zM254 503
q-5 -1 -10 -1t-10 -2q-23 -9 -43.5 -20.5t-38.5 -27.5q-26 -20 -47 -43t-38 -51q-20 -30 -33 -63t-17 -68q-2 -13 -2.5 -26.5t5.5 -27.5q15 -30 41 -19q20 9 36.5 22t30.5 29q12 15 24 30.5t24 29.5q6 8 10.5 16t8.5 16q15 35 31.5 68t33.5 66q4 9 8.5 18.5t9.5 19.5
q8 15 -4 30q-5 8 -10 5.5t-10 -1.5zM130 -98q0 12 -5 28.5t-12 33.5q0 5 -2 3q-2 2 -2 0t-1 -3q-8 -17 -12.5 -36t-9.5 -38q-6 -25 -12 -50.5t-9 -51.5q-2 -20 -4 -39.5t-2 -39.5v-19.5t1 -20.5q2 -13 11 -17q5 -2 9 2t9 6q3 3 3 4q5 11 11 22t10 23q5 17 8.5 35t6.5 35
q3 29 4.5 58.5t-2.5 64.5z" />
    <glyph glyph-name="r" unicode="r" horiz-adv-x="377" 
d="M126 481q1 -8 -5 -18q-4 -7 -7 -14.5t-5 -15.5q-5 -18 -13 -34.5t-17 -33.5q-2 -5 0 -6q1 -1 2.5 0t2.5 2q14 14 28 27.5t30 25.5q29 22 58.5 42.5t66.5 30.5q29 8 57.5 -6t38.5 -42q2 -9 -5 -16.5t-17 -5.5q-5 2 -11 3t-10 5q-20 17 -39 15t-38 -13q-42 -23 -78 -54
t-67 -67q-55 -64 -97 -139q-14 -25 -24 -51.5t-19 -53.5q-10 -26 -19 -51.5t-20 -50.5q-5 -8 -10.5 -14.5t-13.5 -5.5q-18 2 -26 22q-1 4 -1 11q4 19 11 36l14 34l45 120q18 52 39 102q15 36 31.5 70.5t33.5 69.5q9 20 18 39.5t21 38.5q4 8 9 13q5 4 8.5 7.5t11.5 0.5
q10 -5 13 -8.5t3 -14.5z" />
    <glyph glyph-name="s" unicode="s" horiz-adv-x="432" 
d="M-19 -72q6 8 7 16t3 16q8 21 19.5 40t24.5 38q23 32 51 60l57 57q5 5 7 6q4 3 8 5t5 8q2 13 -2 23q-12 28 -29 51t-42 41q-13 9 -24.5 21t-19.5 26q-14 25 -4 54q9 32 30 55t48 40q7 4 14 7.5t14 7.5q20 11 41 13t42 1q20 -1 37 -19t16 -38q-1 -14 -13 -19t-22 3
q-3 2 -7 6q-6 5 -9 11.5t-13 8.5q-13 3 -24.5 1.5t-22.5 -5.5q-24 -8 -42.5 -23.5t-34.5 -34.5q-6 -7 -9 -15.5t-5 -16.5t1.5 -14t8.5 -11q7 -9 16 -15t17 -13q23 -16 40 -36t28 -46l3.5 -7t3.5 -6q6 -11 9.5 -12t13.5 8q20 17 41 32.5t42 30.5q39 29 80 55t83 51
q23 13 38 -1q6 -5 6.5 -9t-2.5 -12t-8.5 -13t-12.5 -9q-41 -23 -80 -48.5t-78 -52.5q-25 -17 -49.5 -35.5t-49.5 -36.5q-18 -14 -17 -36q3 -33 -5.5 -63.5t-21.5 -59.5q-14 -34 -34 -64t-48 -56q-14 -13 -31 -22t-37 -11q-23 -1 -34.5 7.5t-18.5 31.5q-2 4 -5 4v24zM168 99
v6q0 2 0.5 4.5t-1.5 4.5q-2 1 -3.5 -1t-3.5 -4q-25 -24 -49 -48.5t-44 -53.5q-14 -20 -25.5 -40.5t-16.5 -44.5q-3 -20 15 -18q4 1 6.5 2t4.5 2q18 8 31 21.5t24 28.5q14 18 24 37.5t19 40.5q8 16 12.5 32t6.5 31z" />
    <glyph glyph-name="t" unicode="t" horiz-adv-x="182" 
d="M271 654h-62q-10 0 -15 -9q-10 -21 -20.5 -42t-18.5 -43q-17 -42 -32 -83t-29 -83q-22 -66 -46.5 -130.5t-44.5 -131.5q-4 -14 -12.5 -44.5t-18.5 -64t-18.5 -64t-12.5 -44.5q-2 -7 -4 -13.5t-7 -12.5q-8 -8 -12 -9t-14 4q-19 9 -14 28q8 26 16 52.5t16 52.5
q7 24 19 63.5t24.5 82.5t24.5 82.5t20 63.5q37 122 84 236q11 24 20 48t19 48q3 10 -6 8q-10 -1 -20 0t-20 -4q-6 -2 -12.5 -1t-13.5 1q-14 -1 -27 -1t-27 -3q-14 -4 -23 1t-15 15q-6 11 3 20q12 12 25 11q22 -2 43.5 1t44.5 5q16 1 31.5 2t31.5 2q10 1 16 14q10 23 22 44.5
t32 37.5q6 5 10 10.5t7 11.5q8 14 15 28.5t13 28.5q4 9 10 10.5t13 1.5q8 0 11 -3.5t7 -9.5q4 -5 2 -9l-4 -8q-17 -33 -34.5 -66.5t-34.5 -66.5q-8 -15 -7 -17.5t18 -2.5h87q18 0 29 -12q11 -11 1 -23q-13 -13 -27 -13h-63z" />
    <glyph glyph-name="u" unicode="u" horiz-adv-x="553" 
d="M257 175q-2 29 3 56.5t10 54.5q5 23 10.5 45.5t13.5 44.5q4 5 0 9q-2 2 -3.5 -0.5t-3.5 -3.5l-1 -1q-17 -22 -33.5 -43.5t-33.5 -43.5q-23 -32 -46.5 -63.5t-49.5 -61.5q-20 -25 -46 -39q-29 -18 -51 -9t-32 37q-17 47 -7 95q3 15 4.5 30.5t5.5 31.5q9 32 21 62t29 59
q9 14 17 31q2 5 5.5 8.5t6.5 8.5q9 9 20 4q5 -2 9 -6.5t4 -11.5q-1 -4 -1 -7.5t-2 -6.5q-7 -14 -12 -28t-13 -28q-29 -52 -41 -111q-9 -42 -9 -84q1 -7 2 -13t3 -12q7 -20 25 -9q11 6 20 14.5t17 18.5q14 17 27.5 35t26.5 36q19 26 38 51t39 51q23 29 47 59t48 59q6 8 13 14
t20 4q18 -2 20 -19q2 -13 -2.5 -24.5t-9.5 -22.5q-18 -42 -31 -85t-23 -88q-15 -67 -11 -132q1 -5 2 -9t3 -9q12 -39 48 -19q17 10 31 23t25 28q26 32 50 64.5t48 65.5q17 23 35 47t35 48q3 4 6.5 6t7.5 6q5 6 10 4.5t11 -4.5q10 -4 10 -16q0 -8 -2.5 -13.5t-6.5 -10.5
l-45 -60q-17 -23 -33.5 -45t-33.5 -44q-24 -30 -47.5 -60.5t-53.5 -56.5q-17 -14 -36 -23.5t-43 -7.5q-24 1 -40 21q-12 14 -17.5 30t-6.5 34q-1 10 -0.5 18.5t0.5 16.5z" />
    <glyph glyph-name="v" unicode="v" horiz-adv-x="353" 
d="M2 171q-3 29 0.5 57t5.5 56q1 20 1.5 38.5t1.5 37.5q1 20 3.5 39t5.5 38q2 9 2.5 17.5t2.5 17.5q1 5 3.5 10t5.5 9q9 10 19.5 7.5t15.5 -15.5q9 -21 3 -44q-3 -11 -3 -20q2 -23 -0.5 -44.5t-5.5 -43.5q-7 -51 -8 -102t-1 -102q0 -3 0.5 -5.5t0.5 -4.5q0 -5 2 -5q1 0 4 3
q7 11 13.5 22t13.5 22q25 42 47 85.5t47 85.5q14 24 27.5 48.5t27.5 49.5q12 21 24.5 41.5t31.5 36.5q6 5 11.5 8.5t13.5 4.5q8 2 13 -1.5t9 -8.5q5 -6 2 -10.5t-5 -9.5t-6 -8t-7 -8q-14 -20 -27 -41.5t-25 -42.5l-72 -126q-11 -19 -20.5 -37.5t-19.5 -37.5
q-28 -57 -63 -107q-6 -9 -13.5 -16t-15.5 -15q-14 -13 -31.5 -9t-24.5 21l-4 10t-2 11q0 23 -3.5 44.5t-0.5 43.5z" />
    <glyph glyph-name="w" unicode="w" horiz-adv-x="573" 
d="M1 157q-1 25 3.5 49t9.5 48q6 25 10 50t11 50q8 31 13.5 62t19.5 60q-2 9 2.5 17t8.5 16t11.5 11t14.5 -1q16 -7 10 -26q-4 -8 -4 -13q1 -17 -3 -33.5t-7 -33.5q-6 -29 -13.5 -57t-14.5 -56q-5 -22 -10 -43.5t-8 -43.5q-2 -18 -5 -36t-1 -37q1 -4 1.5 -7.5t2.5 -8.5
q2 -6 4 -5t5 3q14 14 24 30.5t21 33.5q17 29 34.5 58t37.5 57q8 11 17 20t20 18t27 4.5t23 -17.5q7 -12 9 -25t4 -27q2 -11 4.5 -21.5t6.5 -21.5q7 -19 21 -22t29 10q14 11 25 25.5t19 29.5q16 26 29.5 53.5t29.5 53.5q15 26 27.5 53t29.5 52q4 9 12 15q13 9 24 1
q10 -8 12 -14t-3 -16q-8 -18 -16.5 -36t-19.5 -35q-9 -14 -17 -28.5t-16 -28.5q-17 -29 -32.5 -58t-34.5 -57q-10 -15 -20.5 -28t-25.5 -22q-22 -15 -46 -17q-31 -3 -52 24q-15 19 -23 41t-11 45v4.5t-3 3.5t-4.5 -0.5l-3.5 -3.5q-14 -23 -29 -45.5t-29 -45.5
q-17 -29 -35 -56.5t-42 -50.5q-15 -12 -37 -14q-21 0 -32 20q-14 22 -15 48v25z" />
    <glyph glyph-name="x" unicode="x" horiz-adv-x="336" 
d="M49 304q-4 6 -4 11q-5 20 -9.5 40.5t-6.5 41.5q-2 19 -4 37.5t-4 37.5q-1 12 2 24t5 25q1 5 1.5 10.5t0.5 10.5q3 19 20 19q8 0 13.5 -5.5t5.5 -14.5q-2 -26 1.5 -52t4.5 -52q0 -19 3.5 -37.5t5.5 -37.5q0 -3 5 -5q4 -2 3.5 0.5t0.5 4.5q21 24 42.5 47t46.5 43
q33 27 70 55q4 3 7 5t8 1t10.5 -0.5t9.5 -7.5q3 -9 3 -14t-7 -11q-12 -11 -23.5 -22t-24.5 -21q-70 -52 -125 -126q-9 -12 -5.5 -23t7.5 -22q12 -38 26.5 -74t28.5 -72q2 -5 3 -9t3 -9q6 -11 -6 -21q-14 -14 -28 -1q-11 9 -16.5 21.5t-10.5 24.5q-11 26 -21.5 53t-20.5 53
q-4 9 -9 2l-21 -33q-22 -41 -43.5 -81t-38.5 -83q-2 -5 -5 -8t-5 -7q-5 -9 -12 -12t-13 0q-6 2 -10 12t-2 17q4 16 12 33q18 43 39.5 83.5t46.5 80.5q8 13 16.5 26t17.5 27q2 3 4.5 6.5t1.5 8.5z" />
    <glyph glyph-name="y" unicode="y" horiz-adv-x="413" 
d="M16 296q-1 21 2.5 42t5.5 42q4 29 13.5 55.5t17.5 54.5q6 21 25 39q11 8 20 3q5 -2 8.5 -6t3.5 -10q0 -8 -0.5 -15t-3.5 -15q-14 -35 -25 -69.5t-18 -70.5q-2 -13 -3 -26l-2 -26q-1 -16 1.5 -31.5t7.5 -30.5q3 -11 10 -19q17 -18 38 -8q10 5 17.5 10.5t15.5 12.5
q20 20 39 40.5t35 43.5q8 12 15 24l14 24q23 40 45 81t42 83q4 9 14 19q5 6 11.5 6t12.5 -2q5 -1 8.5 -7.5t4.5 -13.5q0 -6 -2.5 -10.5t-4.5 -9.5q-11 -23 -22.5 -45t-22.5 -45q-19 -40 -34.5 -80.5t-29.5 -82.5q-17 -53 -32.5 -105.5t-34.5 -104.5q-11 -32 -25.5 -61
t-33.5 -56q-18 -26 -49 -46.5t-63 -26.5q-15 -3 -30.5 -0.5t-29.5 9.5q-10 5 -12 13t3 16q4 4 8 6.5t12 0.5q54 -14 96 24q23 20 39 45t27 52q16 39 29 78.5t26 79.5q4 14 7.5 27t9.5 26q1 2 1 5t-2 4t-4 -1t-3 -4q-13 -20 -30.5 -33.5t-35.5 -27.5q-12 -9 -25.5 -13
t-26.5 -4q-14 -1 -27.5 5.5t-22.5 18.5q-14 20 -23 41.5t-7 47.5v27z" />
    <glyph glyph-name="z" unicode="z" horiz-adv-x="425" 
d="M140 551h-91q-18 0 -24 15q-3 6 -1 13.5t7 10.5q15 10 31 10q27 -1 54.5 0t55.5 -1q13 0 24.5 3t24.5 3q12 -1 24.5 -0.5t25.5 3.5q9 2 19 2.5t20 -4.5q14 -8 17 -16.5t-4 -22.5q-2 -2 -3 -4.5t-3 -4.5q-14 -14 -27 -27.5t-25 -29.5q-13 -17 -26 -34.5t-27 -34.5
q-5 -7 -9.5 -13.5t-9.5 -13.5q-7 -8 3 -7q18 0 28 -9q8 -7 6.5 -14t-11.5 -11q-3 -1 -5.5 -3t-5.5 -1q-11 2 -21 -2t-21 -3q-8 0 -17 -7q-11 -11 -19.5 -24t-17.5 -26q-23 -32 -44.5 -64.5t-43.5 -65.5q-6 -9 -10.5 -19t-3.5 -22q2 -16 14 -17h10.5t10.5 2q20 6 38.5 16
t36.5 22q36 23 70.5 48.5t68.5 51.5q13 11 26.5 20t26.5 20q5 4 10.5 5.5t10.5 4.5q6 3 10 1t9 -6q6 -7 2 -17q-9 -21 -25 -34q-11 -10 -23 -19t-23 -18q-23 -18 -47 -35.5t-48 -35.5q-15 -11 -31 -21.5t-33 -20.5q-12 -6 -24 -12.5t-24 -11.5q-19 -6 -37 -8t-37 5
q-17 6 -27.5 20.5t-12.5 32.5q-1 31 13 59q30 53 68 104q10 14 19.5 28t19.5 28q2 4 3.5 7.5t-6.5 5.5q-4 1 -7.5 3t-7.5 4q-11 8 -10 18.5t12 16.5t22.5 8t23.5 1q10 -2 16.5 2.5t12.5 12.5q24 32 47 65t49 63l3 3q-2 1 -3 2t-3 1q-15 -1 -30.5 -1h-29.5h-34z" />
    <glyph glyph-name="braceleft" unicode="{" horiz-adv-x="486" 
d="M436 921q9 -2 14.5 -8.5t4.5 -14.5q-1 -10 -8 -15.5t-16 -4.5h-12.5t-11.5 -2h-1q-5 -1 -8 -2t-7 -2h-1q-3 -2 -7 -4l-8 -4q-25 -13 -47 -40q-27 -34 -42 -89q-25 -86 -60.5 -141.5t-64.5 -86.5q-27 -29 -50 -45q6 -2 12 -5l12 -6q23 -13 35 -31q14 -25 8 -52
q-2 -12 -6 -33t-7.5 -48t-7 -58.5t-4.5 -64.5q-4 -81 6 -138t33 -87q21 -28 56 -31q10 -1 16 -7.5t5 -15.5t-7.5 -15t-14.5 -6h-2q-55 5 -89 49q-56 73 -47 253q1 34 4.5 66.5t7.5 60.5t8 50t6 34q2 8 -1 17t-20 18q-14 8 -30 12.5t-26 6.5l-4.5 1.5t-3.5 0.5
q-14 4 -17 12.5t-2 10.5q0 7 4.5 13.5t15.5 8.5q5 1 27 14.5t54 47.5q26 28 57.5 78.5t54.5 128.5q19 65 51 105q25 34 62 53q16 8 29.5 11.5t24.5 5.5h5h13q4 0 6 -1h1v0z" />
    <glyph glyph-name="bar" unicode="|" horiz-adv-x="151" 
d="M34 81q-2 10 -3 21t-1 22q0 35 0.5 70.5t0.5 70.5q-1 48 1 94t4 94q3 42 5.5 83t7.5 83q2 18 2.5 36.5t2.5 37.5q5 44 8 87.5t10 87.5q2 8 2.5 16t1.5 16q0 7 3.5 11.5t7.5 9.5q7 6 17.5 3t13.5 -12q3 -12 2 -21q-3 -32 -6 -62.5t-7 -61.5l-2 -28l-2 -28q-2 -34 -5 -68
t-6 -67q-8 -89 -11.5 -177t-6.5 -177v-42.5t2 -42.5q2 -13 1 -26t-2 -27q0 -8 -3 -11q-4 -4 -7 -9t-9 -3q-15 2 -18 13l-1.5 3t-2.5 4z" />
    <glyph glyph-name="braceright" unicode="}" horiz-adv-x="486" 
d="M50 -135q-9 2 -14.5 8.5t-4.5 14.5q1 10 8 15.5t16 4.5h12.5t11.5 2h1q5 1 8 2t7 2h1q3 2 7 4l8 4q25 13 47 40q27 34 42 89q25 86 60.5 141.5t64.5 86.5q27 29 50 45q-6 2 -12 5l-12 6q-23 13 -35 31q-14 25 -8 52l5.5 33t7.5 48t7 58.5t5 64.5q4 81 -6 138t-33 87
q-21 28 -56 31q-10 1 -16 7.5t-5 15.5t7.5 15t14.5 6h2q55 -5 89 -49q56 -73 47 -253q-2 -34 -5 -66.5t-7 -60.5t-8 -50t-6 -34q-2 -8 1 -17t20 -18q14 -8 30 -12.5t26 -6.5l4.5 -1.5t3.5 -0.5q14 -4 17 -12.5t2 -10.5q0 -7 -4.5 -13.5t-15.5 -8.5q-5 -1 -27 -14.5
t-54 -47.5q-26 -28 -57.5 -78.5t-54.5 -128.5q-19 -65 -51 -105q-25 -34 -62 -53q-16 -8 -29.5 -11.5t-24.5 -5.5h-5h-13q-4 0 -6 1h-1v0z" />
    <glyph glyph-name="asciitilde" unicode="~" horiz-adv-x="684" 
d="M638 563q8 -2 12.5 -10t2.5 -17q0 -1 -9 -24.5t-31 -51.5q-61 -78 -158 -78q-30 0 -52.5 7t-40 18.5t-31 25t-25.5 27.5q-22 26 -44 43t-62 17q-69 0 -103 -55q-14 -22 -18 -39.5t-4 -18.5q-2 -9 -9 -14.5t-16 -4.5q-9 2 -15 9t-4 16q0 2 5.5 24.5t22.5 50.5
q8 13 20.5 26.5t29.5 24.5t39.5 18t51.5 7q27 0 48 -6.5t37.5 -17t29 -24t24.5 -26.5q11 -13 22 -24.5t24.5 -20.5t30 -14t39.5 -5q74 0 123 61q9 11 15 22t10 20q4 10 8 19q2 9 10 13.5t17 1.5z" />
    </font>
</defs>
</svg>
