<?xml version="1.0" standalone="no"?>
<!DOCTYPE svg PUBLIC "-//W3C//DTD SVG 1.1//EN" "http://www.w3.org/Graphics/SVG/1.1/DTD/svg11.dtd" >
<svg xmlns="http://www.w3.org/2000/svg" xmlns:xlink="http://www.w3.org/1999/xlink" version="1.1">
<metadata>
Created by FontForge 20160405 at Mon Feb 26 14:18:01 2018
 By www-data
Copyright 2004 Process Type Foundry. All rights reserved.
</metadata>
<defs>
<font id="StratumNo1-Thin" horiz-adv-x="208" >
  <font-face 
    font-family="StratumNo1"
    font-weight="100"
    font-stretch="normal"
    units-per-em="1000"
    panose-1="2 0 5 6 3 0 0 2 0 3"
    ascent="800"
    descent="-200"
    x-height="474"
    cap-height="666"
    bbox="-35 -213 1254 845"
    underline-thickness="50"
    underline-position="-150"
    unicode-range="U+0005-2122"
  />
<missing-glyph horiz-adv-x="626" 
d="M80 666h466v-666h-466v666zM157 616l340 -527v527h-340zM129 49h339l-339 527v-527z" />
    <glyph glyph-name=".notdef" horiz-adv-x="626" 
d="M80 666h466v-666h-466v666zM157 616l340 -527v527h-340zM129 49h339l-339 527v-527z" />
    <glyph glyph-name=".null" horiz-adv-x="0" 
 />
    <glyph glyph-name="nonmarkingreturn" horiz-adv-x="220" 
 />
    <glyph glyph-name="breve" horiz-adv-x="433" 
d="M313 625v-58q0 -22 -22 -22h-149q-22 0 -22 22v58h14v-59q0 -8 8 -8h149q8 0 8 8v59h14z" />
    <glyph glyph-name="dotaccent" horiz-adv-x="266" 
d="M120 570v54h26v-54h-26z" />
    <glyph glyph-name="ring" horiz-adv-x="347" 
d="M227 553q0 -22 -22 -22h-63q-22 0 -22 22v61q0 22 22 22h63q22 0 22 -22v-61zM214 616q0 8 -8 8h-65q-8 0 -8 -8v-65q0 -8 8 -8h65q8 0 8 8v65v0z" />
    <glyph glyph-name="hungarumlaut" unicode="&#xa;" horiz-adv-x="489" 
d="M120 564l108 101l11 -12l-109 -100zM250 564l108 101l11 -12l-109 -100z" />
    <glyph glyph-name="ogonek" horiz-adv-x="309" 
d="M178 -129l-58 67l19 62h16l-18 -60l52 -59z" />
    <glyph glyph-name="caron" horiz-adv-x="458" 
d="M338 636l-109 -108l-109 108l11 11l98 -97l98 97z" />
    <glyph glyph-name="dotlessi" unicode="&#xd;" 
d="M95 0v474h18v-474h-18z" />
    <glyph glyph-name="fraction" horiz-adv-x="358" 
d="M21 -117h-16l332 793h16z" />
    <glyph glyph-name="fi" horiz-adv-x="515" 
d="M45 474h80v81q0 23 8.5 43.5t23.5 35.5t35 23.5t43 8.5h67v-17h-67q-39 0 -65.5 -27t-26.5 -66v-82h156l-2 -16h-154v-458h-18v458h-80v16zM402 0v474h18v-474h-18zM402 578v88h18v-88h-18z" />
    <glyph glyph-name="fl" horiz-adv-x="505" 
d="M45 474h80v81q0 23 8.5 43.5t23.5 35.5t35 23.5t43 8.5h67v-17h-67q-39 0 -65.5 -27t-26.5 -66v-82h156l-2 -16h-154v-458h-18v458h-80v16zM397 0v666l18 3v-669h-18z" />
    <glyph glyph-name="Lslash" horiz-adv-x="510" 
d="M35 278l81 42v346h18v-337l95 49l7 -12l-102 -54v-295h321v-17h-339v303l-74 -39z" />
    <glyph glyph-name="lslash" horiz-adv-x="259" 
d="M121 0v297l-64 -33l-7 14l71 36v352l18 3v-346l83 43l7 -12l-90 -47v-307h-18z" />
    <glyph glyph-name="Zcaron" horiz-adv-x="564" 
d="M464 650h-372v16h392v-16l-384 -634h384v-16h-404v16zM382 826l-109 -108l-109 108l11 11l98 -97l98 97z" />
    <glyph glyph-name="zcaron" horiz-adv-x="471" 
d="M396 0h-316v16l292 442h-282v16h303v-16l-292 -442h295v-16zM353 636l-109 -108l-109 108l11 11l98 -97l98 97z" />
    <glyph glyph-name="space" unicode=" " horiz-adv-x="220" 
 />
    <glyph glyph-name="exclam" unicode="!" horiz-adv-x="210" 
d="M99 190l-3 126v350h18v-350l-3 -126h-12zM95 0v78h20v-78h-20z" />
    <glyph glyph-name="quotedbl" unicode="&#x22;" horiz-adv-x="300" 
d="M70 448v218h18v-218h-18zM212 448v218h18v-218h-18z" />
    <glyph glyph-name="numbersign" unicode="#" horiz-adv-x="742" 
d="M479 211l-35 -211h-17l35 211h-239l-35 -211h-17l35 211h-156l3 16h156l35 213h-156l3 16h156l35 210h17l-35 -210h239l35 210h17l-35 -210h167l-3 -16h-167l-35 -213h167l-3 -16h-167zM226 227h239l35 213h-239z" />
    <glyph glyph-name="dollar" unicode="$" horiz-adv-x="544" 
d="M269 0h-69q-23 0 -43 8.5t-35 23.5t-23.5 35.5t-8.5 43.5v70l18 3v-75q0 -39 26.5 -66t65.5 -27h144q39 0 65.5 27t26.5 66v105q0 39 -24 59t-62 33q-26 9 -42.5 14.5t-32 10.5t-33.5 10.5t-45 14.5q-44 14 -73.5 38.5t-29.5 70.5v90q0 23 8.5 43.5t23.5 35.5t35 23.5
t43 8.5h65v101h16v-101h55q23 0 43 -8.5t35 -23.5t23.5 -35.5t8.5 -43.5v-67l-18 -3v72q0 39 -26.5 66t-65.5 27h-136q-39 0 -65.5 -27t-26.5 -66v-93q0 -39 24.5 -59.5t62.5 -32.5q30 -10 48.5 -16t33 -10.5t30 -9.5t39.5 -13q44 -14 74 -38.5t30 -70.5v-103
q0 -23 -8.5 -43.5t-23.5 -35.5t-35 -23.5t-43 -8.5h-59v-101h-16v101z" />
    <glyph glyph-name="percent" unicode="%" horiz-adv-x="939" 
d="M849 99q0 -42 -28 -70.5t-70 -28.5h-90q-42 0 -70 28.5t-28 70.5v179q0 42 28 70.5t70 28.5h90q42 0 70 -28.5t28 -70.5v-179zM579 98q0 -35 23.5 -59t58.5 -24h90q35 0 58.5 24t23.5 59v181q0 35 -23.5 59t-58.5 24h-90q-35 0 -58.5 -24t-23.5 -59v-181zM376 388
q0 -42 -28 -70.5t-70 -28.5h-90q-42 0 -70 28.5t-28 70.5v179q0 42 28 70.5t70 28.5h90q42 0 70 -28.5t28 -70.5v-179zM106 387q0 -35 23.5 -59t58.5 -24h90q35 0 58.5 24t23.5 59v181q0 35 -23.5 59t-58.5 24h-90q-35 0 -58.5 -24t-23.5 -59v-181zM316 0h-17l325 666h17z
" />
    <glyph glyph-name="ampersand" unicode="&#x26;" horiz-adv-x="569" 
d="M461 337v-226q0 -23 -8.5 -43.5t-23.5 -35.5t-35 -23.5t-43 -8.5h-156q-23 0 -43 8.5t-35 23.5t-23.5 35.5t-8.5 43.5v132q0 38 21.5 64.5t53.5 39.5q-30 14 -48.5 40t-18.5 60v108q0 23 8.5 43.5t23.5 35.5t35 23.5t43 8.5h139q23 0 43 -8.5t35 -23.5t23.5 -35.5
t8.5 -43.5v-32l-18 -3v36q0 39 -26.5 66t-65.5 27h-139q-39 0 -65.5 -27t-26.5 -66v-109q0 -19 6.5 -36t18.5 -29.5t28 -20t35 -7.5h350v-17h-88zM351 17q39 0 65.5 27t26.5 66v227h-248q-39 0 -65.5 -27t-26.5 -66v-134q0 -39 26.5 -66t65.5 -27h156v0z" />
    <glyph glyph-name="quotesingle" unicode="'" horiz-adv-x="158" 
d="M70 448v218h18v-218h-18z" />
    <glyph glyph-name="parenleft" unicode="(" horiz-adv-x="225" 
d="M108 -65q0 -25 8 -40.5t24 -30.5q19 -17 35 -31l40 -35l-11 -11q-24 20 -40.5 34t-35.5 31q-17 15 -27.5 35t-10.5 49v698q0 29 10.5 49t27.5 35q19 17 35.5 31t40.5 34l11 -11l-40 -35t-35 -31q-16 -15 -24 -30.5t-8 -40.5v-700z" />
    <glyph glyph-name="parenright" unicode=")" horiz-adv-x="225" 
d="M117 635q0 25 -8 40.5t-24 30.5q-19 17 -35 31l-40 35l11 11q24 -20 40.5 -34t35.5 -31q17 -15 27.5 -35t10.5 -49v-698q0 -29 -10.5 -49t-27.5 -35q-19 -17 -35.5 -31t-40.5 -34l-11 11l40 35t35 31q16 15 24 30.5t8 40.5v700z" />
    <glyph glyph-name="asterisk" unicode="*" horiz-adv-x="438" 
d="M45 530h161l-90 134l12 7l91 -136l91 136l12 -7l-90 -134h161v-14h-162l91 -134l-12 -7l-91 135l-91 -135l-12 7l90 134h-161v14z" />
    <glyph glyph-name="plus" unicode="+" horiz-adv-x="535" 
d="M259 48v200h-199v15h199v200h16v-200h200v-15h-200v-200h-16z" />
    <glyph glyph-name="comma" unicode="," horiz-adv-x="185" 
d="M50 -88l35 88v78h20v-78l-38 -95z" />
    <glyph glyph-name="hyphen" unicode="-" horiz-adv-x="345" 
d="M60 303h225v-16h-225v16z" />
    <glyph glyph-name="period" unicode="." horiz-adv-x="200" 
d="M90 0v78h20v-78h-20z" />
    <glyph glyph-name="slash" unicode="/" horiz-adv-x="394" 
d="M50 -117l288 793h16l-288 -793h-16z" />
    <glyph glyph-name="zero" unicode="0" horiz-adv-x="551" 
d="M461 111q0 -23 -8.5 -43.5t-23.5 -35.5t-35 -23.5t-43 -8.5h-151q-23 0 -43 8.5t-35 23.5t-23.5 35.5t-8.5 43.5v444q0 23 8.5 43.5t23.5 35.5t35 23.5t43 8.5h151q23 0 43 -8.5t35 -23.5t23.5 -35.5t8.5 -43.5v-444zM108 110q0 -39 26.5 -66t65.5 -27h151q39 0 65.5 27
t26.5 66v446q0 39 -26.5 66t-65.5 27h-151q-39 0 -65.5 -27t-26.5 -66v-446z" />
    <glyph glyph-name="one" unicode="1" horiz-adv-x="335" 
d="M240 666v-666h-18v648l-202 -68v17l202 69h18z" />
    <glyph glyph-name="two" unicode="2" horiz-adv-x="529" 
d="M85 0v195q0 46 29 70.5t76 39.5q23 7 41 13t34.5 11t34 10.5t40.5 13.5q25 8 41.5 16t26.5 18t14 23.5t4 32.5v113q0 39 -25 66t-67 27h-144q-41 0 -66.5 -27t-25.5 -66v-46l-18 3v42q0 23 8.5 43.5t23.5 35.5t35 23.5t43 8.5h144q24 0 44 -8.5t35 -23.5t23 -35.5
t8 -43.5v-113q0 -22 -5.5 -38t-17.5 -28t-31.5 -21t-46.5 -18q-25 -8 -42.5 -14t-33.5 -11t-32.5 -10.5t-39.5 -12.5q-45 -14 -68.5 -35t-23.5 -60v-177h338v-17h-356z" />
    <glyph glyph-name="three" unicode="3" horiz-adv-x="535" 
d="M167 350h169q40 0 64 25.5t24 66.5v114q0 39 -26.5 66t-65.5 27h-140q-39 0 -65.5 -27t-26.5 -66v-45l-18 3v41q0 23 8.5 43.5t23.5 35.5t35 23.5t43 8.5h140q23 0 43 -8.5t35 -23.5t23.5 -35.5t8.5 -43.5v-114q0 -32 -16 -59t-51 -41q31 -11 50.5 -39t19.5 -63v-128
q0 -23 -8.5 -43.5t-23.5 -35.5t-35 -23.5t-43 -8.5h-150q-23 0 -43 8.5t-35 23.5t-23.5 35.5t-8.5 43.5v36l18 3v-40q0 -39 26.5 -66t65.5 -27h150q39 0 65.5 27t26.5 66v130q0 39 -26.5 66t-65.5 27h-168v17z" />
    <glyph glyph-name="four" unicode="4" horiz-adv-x="518" 
d="M357 666h18v-444h121l-2 -15h-119v-207h-17v207h-333v15zM358 222v419l-312 -419h312z" />
    <glyph glyph-name="five" unicode="5" horiz-adv-x="526" 
d="M435 666v-17h-324v-303q26 39 88 53q16 3 36 5t39.5 3t37 1.5t28.5 0.5q47 0 76.5 -26.5t29.5 -73.5v-198q0 -23 -8.5 -43.5t-23.5 -35.5t-35 -23.5t-43 -8.5h-136q-23 0 -43 8.5t-35 23.5t-23.5 35.5t-8.5 43.5v21l18 3v-25q0 -39 26.5 -66t65.5 -27h136q39 0 65.5 27
t26.5 66v199q0 39 -23.5 61t-64.5 22q-11 0 -30.5 -0.5t-41.5 -2t-43 -4t-35 -6.5q-15 -5 -29 -12t-25 -18t-18 -25.5t-7 -32.5v-25l-18 3v397h342z" />
    <glyph glyph-name="six" unicode="6" horiz-adv-x="531" 
d="M90 555q0 23 8.5 43.5t23.5 35.5t35 23.5t43 8.5h132q23 0 43 -8.5t35 -23.5t23.5 -35.5t8.5 -43.5v-38l-18 -3v42q0 39 -26.5 66t-65.5 27h-132q-39 0 -65.5 -27t-26.5 -66v-241q26 39 88 53q37 8 75 11t69 3q47 0 76.5 -26.5t29.5 -73.5v-171q0 -23 -8.5 -43.5
t-23.5 -35.5t-35 -23.5t-43 -8.5h-136q-23 0 -43 8.5t-35 23.5t-23.5 35.5t-8.5 43.5v444zM428 282q0 39 -23.5 61t-64.5 22q-16 0 -36 -1t-41 -3t-40.5 -5.5t-35.5 -7.5q-15 -4 -29 -11.5t-25 -18.5t-18 -25.5t-7 -32.5v-150q0 -39 26.5 -66t65.5 -27h136q39 0 65.5 27
t26.5 66v172z" />
    <glyph glyph-name="seven" unicode="7" horiz-adv-x="431" 
d="M165 0h-18l231 649h-343v17h361v-17z" />
    <glyph glyph-name="eight" unicode="8" horiz-adv-x="556" 
d="M200 0q-23 0 -43 8.5t-35 23.5t-23.5 35.5t-8.5 43.5v132q0 38 21.5 64.5t53.5 39.5q-30 14 -48.5 40t-18.5 60v108q0 23 8.5 43.5t23.5 35.5t35 23.5t43 8.5h140q23 0 43 -8.5t35 -23.5t23.5 -35.5t8.5 -43.5v-108q0 -34 -18.5 -60t-48.5 -40q32 -13 53.5 -39.5
t21.5 -64.5v-132q0 -23 -8.5 -43.5t-23.5 -35.5t-35 -23.5t-43 -8.5h-156zM200 337q-39 0 -65.5 -27t-26.5 -66v-134q0 -39 26.5 -66t65.5 -27h156q39 0 65.5 27t26.5 66v134q0 39 -26.5 66t-65.5 27h-156zM208 649q-39 0 -65.5 -27t-26.5 -66v-109q0 -38 25 -65t63 -28h148
q19 1 35 8.5t28 20t18.5 29t6.5 35.5v109q0 39 -26.5 66t-65.5 27h-140z" />
    <glyph glyph-name="nine" unicode="9" horiz-adv-x="532" 
d="M442 111q0 -23 -8.5 -43.5t-23.5 -35.5t-35 -23.5t-43 -8.5h-137q-23 0 -43 8.5t-35 23.5t-23.5 35.5t-8.5 43.5v38l18 3v-42q0 -39 26.5 -66t65.5 -27h137q39 0 65.5 27t26.5 66v241q-26 -39 -88 -53q-37 -8 -75 -11t-69 -3q-47 0 -76.5 26.5t-29.5 73.5v171
q0 23 8.5 43.5t23.5 35.5t35 23.5t43 8.5h136q23 0 43 -8.5t35 -23.5t23.5 -35.5t8.5 -43.5v-444zM104 384q0 -39 23.5 -61t64.5 -22q16 0 36 1t41 3t40.5 5t35.5 8q15 4 29 11.5t25 18.5t18 25.5t7 32.5v150q0 39 -26.5 66t-65.5 27h-136q-39 0 -65.5 -27t-26.5 -66v-172z
" />
    <glyph glyph-name="colon" unicode=":" horiz-adv-x="200" 
d="M90 0v78h20v-78h-20zM90 340v78h20v-78h-20z" />
    <glyph glyph-name="semicolon" unicode=";" horiz-adv-x="200" 
d="M90 340v78h20v-78h-20zM55 -88l35 88v78h20v-78l-38 -95z" />
    <glyph glyph-name="less" unicode="&#x3c;" horiz-adv-x="587" 
d="M45 248l476 246l6 -12l-468 -240l468 -240l-6 -12l-476 246v12z" />
    <glyph glyph-name="equal" unicode="=" horiz-adv-x="421" 
d="M60 338h301v-15h-301v15zM60 190h301v-15h-301v15z" />
    <glyph glyph-name="greater" unicode="&#x3e;" horiz-adv-x="587" 
d="M542 236l-476 -246l-6 12l468 240l-468 240l6 12l476 -246v-12z" />
    <glyph glyph-name="question" unicode="?" horiz-adv-x="509" 
d="M223 157v79q0 23 4 39t12 27t19 19.5t25 16.5q22 13 39 22.5t34 19.5q24 15 38 24.5t21 20t9 24t2 34.5v74q0 39 -26.5 66t-65.5 27h-144q-39 0 -65.5 -27t-26.5 -66v-72l-18 3v67q0 23 8.5 43.5t23.5 35.5t35 23.5t43 8.5h144q23 0 43 -8.5t35 -23.5t23.5 -35.5
t8.5 -43.5v-71q0 -24 -2.5 -39.5t-10.5 -27.5t-23.5 -23t-41.5 -26q-21 -13 -37.5 -22.5t-36.5 -20.5q-15 -8 -25 -16.5t-15.5 -18.5t-8 -23t-2.5 -31v-79h-18zM222 0v78h20v-78h-20z" />
    <glyph glyph-name="at" unicode="@" horiz-adv-x="594" 
d="M496 0h-296q-23 0 -43 8.5t-35 23.5t-23.5 35.5t-8.5 43.5v444q0 23 8.5 43.5t23.5 35.5t35 23.5t43 8.5h214q23 0 43 -8.5t35 -23.5t23.5 -35.5t8.5 -43.5v-317h-18v51q-13 -18 -33 -29t-47 -19q-35 -9 -58 -10.5t-43 -1.5q-42 0 -69 24t-27 66v61q0 42 27 66t69 24
q20 0 44 -1.5t57 -5.5q28 -4 47.5 -16t32.5 -31v140q0 39 -26.5 66t-65.5 27h-214q-39 0 -65.5 -27t-26.5 -66v-446q0 -39 26.5 -66t65.5 -27h296v-17zM245 319q0 -35 21.5 -55t58.5 -20q20 0 49 3t60 12q27 8 49.5 27t22.5 53v26q0 34 -22 54.5t-50 25.5q-32 6 -60.5 8
t-48.5 2q-37 0 -58.5 -20t-21.5 -55v-61z" />
    <glyph glyph-name="A" unicode="A" horiz-adv-x="578" 
d="M443 201h-308l-72 -201h-18l236 666h16l236 -666h-18zM141 218h296l-148 425z" />
    <glyph glyph-name="B" unicode="B" horiz-adv-x="571" 
d="M95 666h273q23 0 43 -8.5t35 -23.5t23.5 -35.5t8.5 -43.5v-108q0 -34 -19 -61.5t-52 -38.5q34 -8 56.5 -37t22.5 -67v-132q0 -23 -8.5 -43.5t-23.5 -35.5t-35 -23.5t-43 -8.5h-281v666zM113 337v-320h263q39 0 65.5 27t26.5 66v134q0 39 -26.5 66t-65.5 27h-263zM113 649
v-295h259q19 1 35 8.5t28 20t18.5 29t6.5 35.5v109q0 39 -26.5 66t-65.5 27h-255z" />
    <glyph glyph-name="C" unicode="C" horiz-adv-x="579" 
d="M108 110q0 -39 26.5 -66t65.5 -27h184q39 0 65.5 27t26.5 66v84l18 -3v-80q0 -23 -8.5 -43.5t-23.5 -35.5t-35 -23.5t-43 -8.5h-184q-23 0 -43 8.5t-35 23.5t-23.5 35.5t-8.5 43.5v444q0 23 8.5 43.5t23.5 35.5t35 23.5t43 8.5h184q23 0 43 -8.5t35 -23.5t23.5 -35.5
t8.5 -43.5v-77l-18 -3v81q0 39 -26.5 66t-65.5 27h-184q-39 0 -65.5 -27t-26.5 -66v-446z" />
    <glyph glyph-name="D" unicode="D" horiz-adv-x="571" 
d="M95 666h276q23 0 43 -8.5t35 -23.5t23.5 -35.5t8.5 -43.5v-444q0 -23 -8.5 -43.5t-23.5 -35.5t-35 -23.5t-43 -8.5h-276v666zM113 649v-632h258q39 0 65.5 27t26.5 66v446q0 39 -26.5 66t-65.5 27h-258z" />
    <glyph glyph-name="E" unicode="E" horiz-adv-x="525" 
d="M95 666h354v-17h-336v-288h305v-17h-305v-327h342v-17h-360v666z" />
    <glyph glyph-name="F" unicode="F" horiz-adv-x="491" 
d="M95 0v666h358v-17h-340v-288h309v-17h-309v-344h-18z" />
    <glyph glyph-name="G" unicode="G" horiz-adv-x="569" 
d="M309 304h180v-193q0 -23 -8.5 -43.5t-23.5 -35.5t-35 -23.5t-43 -8.5h-179q-23 0 -43 8.5t-35 23.5t-23.5 35.5t-8.5 43.5v444q0 23 8.5 43.5t23.5 35.5t35 23.5t43 8.5h179q23 0 43 -8.5t35 -23.5t23.5 -35.5t8.5 -43.5v-67l-18 -3v71q0 39 -26.5 66t-65.5 27h-179
q-39 0 -65.5 -27t-26.5 -66v-446q0 -39 26.5 -66t65.5 -27h179q39 0 65.5 27t26.5 66v178h-162v16z" />
    <glyph glyph-name="H" unicode="H" horiz-adv-x="591" 
d="M478 341h-365v-341h-18v666h18v-308h365v308h18v-666h-18v341z" />
    <glyph glyph-name="I" unicode="I" 
d="M113 0h-18v666h18v-666z" />
    <glyph glyph-name="J" unicode="J" horiz-adv-x="493" 
d="M160 0q-23 0 -43 8.5t-35 23.5t-23.5 35.5t-8.5 43.5v64l18 3v-68q0 -39 26.5 -66t65.5 -27h133q39 0 65.5 27t26.5 66v556h18v-555q0 -23 -8.5 -43.5t-23.5 -35.5t-35 -23.5t-43 -8.5h-133v0z" />
    <glyph glyph-name="K" unicode="K" horiz-adv-x="516" 
d="M133 342l353 -342h-24l-349 337v-337h-18v666h18v-320l335 320h24z" />
    <glyph glyph-name="L" unicode="L" horiz-adv-x="489" 
d="M113 17h321v-17h-339v666h18v-649z" />
    <glyph glyph-name="M" unicode="M" horiz-adv-x="670" 
d="M335 188l222 478h18v-666h-18v623l-214 -462h-15l-215 462v-623h-18v666h18z" />
    <glyph glyph-name="N" unicode="N" horiz-adv-x="599" 
d="M504 0h-17l-375 631v-631h-17v666h17l375 -632v632h17v-666z" />
    <glyph glyph-name="O" unicode="O" horiz-adv-x="589" 
d="M499 111q0 -23 -8.5 -43.5t-23.5 -35.5t-35 -23.5t-43 -8.5h-189q-23 0 -43 8.5t-35 23.5t-23.5 35.5t-8.5 43.5v444q0 23 8.5 43.5t23.5 35.5t35 23.5t43 8.5h189q23 0 43 -8.5t35 -23.5t23.5 -35.5t8.5 -43.5v-444zM108 110q0 -39 26.5 -66t65.5 -27h189q39 0 65.5 27
t26.5 66v446q0 39 -26.5 66t-65.5 27h-189q-39 0 -65.5 -27t-26.5 -66v-446z" />
    <glyph glyph-name="P" unicode="P" horiz-adv-x="513" 
d="M468 412q0 -23 -8.5 -43.5t-23.5 -35.5t-35 -23.5t-43 -8.5h-245v-301h-18v666h263q23 0 43 -8.5t35 -23.5t23.5 -35.5t8.5 -43.5v-143zM113 649v-331h245q39 0 65.5 27t26.5 66v145q0 39 -26.5 66t-65.5 27h-245z" />
    <glyph glyph-name="Q" unicode="Q" horiz-adv-x="590" 
d="M286 0h-86q-23 0 -43 8.5t-35 23.5t-23.5 35.5t-8.5 43.5v444q0 23 8.5 43.5t23.5 35.5t35 23.5t43 8.5h190q23 0 43 -8.5t35 -23.5t23.5 -35.5t8.5 -43.5v-444q0 -23 -8.5 -43.5t-23.5 -35.5t-35 -23.5t-43 -8.5h-86v-130h-18v130zM108 110q0 -39 26.5 -66t65.5 -27h190
q39 0 65.5 27t26.5 66v446q0 39 -26.5 66t-65.5 27h-190q-39 0 -65.5 -27t-26.5 -66v-446z" />
    <glyph glyph-name="R" unicode="R" horiz-adv-x="569" 
d="M473 416q0 -23 -8 -42.5t-22 -34.5t-33 -24t-41 -10l145 -305h-19l-145 305h-237v-305h-18v666h268q23 0 43 -8.5t35 -23.5t23.5 -35.5t8.5 -43.5v-139zM113 649v-327h250q39 0 65.5 27t26.5 66v141q0 39 -26.5 66t-65.5 27h-250z" />
    <glyph glyph-name="S" unicode="S" horiz-adv-x="563" 
d="M197 356q-45 13 -74 37.5t-29 70.5v91q0 23 8.5 43.5t23.5 35.5t35 23.5t43 8.5h160q23 0 43 -8.5t35 -23.5t23.5 -35.5t8.5 -43.5v-67l-18 -3v72q0 39 -26.5 66t-65.5 27h-160q-39 0 -65.5 -27t-26.5 -66v-93q0 -38 23.5 -59t61.5 -32q30 -9 53 -15.5t43 -12t39 -11
t42 -11.5q45 -13 74.5 -37.5t29.5 -71.5v-103q0 -23 -8.5 -43.5t-23.5 -35.5t-35 -23.5t-43 -8.5h-168q-23 0 -43 8.5t-35 23.5t-23.5 35.5t-8.5 43.5v70l18 3v-75q0 -39 26.5 -66t65.5 -27h168q39 0 65.5 27t26.5 66v105q0 39 -24 60t-62 32l-49 14t-40 11.5t-39.5 11
t-48.5 13.5z" />
    <glyph glyph-name="T" unicode="T" horiz-adv-x="522" 
d="M35 666h452v-17h-217v-649h-18v649h-217v17z" />
    <glyph glyph-name="U" unicode="U" horiz-adv-x="571" 
d="M200 0q-23 0 -43 8.5t-35 23.5t-23.5 35.5t-8.5 43.5v555h18v-556q0 -39 26.5 -66t65.5 -27h171q39 0 65.5 27t26.5 66v556h18v-555q0 -23 -8.5 -43.5t-23.5 -35.5t-35 -23.5t-43 -8.5h-171v0z" />
    <glyph glyph-name="V" unicode="V" horiz-adv-x="542" 
d="M271 24l213 642h18l-222 -666h-18l-222 666h18z" />
    <glyph glyph-name="W" unicode="W" horiz-adv-x="816" 
d="M743 666h18l-172 -666h-18l-163 634l-163 -634h-18l-172 666h18l163 -642l164 642h16l164 -642z" />
    <glyph glyph-name="X" unicode="X" horiz-adv-x="580" 
d="M281 338l-205 328h18l196 -314l196 314h18l-205 -328l211 -338h-18l-202 323l-202 -323h-18z" />
    <glyph glyph-name="Y" unicode="Y" horiz-adv-x="510" 
d="M255 279l212 387h19l-222 -407v-259h-18v259l-222 407h19z" />
    <glyph glyph-name="Z" unicode="Z" horiz-adv-x="564" 
d="M464 650h-372v16h392v-16l-384 -634h384v-16h-404v16z" />
    <glyph glyph-name="bracketleft" unicode="[" horiz-adv-x="267" 
d="M95 796h162v-17h-144v-888h144v-17h-162v922z" />
    <glyph glyph-name="backslash" unicode="\" horiz-adv-x="394" 
d="M328 -117l-288 793h16l288 -793h-16z" />
    <glyph glyph-name="bracketright" unicode="]" horiz-adv-x="267" 
d="M172 -126h-162v17h144v888h-144v17h162v-922z" />
    <glyph glyph-name="asciicircum" unicode="^" horiz-adv-x="427" 
d="M357 349l-144 298l-144 -298l-14 7l151 310h14l152 -310z" />
    <glyph glyph-name="underscore" unicode="_" horiz-adv-x="404" 
d="M-2 -6h408v-9h-408v9z" />
    <glyph glyph-name="grave" unicode="`" horiz-adv-x="349" 
d="M189 553l-109 100l11 12l108 -101z" />
    <glyph glyph-name="a" unicode="a" horiz-adv-x="498" 
d="M413 0h-18v57q-14 -20 -36 -32.5t-52 -20.5q-37 -9 -68 -11.5t-53 -2.5q-47 0 -76.5 26.5t-29.5 73.5v70q0 47 29.5 73.5t76.5 26.5q26 0 54.5 -1.5t66.5 -6.5q59 -9 88 -52v164q0 39 -26.5 66t-65.5 27h-103q-39 0 -65.5 -27t-26.5 -66v-22l-18 3v18q0 23 8.5 43.5
t23.5 35.5t35 23.5t43 8.5h103q23 0 43 -8.5t35 -23.5t23.5 -35.5t8.5 -43.5v-363zM98 90q0 -39 23.5 -61t64.5 -22q22 0 58.5 3t71.5 14q15 4 29 11.5t25 18.5t18 25.5t7 32.5v32q0 37 -24.5 59.5t-54.5 28.5q-40 8 -71.5 9.5t-58.5 1.5q-41 0 -64.5 -22t-23.5 -61v-70z
" />
    <glyph glyph-name="b" unicode="b" horiz-adv-x="499" 
d="M90 666l18 3v-258q14 20 36 32.5t52 20.5q38 11 66.5 15.5t50.5 4.5q47 0 76.5 -26.5t29.5 -73.5v-294q0 -47 -29.5 -73.5t-76.5 -26.5q-22 0 -50.5 4.5t-66.5 15.5q-30 8 -52 20.5t-36 32.5v-63h-18v666zM401 384q0 39 -23.5 61t-64.5 22q-22 0 -56.5 -6t-69.5 -17
q-15 -5 -29 -12t-25 -18t-18 -25.5t-7 -32.5v-238q0 -18 7 -32.5t18 -25.5t25 -18.5t29 -11.5q35 -11 69.5 -17t56.5 -6q41 0 64.5 22t23.5 61v294z" />
    <glyph glyph-name="c" unicode="c" horiz-adv-x="478" 
d="M413 140v-29q0 -23 -8.5 -43.5t-23.5 -35.5t-35 -23.5t-43 -8.5h-113q-23 0 -43 8.5t-35 23.5t-23.5 35.5t-8.5 43.5v252q0 23 8.5 43.5t23.5 35.5t35 23.5t43 8.5h113q23 0 43 -8.5t35 -23.5t23.5 -35.5t8.5 -43.5v-27l-18 -3v31q0 39 -26.5 66t-65.5 27h-113
q-39 0 -65.5 -27t-26.5 -66v-254q0 -39 26.5 -66t65.5 -27h113q39 0 65.5 27t26.5 66v33z" />
    <glyph glyph-name="d" unicode="d" horiz-adv-x="499" 
d="M409 0h-18v63q-14 -20 -36 -32.5t-52 -20.5q-38 -11 -66.5 -15.5t-50.5 -4.5q-47 0 -76.5 26.5t-29.5 73.5v294q0 47 29.5 73.5t76.5 26.5q22 0 50.5 -4.5t66.5 -15.5q30 -8 52 -20.5t36 -32.5v255l18 3v-669zM98 90q0 -39 23.5 -61t64.5 -22q22 0 56.5 6t69.5 17
q15 4 29 11.5t25 18.5t18 25.5t7 32.5v238q0 18 -7 32.5t-18 25.5t-25 18t-29 12q-35 11 -69.5 17t-56.5 6q-41 0 -64.5 -22t-23.5 -61v-294v0z" />
    <glyph glyph-name="e" unicode="e" horiz-adv-x="490" 
d="M415 137v-26q0 -23 -8.5 -43.5t-23.5 -35.5t-35 -23.5t-43 -8.5h-115q-23 0 -43 8.5t-35 23.5t-23.5 35.5t-8.5 43.5v252q0 23 8.5 43.5t23.5 35.5t35 23.5t43 8.5h115q23 0 43 -8.5t35 -23.5t23.5 -35.5t8.5 -43.5v-119h-317v-134q0 -39 26.5 -66t65.5 -27h115
q39 0 65.5 27t26.5 66v30zM98 261h299v103q0 39 -26.5 66t-65.5 27h-115q-39 0 -65.5 -27t-26.5 -66v-103z" />
    <glyph glyph-name="f" unicode="f" horiz-adv-x="307" 
d="M45 474h80v81q0 23 8.5 43.5t23.5 35.5t35 23.5t43 8.5h67v-17h-67q-39 0 -65.5 -27t-26.5 -66v-82h156l-2 -16h-154v-458h-18v458h-80v16z" />
    <glyph glyph-name="g" unicode="g" horiz-adv-x="494" 
d="M118 -173h181q39 0 65.5 27t26.5 66v143q-14 -20 -36 -32.5t-52 -20.5q-38 -11 -66.5 -15.5t-50.5 -4.5q-47 0 -76.5 26.5t-29.5 73.5v294q0 47 29.5 73.5t76.5 26.5q22 0 50.5 -4.5t66.5 -15.5q30 -8 52 -20.5t36 -32.5v63h18v-553q0 -23 -8.5 -43.5t-23.5 -35.5
t-35 -23.5t-43 -8.5h-181v17zM98 90q0 -39 23.5 -61t64.5 -22q22 0 56.5 6t69.5 17q15 4 29 11.5t25 18.5t18 25.5t7 32.5v238q0 18 -7 32.5t-18 25.5t-25 18t-29 12q-35 11 -69.5 17t-56.5 6q-41 0 -64.5 -22t-23.5 -61v-294z" />
    <glyph glyph-name="h" unicode="h" horiz-adv-x="504" 
d="M401 0v384q0 39 -23.5 61t-64.5 22q-22 0 -56.5 -6t-69.5 -17q-15 -5 -29 -12t-25 -18t-18 -25.5t-7 -32.5v-356h-18v666l18 3v-258q14 20 36 32.5t52 20.5q38 11 66.5 15.5t50.5 4.5q47 0 76.5 -26.5t29.5 -73.5v-384h-18z" />
    <glyph glyph-name="i" unicode="i" 
d="M95 0v474h18v-474h-18zM95 578v88h18v-88h-18z" />
    <glyph glyph-name="j" unicode="j" horiz-adv-x="206" 
d="M121 474v-553q0 -23 -8.5 -43.5t-23.5 -35.5t-35 -23.5t-43 -8.5h-46v17h46q39 0 65.5 27t26.5 66v554h18zM103 583v83h18v-83h-18z" />
    <glyph glyph-name="k" unicode="k" horiz-adv-x="427" 
d="M392 474l-263 -236l268 -238h-24l-265 234v-234h-18v666l18 3v-427l260 232h24z" />
    <glyph glyph-name="l" unicode="l" horiz-adv-x="198" 
d="M90 0v666l18 3v-669h-18z" />
    <glyph glyph-name="m" unicode="m" horiz-adv-x="815" 
d="M712 0v384q0 39 -23.5 61t-64.5 22q-22 0 -56.5 -6t-69.5 -17q-15 -5 -29 -12t-25 -18t-18 -25.5t-7 -32.5v-356h-18v384q0 39 -23.5 61t-64.5 22q-22 0 -56.5 -6t-69.5 -17q-15 -5 -29 -12t-25 -18t-18 -25.5t-7 -32.5v-356h-18v474h18v-63q14 20 36 32.5t52 20.5
q38 11 66.5 15.5t50.5 4.5q40 0 67.5 -20.5t35.5 -56.5q14 20 35 33.5t56 23.5q38 11 66.5 15.5t50.5 4.5q47 0 76.5 -26.5t29.5 -73.5v-384h-18z" />
    <glyph glyph-name="n" unicode="n" horiz-adv-x="504" 
d="M401 0v384q0 39 -23.5 61t-64.5 22q-22 0 -56.5 -6t-69.5 -17q-15 -5 -29 -12t-25 -18t-18 -25.5t-7 -32.5v-356h-18v474h18v-63q14 20 36 32.5t52 20.5q38 11 66.5 15.5t50.5 4.5q47 0 76.5 -26.5t29.5 -73.5v-384h-18z" />
    <glyph glyph-name="o" unicode="o" horiz-adv-x="501" 
d="M421 111q0 -23 -8.5 -43.5t-23.5 -35.5t-35 -23.5t-43 -8.5h-121q-23 0 -43 8.5t-35 23.5t-23.5 35.5t-8.5 43.5v252q0 23 8.5 43.5t23.5 35.5t35 23.5t43 8.5h121q23 0 43 -8.5t35 -23.5t23.5 -35.5t8.5 -43.5v-252zM98 110q0 -39 26.5 -66t65.5 -27h121q39 0 65.5 27
t26.5 66v254q0 39 -26.5 66t-65.5 27h-121q-39 0 -65.5 -27t-26.5 -66v-254z" />
    <glyph glyph-name="p" unicode="p" horiz-adv-x="499" 
d="M90 474h18v-63q14 20 36 32.5t52 20.5q38 11 66.5 15.5t50.5 4.5q47 0 76.5 -26.5t29.5 -73.5v-294q0 -47 -29.5 -73.5t-76.5 -26.5q-22 0 -50.5 4.5t-66.5 15.5q-30 8 -52 20.5t-36 32.5v-253l-18 -3v667zM401 384q0 39 -23.5 61t-64.5 22q-22 0 -56.5 -6t-69.5 -17
q-15 -5 -29 -12t-25 -18t-18 -25.5t-7 -32.5v-238q0 -18 7 -32.5t18 -25.5t25 -18.5t29 -11.5q35 -11 69.5 -17t56.5 -6q41 0 64.5 22t23.5 61v294v0z" />
    <glyph glyph-name="q" unicode="q" horiz-adv-x="499" 
d="M409 -190l-18 -3v256q-14 -20 -36 -32.5t-52 -20.5q-38 -11 -66.5 -15.5t-50.5 -4.5q-47 0 -76.5 26.5t-29.5 73.5v294q0 47 29.5 73.5t76.5 26.5q22 0 50.5 -4.5t66.5 -15.5q30 -8 52 -20.5t36 -32.5v63h18v-664zM98 90q0 -39 23.5 -61t64.5 -22q22 0 56.5 6t69.5 17
q15 4 29 11.5t25 18.5t18 25.5t7 32.5v238q0 18 -7 32.5t-18 25.5t-25 18t-29 12q-35 11 -69.5 17t-56.5 6q-41 0 -64.5 -22t-23.5 -61v-294z" />
    <glyph glyph-name="r" unicode="r" horiz-adv-x="295" 
d="M280 467l-25 -12.5t-22 -11.5t-23 -12.5t-26 -14.5q-32 -19 -54 -39.5t-22 -57.5v-319h-18v474h18v-96q11 15 28.5 28t43.5 27t47.5 25.5t50.5 25.5z" />
    <glyph glyph-name="s" unicode="s" horiz-adv-x="480" 
d="M193 244q-24 6 -44 14t-34.5 19.5t-23 27.5t-8.5 40v28q0 47 31 74t79 27h97q23 0 43 -8.5t35 -23.5t23.5 -35.5t8.5 -43.5v-24l-18 -3v28q0 39 -25.5 66t-66.5 27h-97q-42 0 -67 -22t-25 -61v-29q0 -39 25.5 -55.5t70.5 -28.5q15 -4 27.5 -7.5t23.5 -6.5t23 -6t27 -7
q24 -6 43.5 -14t33.5 -19.5t22 -28t8 -39.5v-32q0 -47 -31 -74t-79 -27h-105q-23 0 -43 8.5t-35 23.5t-23.5 35.5t-8.5 43.5v19l18 3v-23q0 -39 26.5 -66t65.5 -27h105q40 0 66 22t26 61v33q0 39 -27.5 56.5t-69.5 28.5q-15 4 -26.5 7t-22 6t-22 6t-26.5 7z" />
    <glyph glyph-name="t" unicode="t" horiz-adv-x="336" 
d="M30 474h85v125l18 2v-127h168l-2 -17h-166v-345q0 -39 26.5 -67t65.5 -28h67v-17h-67q-23 0 -43 8.5t-35 23.5t-23.5 35.5t-8.5 43.5v346h-85v17z" />
    <glyph glyph-name="u" unicode="u" horiz-adv-x="504" 
d="M103 474v-384q0 -39 23.5 -61t64.5 -22q22 0 56.5 6t69.5 17q15 4 29 11.5t25 18.5t18 25.5t7 32.5v356h18v-474h-18v63q-14 -20 -36 -32.5t-52 -20.5q-38 -11 -66.5 -15.5t-50.5 -4.5q-47 0 -76.5 26.5t-29.5 73.5v384h18z" />
    <glyph glyph-name="v" unicode="v" horiz-adv-x="421" 
d="M201 0l-176 474h19l166 -451l167 451h19l-177 -474h-18z" />
    <glyph glyph-name="w" unicode="w" horiz-adv-x="638" 
d="M469 0l-150 450l-150 -450h-18l-101 474h18l93 -446l149 446h18l149 -446l93 446h18l-101 -474h-18z" />
    <glyph glyph-name="x" unicode="x" horiz-adv-x="446" 
d="M55 0l158 238l-157 236h21l146 -220l146 220h21l-157 -236l158 -238h-21l-147 222l-147 -222h-21z" />
    <glyph glyph-name="y" unicode="y" horiz-adv-x="429" 
d="M135 -190l70 191l-175 473h19l166 -451l167 451h19l-177 -474l-71 -190h-18z" />
    <glyph glyph-name="z" unicode="z" horiz-adv-x="456" 
d="M391 0h-316v16l292 442h-282v16h303v-16l-292 -442h295v-16z" />
    <glyph glyph-name="braceleft" unicode="{" horiz-adv-x="313" 
d="M171 390l-34 258q-6 53 20.5 83.5t74.5 41.5q21 5 35 7t34 4l2 -16q-19 -2 -33 -4t-35 -7q-39 -8 -62 -34t-18 -71l34 -256q1 -10 -7 -17l-72 -63l72 -63q8 -7 7 -17l-34 -256q-5 -45 18 -71t62 -34q21 -5 35 -7t33 -4l-2 -16q-20 2 -34 4t-35 7q-48 11 -74.5 41.5
t-20.5 83.5l34 258l-81 70v8z" />
    <glyph glyph-name="bar" unicode="|" horiz-adv-x="224" 
d="M119 -200h-14v1000h14v-1000z" />
    <glyph glyph-name="braceright" unicode="}" horiz-adv-x="313" 
d="M223 320v-8l-81 -70l34 -258q6 -53 -20.5 -83.5t-74.5 -41.5q-21 -5 -35 -7t-34 -4l-2 16q19 2 33 4t35 7q39 8 62 34t18 71l-34 256q-1 10 7 17l72 63l-72 63q-8 7 -7 17l34 256q5 45 -18 71t-62 34q-21 5 -35 7t-33 4l2 16q20 -2 34 -4t35 -7q48 -11 74.5 -41.5
t20.5 -83.5l-34 -258z" />
    <glyph glyph-name="asciitilde" unicode="~" horiz-adv-x="438" 
d="M189 260q-33 21 -68.5 13.5t-58.5 -42.5l-13 -20l-14 9l13 21q12 19 29.5 31.5t37.5 17t42 0.5t42 -16l49 -31q33 -21 70 -12.5t58 42.5l13 20l14 -9l-13 -21q-12 -20 -29.5 -32t-38 -16.5t-42.5 -1t-42 15.5z" />
    <glyph glyph-name="uni00A0" unicode="&#xa0;" horiz-adv-x="220" 
 />
    <glyph glyph-name="exclamdown" unicode="&#xa1;" horiz-adv-x="210" 
d="M111 284l3 -126v-348h-18v348l3 126h12zM115 474v-78h-20v78h20z" />
    <glyph glyph-name="cent" unicode="&#xa2;" horiz-adv-x="503" 
d="M250 95h-50q-23 0 -43 8.5t-35 23.5t-23.5 35.5t-8.5 43.5v252q0 23 8.5 43.5t23.5 35.5t35 23.5t43 8.5h50v97h16v-97h47q23 0 43 -8.5t35 -23.5t23.5 -35.5t8.5 -43.5v-27l-18 -3v31q0 39 -26.5 66t-65.5 27h-113q-39 0 -65.5 -27t-26.5 -66v-254q0 -39 26.5 -66
t65.5 -27h113q39 0 65.5 27t26.5 66v33l18 -3v-29q0 -23 -8.5 -43.5t-23.5 -35.5t-35 -23.5t-43 -8.5h-47v-95h-16v95z" />
    <glyph glyph-name="sterling" unicode="&#xa3;" horiz-adv-x="566" 
d="M38 17h143v538q0 23 8.5 43.5t23.5 35.5t35 23.5t43 8.5h143v-17h-143q-39 0 -65.5 -27t-26.5 -66v-162h196l-2 -17h-194v-360h167q39 0 65.5 27t26.5 66v30l18 -3v-26q0 -23 -8.5 -43.5t-23.5 -35.5t-35 -23.5t-43 -8.5h-331z" />
    <glyph glyph-name="currency" unicode="&#xa4;" horiz-adv-x="617" 
d="M37 412h91v143q0 23 8.5 43.5t23.5 35.5t35 23.5t43 8.5h184q23 0 43 -8.5t35 -23.5t23.5 -35.5t8.5 -43.5v-77l-18 -3v81q0 39 -26.5 66t-65.5 27h-184q-39 0 -65.5 -27t-26.5 -66v-144h182l-2 -14h-180v-124h182l-2 -14h-180v-150q0 -39 26.5 -66t65.5 -27h184
q39 0 65.5 27t26.5 66v84l18 -3v-80q0 -23 -8.5 -43.5t-23.5 -35.5t-35 -23.5t-43 -8.5h-184q-23 0 -43 8.5t-35 23.5t-23.5 35.5t-8.5 43.5v149h-93l2 14h91v124h-93z" />
    <glyph glyph-name="yen" unicode="&#xa5;" horiz-adv-x="510" 
d="M60 338h143l-179 328h19l212 -387l212 387h19l-179 -328h144v-15h-152l-35 -64v-59h187v-15h-187v-185h-18v185h-186v15h186v59l-35 64h-151v15z" />
    <glyph glyph-name="brokenbar" unicode="&#xa6;" horiz-adv-x="224" 
d="M105 -200v417h14v-417h-14zM119 383h-14v417h14v-417z" />
    <glyph glyph-name="section" unicode="&#xa7;" horiz-adv-x="502" 
d="M405 269q-32 8 -57 14.5t-47.5 12.5l-45 12t-50.5 13q-24 6 -44 13.5t-34.5 19t-23 28t-8.5 40.5v143q0 47 31 74t79 27h97q23 0 43 -8.5t35 -23.5t23.5 -35.5t8.5 -43.5v-44l-18 -3v48q0 39 -25.5 66t-66.5 27h-97q-42 0 -67 -22t-25 -61v-144q0 -39 25.5 -57t70.5 -29
q31 -8 53.5 -13.5t44 -11t45.5 -11.5t57 -15zM97 207q32 -8 57 -14.5t47.5 -12.5l45 -12t50.5 -13q24 -6 44 -13.5t34.5 -19t23 -28t8.5 -40.5v-143q0 -47 -31 -74t-79 -27h-97q-23 0 -43 8.5t-35 23.5t-23.5 35.5t-8.5 43.5v44l18 3v-48q0 -39 25.5 -66t66.5 -27h97
q42 0 67 22t25 61v144q0 39 -25.5 57t-70.5 29q-31 8 -53.5 13.5t-44 11t-45.5 11.5t-57 15z" />
    <glyph glyph-name="dieresis" unicode="&#xa8;" horiz-adv-x="401" 
d="M120 556v47h21v-47h-21zM260 556v47h21v-47h-21z" />
    <glyph glyph-name="copyright" unicode="&#xa9;" horiz-adv-x="662" 
d="M572 89q0 -38 -25 -63.5t-63 -25.5h-306q-38 0 -63 25.5t-25 63.5v488q0 38 25 63.5t63 25.5h306q38 0 63 -25.5t25 -63.5v-488zM104 87q0 -32 21 -53t53 -21h306q32 0 53 21t21 53v492q0 32 -21 53t-53 21h-306q-32 0 -53 -21t-21 -53v-492zM235 237q0 -32 21 -53.5
t53 -21.5h49q32 0 53 21.5t21 53.5v38l15 -2v-35q0 -38 -25.5 -64t-63.5 -26h-49q-38 0 -63.5 26t-25.5 64v191q0 38 25.5 64t63.5 26h49q38 0 63.5 -26t25.5 -64v-32l-15 -3v36q0 32 -21 53.5t-53 21.5h-49q-32 0 -53 -21.5t-21 -53.5v-193z" />
    <glyph glyph-name="ordfeminine" unicode="&#xaa;" horiz-adv-x="339" 
d="M264 397h-14v27q-8 -7 -21 -14.5t-27 -10.5q-20 -5 -39 -6t-31 -1q-29 0 -45.5 15t-16.5 43v40q0 28 16.5 42.5t45.5 14.5q11 0 31 -1t39 -4q16 -2 28 -8.5t20 -14.5v83q0 20 -14.5 35.5t-35.5 15.5h-60q-20 0 -35 -15.5t-15 -35.5v-11l-14 1v9q0 28 18 46.5t46 18.5h60
q28 0 46 -18.5t18 -46.5v-204zM84 450q0 -21 13.5 -33t34.5 -12q12 0 33.5 2t41.5 7q15 5 29 17t14 31v19q0 20 -13 32t-30 14q-20 4 -41.5 5t-33.5 1q-21 0 -34.5 -11.5t-13.5 -31.5v-40z" />
    <glyph glyph-name="guillemotleft" unicode="&#xab;" horiz-adv-x="482" 
d="M60 238l156 200l11 -9l-149 -191l149 -191l-11 -9zM230 238l156 200l11 -9l-149 -191l149 -191l-11 -9z" />
    <glyph glyph-name="logicalnot" unicode="&#xac;" horiz-adv-x="506" 
d="M398 120v211h-338v17h356v-228h-18z" />
    <glyph glyph-name="minus" unicode="&#xad;" horiz-adv-x="419" 
d="M60 303h299v-16h-299v16z" />
    <glyph glyph-name="registered" unicode="&#xae;" horiz-adv-x="509" 
d="M439 356q0 -38 -25 -63.5t-63 -25.5h-193q-38 0 -63 25.5t-25 63.5v221q0 38 25 63.5t63 25.5h193q38 0 63 -25.5t25 -63.5v-221zM82 354q0 -32 22 -54t54 -22h193q32 0 54 22t22 54v225q0 32 -22 54t-54 22h-193q-32 0 -54 -22t-22 -54v-225zM324 495q0 -17 -9 -26
t-21 -11l42 -97h-13l-42 97h-72v-97h-12v218h89q17 0 27.5 -11t10.5 -28v-45zM209 568v-99h77q26 0 26 25v47q0 11 -7 19t-19 8h-77z" />
    <glyph glyph-name="macron" unicode="&#xaf;" horiz-adv-x="440" 
d="M120 591h200v-14h-200v14z" />
    <glyph glyph-name="degree" unicode="&#xb0;" horiz-adv-x="293" 
d="M213 517q0 -22 -22 -22h-89q-22 0 -22 22v127q0 22 22 22h89q22 0 22 -22v-127zM199 645q0 8 -8 8h-89q-8 0 -8 -8v-129q0 -8 8 -8h89q8 0 8 8v129v0z" />
    <glyph glyph-name="plusminus" unicode="&#xb1;" horiz-adv-x="565" 
d="M75 15h199v233h-199v15h199v200h16v-200h200v-15h-200v-233h200v-15h-415v15z" />
    <glyph glyph-name="twosuperior" unicode="&#xb2;" horiz-adv-x="756" 
d="M378 -10l-338 676h676z" />
    <glyph glyph-name="threesuperior" unicode="&#xb3;" horiz-adv-x="756" 
d="M716 0h-676l338 676z" />
    <glyph glyph-name="acute" unicode="&#xb4;" horiz-adv-x="349" 
d="M150 564l108 101l11 -12l-109 -100z" />
    <glyph glyph-name="mu" unicode="&#xb5;" horiz-adv-x="504" 
d="M103 474v-384q0 -39 23.5 -61t64.5 -22q22 0 56.5 6t69.5 17q15 4 29 11.5t25 18.5t18 25.5t7 32.5v356h18v-474h-18v63q-14 -20 -36 -32.5t-52 -20.5q-38 -11 -66.5 -15.5t-50.5 -4.5q-29 0 -51.5 10t-36.5 30v-220h-18v664h18z" />
    <glyph glyph-name="paragraph" unicode="&#xb6;" horiz-adv-x="497" 
d="M388 0v653h-82v-821q0 -22 -22 -22h-94v13h94q8 0 8 8v822h-205q-8 0 -8 -8v-310q0 -8 8 -8h104v-13h-104q-22 0 -22 22v308q0 22 22 22h315v-666h-14z" />
    <glyph glyph-name="periodcentered" unicode="&#xb7;" horiz-adv-x="200" 
d="M90 291v78h20v-78h-20z" />
    <glyph glyph-name="periodcentered" unicode="&#x2219;" horiz-adv-x="200" 
d="M90 291v78h20v-78h-20z" />
    <glyph glyph-name="cedilla" unicode="&#xb8;" horiz-adv-x="313" 
d="M120 -124l55 133l18 -4l-58 -136z" />
    <glyph glyph-name="onesuperior" unicode="&#xb9;" horiz-adv-x="826" 
d="M781 333l-686 -343v686z" />
    <glyph glyph-name="ordmasculine" unicode="&#xba;" horiz-adv-x="337" 
d="M267 462q0 -28 -18 -46.5t-46 -18.5h-69q-28 0 -46 18.5t-18 46.5v139q0 28 18 46.5t46 18.5h69q28 0 46 -18.5t18 -46.5v-139zM84 461q0 -20 14.5 -35t35.5 -15h69q21 0 35.5 15t14.5 35v141q0 20 -14.5 35.5t-35.5 15.5h-69q-21 0 -35.5 -15.5t-14.5 -35.5v-141z" />
    <glyph glyph-name="guillemotright" unicode="&#xbb;" horiz-adv-x="482" 
d="M266 38l-11 9l149 191l-149 191l11 9l156 -200zM96 38l-11 9l149 191l-149 191l11 9l156 -200z" />
    <glyph glyph-name="onequarter" unicode="&#xbc;" horiz-adv-x="654" 
d="M90 474h474v-474h-474v474z" />
    <glyph glyph-name="onehalf" unicode="&#xbd;" horiz-adv-x="856" 
d="M95 666h666v-666h-666v666z" />
    <glyph glyph-name="threequarters" unicode="&#xbe;" horiz-adv-x="624" 
d="M90 484l494 -247l-494 -247v494z" />
    <glyph glyph-name="questiondown" unicode="&#xbf;" horiz-adv-x="509" 
d="M286 317v-77q0 -23 -4 -39t-12 -27t-19 -19.5t-25 -16.5q-22 -13 -39 -22.5t-34 -19.5q-24 -15 -38 -24.5t-21 -20t-9 -24t-2 -34.5v-74q0 -39 26.5 -66t65.5 -27h144q39 0 65.5 27t26.5 66v72l18 -3v-67q0 -23 -8.5 -43.5t-23.5 -35.5t-35 -23.5t-43 -8.5h-144
q-23 0 -43 8.5t-35 23.5t-23.5 35.5t-8.5 43.5v71q0 24 2.5 39.5t10.5 27.5t23.5 23t41.5 26q21 13 37.5 22.5t36.5 20.5q30 16 40.5 34.5t10.5 54.5v77h18zM287 474v-78h-20v78h20z" />
    <glyph glyph-name="Agrave" unicode="&#xc0;" horiz-adv-x="578" 
d="M443 201h-308l-72 -201h-18l236 666h16l236 -666h-18zM141 218h296l-148 425zM279 733l-109 100l11 12l108 -101z" />
    <glyph glyph-name="Aacute" unicode="&#xc1;" horiz-adv-x="578" 
d="M443 201h-308l-72 -201h-18l236 666h16l236 -666h-18zM141 218h296l-148 425zM281 744l108 101l11 -12l-109 -100z" />
    <glyph glyph-name="Acircumflex" unicode="&#xc2;" horiz-adv-x="578" 
d="M443 201h-308l-72 -201h-18l236 666h16l236 -666h-18zM141 218h296l-148 425zM387 717l-98 97l-98 -97l-11 11l109 108l109 -108z" />
    <glyph glyph-name="Atilde" unicode="&#xc3;" horiz-adv-x="578" 
d="M443 201h-308l-72 -201h-18l236 666h16l236 -666h-18zM141 218h296l-148 425zM401 795l-14 -42q-4 -11 -11.5 -16t-20.5 0l-136 46q-8 3 -11 -5l-15 -43l-15 5l14 42q8 24 33 15l135 -46q8 -3 12 6l14 42z" />
    <glyph glyph-name="Adieresis" unicode="&#xc4;" horiz-adv-x="578" 
d="M443 201h-308l-72 -201h-18l236 666h16l236 -666h-18zM141 218h296l-148 425zM209 741v47h21v-47h-21zM349 741v47h21v-47h-21z" />
    <glyph glyph-name="Aring" unicode="&#xc5;" horiz-adv-x="578" 
d="M443 201h-308l-72 -201h-18l236 666h16l236 -666h-18zM141 218h296l-148 425zM343 729q0 -22 -22 -22h-63q-22 0 -22 22v61q0 22 22 22h63q22 0 22 -22v-61zM330 792q0 8 -8 8h-65q-8 0 -8 -8v-65q0 -8 8 -8h65q8 0 8 8v65v0z" />
    <glyph glyph-name="AE" unicode="&#xc6;" horiz-adv-x="799" 
d="M443 201h-308l-72 -201h-18l236 666h442v-17h-420l102 -288h287v-17h-281l116 -327h202v-17h-214zM141 218h296l-148 425z" />
    <glyph glyph-name="Ccedilla" unicode="&#xc7;" horiz-adv-x="579" 
d="M235 -124l51 124h-86q-23 0 -43 8.5t-35 23.5t-23.5 35.5t-8.5 43.5v444q0 23 8.5 43.5t23.5 35.5t35 23.5t43 8.5h184q23 0 43 -8.5t35 -23.5t23.5 -35.5t8.5 -43.5v-77l-18 -3v81q0 39 -26.5 66t-65.5 27h-184q-39 0 -65.5 -27t-26.5 -66v-446q0 -39 26.5 -66t65.5 -27
h184q39 0 65.5 27t26.5 66v84l18 -3v-80q0 -23 -8.5 -43.5t-23.5 -35.5t-35 -23.5t-43 -8.5h-78l-56 -131z" />
    <glyph glyph-name="Egrave" unicode="&#xc8;" horiz-adv-x="525" 
d="M95 666h354v-17h-336v-288h305v-17h-305v-327h342v-17h-360v666zM269 733l-109 100l11 12l108 -101z" />
    <glyph glyph-name="Eacute" unicode="&#xc9;" horiz-adv-x="525" 
d="M95 666h354v-17h-336v-288h305v-17h-305v-327h342v-17h-360v666zM260 744l108 101l11 -12l-109 -100z" />
    <glyph glyph-name="Ecircumflex" unicode="&#xca;" horiz-adv-x="525" 
d="M95 666h354v-17h-336v-288h305v-17h-305v-327h342v-17h-360v666zM372 717l-98 97l-98 -97l-11 11l109 108l109 -108z" />
    <glyph glyph-name="Edieresis" unicode="&#xcb;" horiz-adv-x="525" 
d="M95 666h354v-17h-336v-288h305v-17h-305v-327h342v-17h-360v666zM191 741v47h21v-47h-21zM331 741v47h21v-47h-21z" />
    <glyph glyph-name="Igrave" unicode="&#xcc;" 
d="M113 0h-18v666h18v-666zM100 733l-109 100l11 12l108 -101z" />
    <glyph glyph-name="Iacute" unicode="&#xcd;" 
d="M113 0h-18v666h18v-666zM97 744l108 101l11 -12l-109 -100z" />
    <glyph glyph-name="Icircumflex" unicode="&#xce;" 
d="M113 0h-18v666h18v-666zM203 717l-98 97l-98 -97l-11 11l109 108l109 -108z" />
    <glyph glyph-name="Idieresis" unicode="&#xcf;" 
d="M113 0h-18v666h18v-666zM25 741v47h21v-47h-21zM165 741v47h21v-47h-21z" />
    <glyph glyph-name="Eth" unicode="&#xd0;" horiz-adv-x="606" 
d="M45 342h85v324h276q23 0 43 -8.5t35 -23.5t23.5 -35.5t8.5 -43.5v-444q0 -23 -8.5 -43.5t-23.5 -35.5t-35 -23.5t-43 -8.5h-276v328h-85v14zM148 649v-307h148v-14h-148v-311h258q39 0 65.5 27t26.5 66v446q0 39 -26.5 66t-65.5 27h-258z" />
    <glyph glyph-name="Ntilde" unicode="&#xd1;" horiz-adv-x="599" 
d="M504 0h-17l-375 631v-631h-17v666h17l375 -632v632h17v-666zM407 795l-14 -42q-4 -11 -11.5 -16t-20.5 0l-136 46q-8 3 -11 -5l-15 -43l-15 5l14 42q8 24 33 15l135 -46q8 -3 12 6l14 42z" />
    <glyph glyph-name="Ograve" unicode="&#xd2;" horiz-adv-x="589" 
d="M499 111q0 -23 -8.5 -43.5t-23.5 -35.5t-35 -23.5t-43 -8.5h-189q-23 0 -43 8.5t-35 23.5t-23.5 35.5t-8.5 43.5v444q0 23 8.5 43.5t23.5 35.5t35 23.5t43 8.5h189q23 0 43 -8.5t35 -23.5t23.5 -35.5t8.5 -43.5v-444zM108 110q0 -39 26.5 -66t65.5 -27h189q39 0 65.5 27
t26.5 66v446q0 39 -26.5 66t-65.5 27h-189q-39 0 -65.5 -27t-26.5 -66v-446zM289 733l-109 100l11 12l108 -101z" />
    <glyph glyph-name="Oacute" unicode="&#xd3;" horiz-adv-x="589" 
d="M499 111q0 -23 -8.5 -43.5t-23.5 -35.5t-35 -23.5t-43 -8.5h-189q-23 0 -43 8.5t-35 23.5t-23.5 35.5t-8.5 43.5v444q0 23 8.5 43.5t23.5 35.5t35 23.5t43 8.5h189q23 0 43 -8.5t35 -23.5t23.5 -35.5t8.5 -43.5v-444zM108 110q0 -39 26.5 -66t65.5 -27h189q39 0 65.5 27
t26.5 66v446q0 39 -26.5 66t-65.5 27h-189q-39 0 -65.5 -27t-26.5 -66v-446zM292 744l108 101l11 -12l-109 -100z" />
    <glyph glyph-name="Ocircumflex" unicode="&#xd4;" horiz-adv-x="589" 
d="M499 111q0 -23 -8.5 -43.5t-23.5 -35.5t-35 -23.5t-43 -8.5h-189q-23 0 -43 8.5t-35 23.5t-23.5 35.5t-8.5 43.5v444q0 23 8.5 43.5t23.5 35.5t35 23.5t43 8.5h189q23 0 43 -8.5t35 -23.5t23.5 -35.5t8.5 -43.5v-444zM108 110q0 -39 26.5 -66t65.5 -27h189q39 0 65.5 27
t26.5 66v446q0 39 -26.5 66t-65.5 27h-189q-39 0 -65.5 -27t-26.5 -66v-446zM392 717l-98 97l-98 -97l-11 11l109 108l109 -108z" />
    <glyph glyph-name="Otilde" unicode="&#xd5;" horiz-adv-x="589" 
d="M499 111q0 -23 -8.5 -43.5t-23.5 -35.5t-35 -23.5t-43 -8.5h-189q-23 0 -43 8.5t-35 23.5t-23.5 35.5t-8.5 43.5v444q0 23 8.5 43.5t23.5 35.5t35 23.5t43 8.5h189q23 0 43 -8.5t35 -23.5t23.5 -35.5t8.5 -43.5v-444zM108 110q0 -39 26.5 -66t65.5 -27h189q39 0 65.5 27
t26.5 66v446q0 39 -26.5 66t-65.5 27h-189q-39 0 -65.5 -27t-26.5 -66v-446zM406 795l-14 -42q-4 -11 -11.5 -16t-20.5 0l-136 46q-8 3 -11 -5l-15 -43l-15 5l14 42q8 24 33 15l135 -46q8 -3 12 6l14 42z" />
    <glyph glyph-name="Odieresis" unicode="&#xd6;" horiz-adv-x="589" 
d="M499 111q0 -23 -8.5 -43.5t-23.5 -35.5t-35 -23.5t-43 -8.5h-189q-23 0 -43 8.5t-35 23.5t-23.5 35.5t-8.5 43.5v444q0 23 8.5 43.5t23.5 35.5t35 23.5t43 8.5h189q23 0 43 -8.5t35 -23.5t23.5 -35.5t8.5 -43.5v-444zM108 110q0 -39 26.5 -66t65.5 -27h189q39 0 65.5 27
t26.5 66v446q0 39 -26.5 66t-65.5 27h-189q-39 0 -65.5 -27t-26.5 -66v-446zM214 741v47h21v-47h-21zM354 741v47h21v-47h-21z" />
    <glyph glyph-name="multiply" unicode="&#xd7;" horiz-adv-x="426" 
d="M60 102l142 142l-140 140l11 12l140 -141l141 141l12 -12l-141 -141l141 -141l-11 -11l-141 141l-142 -142z" />
    <glyph glyph-name="Oslash" unicode="&#xd8;" horiz-adv-x="629" 
d="M136 38q-12 14 -19 33t-7 40v444q0 23 8.5 43.5t23.5 35.5t35 23.5t43 8.5h189q42 0 72 -27l44 77l14 -7l-47 -81q27 -32 27 -73v-444q0 -23 -8.5 -43.5t-23.5 -35.5t-35 -23.5t-43 -8.5h-189q-43 0 -73 27l-44 -77l-13 7zM128 110q0 -34 18 -56l326 570q-12 11 -28 18
t-35 7h-189q-39 0 -65.5 -27t-26.5 -66v-446zM501 556q0 16 -5 30t-13 25l-327 -569q27 -25 64 -25h189q39 0 65.5 27t26.5 66v446v0z" />
    <glyph glyph-name="Ugrave" unicode="&#xd9;" horiz-adv-x="571" 
d="M200 0q-23 0 -43 8.5t-35 23.5t-23.5 35.5t-8.5 43.5v555h18v-556q0 -39 26.5 -66t65.5 -27h171q39 0 65.5 27t26.5 66v556h18v-555q0 -23 -8.5 -43.5t-23.5 -35.5t-35 -23.5t-43 -8.5h-171v0zM281 733l-109 100l11 12l108 -101z" />
    <glyph glyph-name="Uacute" unicode="&#xda;" horiz-adv-x="571" 
d="M200 0q-23 0 -43 8.5t-35 23.5t-23.5 35.5t-8.5 43.5v555h18v-556q0 -39 26.5 -66t65.5 -27h171q39 0 65.5 27t26.5 66v556h18v-555q0 -23 -8.5 -43.5t-23.5 -35.5t-35 -23.5t-43 -8.5h-171v0zM268 744l108 101l11 -12l-109 -100z" />
    <glyph glyph-name="Ucircumflex" unicode="&#xdb;" horiz-adv-x="571" 
d="M200 0q-23 0 -43 8.5t-35 23.5t-23.5 35.5t-8.5 43.5v555h18v-556q0 -39 26.5 -66t65.5 -27h171q39 0 65.5 27t26.5 66v556h18v-555q0 -23 -8.5 -43.5t-23.5 -35.5t-35 -23.5t-43 -8.5h-171v0zM383 717l-98 97l-98 -97l-11 11l109 108l109 -108z" />
    <glyph glyph-name="Udieresis" unicode="&#xdc;" horiz-adv-x="571" 
d="M200 0q-23 0 -43 8.5t-35 23.5t-23.5 35.5t-8.5 43.5v555h18v-556q0 -39 26.5 -66t65.5 -27h171q39 0 65.5 27t26.5 66v556h18v-555q0 -23 -8.5 -43.5t-23.5 -35.5t-35 -23.5t-43 -8.5h-171v0zM205 741v47h21v-47h-21zM345 741v47h21v-47h-21z" />
    <glyph glyph-name="Yacute" unicode="&#xdd;" horiz-adv-x="510" 
d="M255 279l212 387h19l-222 -407v-259h-18v259l-222 407h19zM255 744l108 101l11 -12l-109 -100z" />
    <glyph glyph-name="Thorn" unicode="&#xde;" horiz-adv-x="513" 
d="M468 268q0 -23 -8.5 -43.5t-23.5 -35.5t-35 -23.5t-43 -8.5h-245v-157h-18v666h18v-144h245q23 0 43 -8.5t35 -23.5t23.5 -35.5t8.5 -43.5v-143zM113 505v-331h245q39 0 65.5 27t26.5 66v145q0 39 -26.5 66t-65.5 27h-245z" />
    <glyph glyph-name="germandbls" unicode="&#xdf;" horiz-adv-x="608" 
d="M387 290q-13 11 -21 20.5t-12.5 20.5t-6 26.5t-1.5 39.5v159q0 39 -26.5 66t-65.5 27h-54q-39 0 -65.5 -27t-26.5 -66v-556h-18v555q0 23 8.5 43.5t23.5 35.5t35 23.5t43 8.5h54q23 0 43 -8.5t35 -23.5t23.5 -35.5t8.5 -43.5v-160q0 -19 1 -32t4 -23.5t9.5 -19.5
t18.5 -18q12 -10 20.5 -16.5t16 -12.5t16.5 -13t21 -16q21 -16 35.5 -28.5t24 -25t13.5 -27t4 -35.5v-27q0 -47 -31 -74t-79 -27h-95q-23 0 -43 8.5t-35 23.5t-23.5 35.5t-8.5 43.5v19l18 3v-23q0 -39 26.5 -66t65.5 -27h95q40 0 66 22t26 61v28q0 19 -4 32t-12 23.5
t-20.5 20.5t-30.5 24q-14 11 -23 18.5t-17 14t-16.5 13t-19.5 16.5z" />
    <glyph glyph-name="agrave" unicode="&#xe0;" horiz-adv-x="498" 
d="M413 0h-18v57q-14 -20 -36 -32.5t-52 -20.5q-37 -9 -68 -11.5t-53 -2.5q-47 0 -76.5 26.5t-29.5 73.5v70q0 47 29.5 73.5t76.5 26.5q26 0 54.5 -1.5t66.5 -6.5q59 -9 88 -52v164q0 39 -26.5 66t-65.5 27h-103q-39 0 -65.5 -27t-26.5 -66v-22l-18 3v18q0 23 8.5 43.5
t23.5 35.5t35 23.5t43 8.5h103q23 0 43 -8.5t35 -23.5t23.5 -35.5t8.5 -43.5v-363zM98 90q0 -39 23.5 -61t64.5 -22q22 0 58.5 3t71.5 14q15 4 29 11.5t25 18.5t18 25.5t7 32.5v32q0 37 -24.5 59.5t-54.5 28.5q-40 8 -71.5 9.5t-58.5 1.5q-41 0 -64.5 -22t-23.5 -61v-70z
M242 553l-109 100l11 12l108 -101z" />
    <glyph glyph-name="aacute" unicode="&#xe1;" horiz-adv-x="498" 
d="M413 0h-18v57q-14 -20 -36 -32.5t-52 -20.5q-37 -9 -68 -11.5t-53 -2.5q-47 0 -76.5 26.5t-29.5 73.5v70q0 47 29.5 73.5t76.5 26.5q26 0 54.5 -1.5t66.5 -6.5q59 -9 88 -52v164q0 39 -26.5 66t-65.5 27h-103q-39 0 -65.5 -27t-26.5 -66v-22l-18 3v18q0 23 8.5 43.5
t23.5 35.5t35 23.5t43 8.5h103q23 0 43 -8.5t35 -23.5t23.5 -35.5t8.5 -43.5v-363zM98 90q0 -39 23.5 -61t64.5 -22q22 0 58.5 3t71.5 14q15 4 29 11.5t25 18.5t18 25.5t7 32.5v32q0 37 -24.5 59.5t-54.5 28.5q-40 8 -71.5 9.5t-58.5 1.5q-41 0 -64.5 -22t-23.5 -61v-70z
M241 564l108 101l11 -12l-109 -100z" />
    <glyph glyph-name="acircumflex" unicode="&#xe2;" horiz-adv-x="498" 
d="M413 0h-18v57q-14 -20 -36 -32.5t-52 -20.5q-37 -9 -68 -11.5t-53 -2.5q-47 0 -76.5 26.5t-29.5 73.5v70q0 47 29.5 73.5t76.5 26.5q26 0 54.5 -1.5t66.5 -6.5q59 -9 88 -52v164q0 39 -26.5 66t-65.5 27h-103q-39 0 -65.5 -27t-26.5 -66v-22l-18 3v18q0 23 8.5 43.5
t23.5 35.5t35 23.5t43 8.5h103q23 0 43 -8.5t35 -23.5t23.5 -35.5t8.5 -43.5v-363zM98 90q0 -39 23.5 -61t64.5 -22q22 0 58.5 3t71.5 14q15 4 29 11.5t25 18.5t18 25.5t7 32.5v32q0 37 -24.5 59.5t-54.5 28.5q-40 8 -71.5 9.5t-58.5 1.5q-41 0 -64.5 -22t-23.5 -61v-70z
M352 537l-98 97l-98 -97l-11 11l109 108l109 -108z" />
    <glyph glyph-name="atilde" unicode="&#xe3;" horiz-adv-x="498" 
d="M413 0h-18v57q-14 -20 -36 -32.5t-52 -20.5q-37 -9 -68 -11.5t-53 -2.5q-47 0 -76.5 26.5t-29.5 73.5v70q0 47 29.5 73.5t76.5 26.5q26 0 54.5 -1.5t66.5 -6.5q59 -9 88 -52v164q0 39 -26.5 66t-65.5 27h-103q-39 0 -65.5 -27t-26.5 -66v-22l-18 3v18q0 23 8.5 43.5
t23.5 35.5t35 23.5t43 8.5h103q23 0 43 -8.5t35 -23.5t23.5 -35.5t8.5 -43.5v-363zM98 90q0 -39 23.5 -61t64.5 -22q22 0 58.5 3t71.5 14q15 4 29 11.5t25 18.5t18 25.5t7 32.5v32q0 37 -24.5 59.5t-54.5 28.5q-40 8 -71.5 9.5t-58.5 1.5q-41 0 -64.5 -22t-23.5 -61v-70z
M358 618l-14 -42q-4 -11 -11.5 -16t-20.5 0l-136 46q-8 3 -11 -5l-15 -43l-15 5l14 42q8 24 33 15l135 -46q8 -3 12 6l14 42z" />
    <glyph glyph-name="adieresis" unicode="&#xe4;" horiz-adv-x="498" 
d="M413 0h-18v57q-14 -20 -36 -32.5t-52 -20.5q-37 -9 -68 -11.5t-53 -2.5q-47 0 -76.5 26.5t-29.5 73.5v70q0 47 29.5 73.5t76.5 26.5q26 0 54.5 -1.5t66.5 -6.5q59 -9 88 -52v164q0 39 -26.5 66t-65.5 27h-103q-39 0 -65.5 -27t-26.5 -66v-22l-18 3v18q0 23 8.5 43.5
t23.5 35.5t35 23.5t43 8.5h103q23 0 43 -8.5t35 -23.5t23.5 -35.5t8.5 -43.5v-363zM98 90q0 -39 23.5 -61t64.5 -22q22 0 58.5 3t71.5 14q15 4 29 11.5t25 18.5t18 25.5t7 32.5v32q0 37 -24.5 59.5t-54.5 28.5q-40 8 -71.5 9.5t-58.5 1.5q-41 0 -64.5 -22t-23.5 -61v-70z
M173 556v47h21v-47h-21zM313 556v47h21v-47h-21z" />
    <glyph glyph-name="aring" unicode="&#xe5;" horiz-adv-x="498" 
d="M413 0h-18v57q-14 -20 -36 -32.5t-52 -20.5q-37 -9 -68 -11.5t-53 -2.5q-47 0 -76.5 26.5t-29.5 73.5v70q0 47 29.5 73.5t76.5 26.5q26 0 54.5 -1.5t66.5 -6.5q59 -9 88 -52v164q0 39 -26.5 66t-65.5 27h-103q-39 0 -65.5 -27t-26.5 -66v-22l-18 3v18q0 23 8.5 43.5
t23.5 35.5t35 23.5t43 8.5h103q23 0 43 -8.5t35 -23.5t23.5 -35.5t8.5 -43.5v-363zM98 90q0 -39 23.5 -61t64.5 -22q22 0 58.5 3t71.5 14q15 4 29 11.5t25 18.5t18 25.5t7 32.5v32q0 37 -24.5 59.5t-54.5 28.5q-40 8 -71.5 9.5t-58.5 1.5q-41 0 -64.5 -22t-23.5 -61v-70z
M304 560q0 -22 -22 -22h-63q-22 0 -22 22v61q0 22 22 22h63q22 0 22 -22v-61zM291 623q0 8 -8 8h-65q-8 0 -8 -8v-65q0 -8 8 -8h65q8 0 8 8v65v0z" />
    <glyph glyph-name="ae" unicode="&#xe6;" horiz-adv-x="808" 
d="M733 137v-26q0 -23 -8.5 -43.5t-23.5 -35.5t-35 -23.5t-43 -8.5h-115q-35 0 -61.5 20t-39.5 49q-15 -26 -40 -42t-57 -24q-36 -9 -69 -11t-55 -2q-47 0 -76.5 26.5t-29.5 73.5v70q0 47 29.5 73.5t76.5 26.5q22 0 54.5 -1.5t69.5 -6.5q31 -4 52.5 -17.5t35.5 -34.5v164
q0 39 -26.5 66t-65.5 27h-106q-39 0 -65.5 -27t-26.5 -66v-22l-18 3v18q0 23 8.5 43.5t23.5 35.5t35 23.5t43 8.5h106q35 0 61.5 -18.5t39.5 -47.5q12 29 39 47.5t62 18.5h115q23 0 43 -8.5t35 -23.5t23.5 -35.5t8.5 -43.5v-119h-317v-138q1 -38 27.5 -63.5t64.5 -25.5h115
q39 0 65.5 27t26.5 66v30zM98 90q0 -39 23.5 -61.5t64.5 -22.5q22 0 60 2.5t73 13.5q29 9 53.5 30.5t25.5 58.5v36q-1 18 -8 32.5t-18 25.5t-24.5 18t-28.5 10q-36 7 -73.5 9t-59.5 2q-41 0 -64.5 -22.5t-23.5 -61.5v-70zM416 261h299v103q0 39 -26.5 66t-65.5 27h-115
q-38 0 -64.5 -26t-27.5 -64v-106z" />
    <glyph glyph-name="ccedilla" unicode="&#xe7;" horiz-adv-x="478" 
d="M195 -112l46 112h-51q-23 0 -43 8.5t-35 23.5t-23.5 35.5t-8.5 43.5v252q0 23 8.5 43.5t23.5 35.5t35 23.5t43 8.5h113q23 0 43 -8.5t35 -23.5t23.5 -35.5t8.5 -43.5v-27l-18 -3v31q0 39 -26.5 66t-65.5 27h-113q-39 0 -65.5 -27t-26.5 -66v-254q0 -39 26.5 -66t65.5 -27
h113q39 0 65.5 27t26.5 66v33l18 -3v-29q0 -23 -8.5 -43.5t-23.5 -35.5t-35 -23.5t-43 -8.5h-42l-51 -119z" />
    <glyph glyph-name="egrave" unicode="&#xe8;" horiz-adv-x="490" 
d="M415 137v-26q0 -23 -8.5 -43.5t-23.5 -35.5t-35 -23.5t-43 -8.5h-115q-23 0 -43 8.5t-35 23.5t-23.5 35.5t-8.5 43.5v252q0 23 8.5 43.5t23.5 35.5t35 23.5t43 8.5h115q23 0 43 -8.5t35 -23.5t23.5 -35.5t8.5 -43.5v-119h-317v-134q0 -39 26.5 -66t65.5 -27h115
q39 0 65.5 27t26.5 66v30zM98 261h299v103q0 39 -26.5 66t-65.5 27h-115q-39 0 -65.5 -27t-26.5 -66v-103zM228 553l-109 100l11 12l108 -101z" />
    <glyph glyph-name="eacute" unicode="&#xe9;" horiz-adv-x="490" 
d="M415 137v-26q0 -23 -8.5 -43.5t-23.5 -35.5t-35 -23.5t-43 -8.5h-115q-23 0 -43 8.5t-35 23.5t-23.5 35.5t-8.5 43.5v252q0 23 8.5 43.5t23.5 35.5t35 23.5t43 8.5h115q23 0 43 -8.5t35 -23.5t23.5 -35.5t8.5 -43.5v-119h-317v-134q0 -39 26.5 -66t65.5 -27h115
q39 0 65.5 27t26.5 66v30zM98 261h299v103q0 39 -26.5 66t-65.5 27h-115q-39 0 -65.5 -27t-26.5 -66v-103zM231 564l108 101l11 -12l-109 -100z" />
    <glyph glyph-name="ecircumflex" unicode="&#xea;" horiz-adv-x="490" 
d="M415 137v-26q0 -23 -8.5 -43.5t-23.5 -35.5t-35 -23.5t-43 -8.5h-115q-23 0 -43 8.5t-35 23.5t-23.5 35.5t-8.5 43.5v252q0 23 8.5 43.5t23.5 35.5t35 23.5t43 8.5h115q23 0 43 -8.5t35 -23.5t23.5 -35.5t8.5 -43.5v-119h-317v-134q0 -39 26.5 -66t65.5 -27h115
q39 0 65.5 27t26.5 66v30zM98 261h299v103q0 39 -26.5 66t-65.5 27h-115q-39 0 -65.5 -27t-26.5 -66v-103zM345 537l-98 97l-98 -97l-11 11l109 108l109 -108z" />
    <glyph glyph-name="edieresis" unicode="&#xeb;" horiz-adv-x="490" 
d="M415 137v-26q0 -23 -8.5 -43.5t-23.5 -35.5t-35 -23.5t-43 -8.5h-115q-23 0 -43 8.5t-35 23.5t-23.5 35.5t-8.5 43.5v252q0 23 8.5 43.5t23.5 35.5t35 23.5t43 8.5h115q23 0 43 -8.5t35 -23.5t23.5 -35.5t8.5 -43.5v-119h-317v-134q0 -39 26.5 -66t65.5 -27h115
q39 0 65.5 27t26.5 66v30zM98 261h299v103q0 39 -26.5 66t-65.5 27h-115q-39 0 -65.5 -27t-26.5 -66v-103zM165 556v47h21v-47h-21zM305 556v47h21v-47h-21z" />
    <glyph glyph-name="igrave" unicode="&#xec;" 
d="M95 0v474h18v-474h-18zM94 553l-109 100l11 12l108 -101z" />
    <glyph glyph-name="iacute" unicode="&#xed;" 
d="M95 0v474h18v-474h-18zM95 564l108 101l11 -12l-109 -100z" />
    <glyph glyph-name="icircumflex" unicode="&#xee;" 
d="M95 0v474h18v-474h-18zM203 537l-98 97l-98 -97l-11 11l109 108l109 -108z" />
    <glyph glyph-name="idieresis" unicode="&#xef;" 
d="M95 0v474h18v-474h-18zM25 556v47h21v-47h-21zM165 556v47h21v-47h-21z" />
    <glyph glyph-name="eth" unicode="&#xf0;" horiz-adv-x="494" 
d="M309 545l74 84q-11 9 -25.5 14.5t-31.5 5.5h-191v17h191q39 0 69 -24l48 54l11 -9l-48 -55q14 -15 22 -34.5t8 -42.5v-444q0 -23 -8.5 -43.5t-23.5 -35.5t-35 -23.5t-43 -8.5h-136q-23 0 -43 8.5t-35 23.5t-23.5 35.5t-8.5 43.5v171q0 47 29.5 73.5t76.5 26.5q31 0 69 -3
t75 -11q62 -14 88 -53v241q0 36 -24 63l-73 -84zM98 110q0 -39 26.5 -66t65.5 -27h136q39 0 65.5 27t26.5 66v150q0 18 -7 32.5t-18 25.5t-25 18.5t-29 11.5q-16 4 -35.5 7.5t-40.5 5.5t-41 3t-36 1q-41 0 -64.5 -22t-23.5 -61v-172v0z" />
    <glyph glyph-name="ntilde" unicode="&#xf1;" horiz-adv-x="504" 
d="M401 0v384q0 39 -23.5 61t-64.5 22q-22 0 -56.5 -6t-69.5 -17q-15 -5 -29 -12t-25 -18t-18 -25.5t-7 -32.5v-356h-18v474h18v-63q14 20 36 32.5t52 20.5q38 11 66.5 15.5t50.5 4.5q47 0 76.5 -26.5t29.5 -73.5v-384h-18zM363 618l-14 -42q-4 -11 -11.5 -16t-20.5 0
l-136 46q-8 3 -11 -5l-15 -43l-15 5l14 42q8 24 33 15l135 -46q8 -3 12 6l14 42z" />
    <glyph glyph-name="ograve" unicode="&#xf2;" horiz-adv-x="501" 
d="M421 111q0 -23 -8.5 -43.5t-23.5 -35.5t-35 -23.5t-43 -8.5h-121q-23 0 -43 8.5t-35 23.5t-23.5 35.5t-8.5 43.5v252q0 23 8.5 43.5t23.5 35.5t35 23.5t43 8.5h121q23 0 43 -8.5t35 -23.5t23.5 -35.5t8.5 -43.5v-252zM98 110q0 -39 26.5 -66t65.5 -27h121q39 0 65.5 27
t26.5 66v254q0 39 -26.5 66t-65.5 27h-121q-39 0 -65.5 -27t-26.5 -66v-254zM232 553l-109 100l11 12l108 -101z" />
    <glyph glyph-name="oacute" unicode="&#xf3;" horiz-adv-x="501" 
d="M421 111q0 -23 -8.5 -43.5t-23.5 -35.5t-35 -23.5t-43 -8.5h-121q-23 0 -43 8.5t-35 23.5t-23.5 35.5t-8.5 43.5v252q0 23 8.5 43.5t23.5 35.5t35 23.5t43 8.5h121q23 0 43 -8.5t35 -23.5t23.5 -35.5t8.5 -43.5v-252zM98 110q0 -39 26.5 -66t65.5 -27h121q39 0 65.5 27
t26.5 66v254q0 39 -26.5 66t-65.5 27h-121q-39 0 -65.5 -27t-26.5 -66v-254zM244 564l108 101l11 -12l-109 -100z" />
    <glyph glyph-name="ocircumflex" unicode="&#xf4;" horiz-adv-x="501" 
d="M421 111q0 -23 -8.5 -43.5t-23.5 -35.5t-35 -23.5t-43 -8.5h-121q-23 0 -43 8.5t-35 23.5t-23.5 35.5t-8.5 43.5v252q0 23 8.5 43.5t23.5 35.5t35 23.5t43 8.5h121q23 0 43 -8.5t35 -23.5t23.5 -35.5t8.5 -43.5v-252zM98 110q0 -39 26.5 -66t65.5 -27h121q39 0 65.5 27
t26.5 66v254q0 39 -26.5 66t-65.5 27h-121q-39 0 -65.5 -27t-26.5 -66v-254zM348 537l-98 97l-98 -97l-11 11l109 108l109 -108z" />
    <glyph glyph-name="otilde" unicode="&#xf5;" horiz-adv-x="501" 
d="M421 111q0 -23 -8.5 -43.5t-23.5 -35.5t-35 -23.5t-43 -8.5h-121q-23 0 -43 8.5t-35 23.5t-23.5 35.5t-8.5 43.5v252q0 23 8.5 43.5t23.5 35.5t35 23.5t43 8.5h121q23 0 43 -8.5t35 -23.5t23.5 -35.5t8.5 -43.5v-252zM98 110q0 -39 26.5 -66t65.5 -27h121q39 0 65.5 27
t26.5 66v254q0 39 -26.5 66t-65.5 27h-121q-39 0 -65.5 -27t-26.5 -66v-254zM360 618l-14 -42q-4 -11 -11.5 -16t-20.5 0l-136 46q-8 3 -11 -5l-15 -43l-15 5l14 42q8 24 33 15l135 -46q8 -3 12 6l14 42z" />
    <glyph glyph-name="odieresis" unicode="&#xf6;" horiz-adv-x="501" 
d="M421 111q0 -23 -8.5 -43.5t-23.5 -35.5t-35 -23.5t-43 -8.5h-121q-23 0 -43 8.5t-35 23.5t-23.5 35.5t-8.5 43.5v252q0 23 8.5 43.5t23.5 35.5t35 23.5t43 8.5h121q23 0 43 -8.5t35 -23.5t23.5 -35.5t8.5 -43.5v-252zM98 110q0 -39 26.5 -66t65.5 -27h121q39 0 65.5 27
t26.5 66v254q0 39 -26.5 66t-65.5 27h-121q-39 0 -65.5 -27t-26.5 -66v-254zM171 556v47h21v-47h-21zM311 556v47h21v-47h-21z" />
    <glyph glyph-name="divide" unicode="&#xf7;" horiz-adv-x="515" 
d="M70 253h375v-15h-375v15zM247 40v58h20v-58h-20zM247 356v58h20v-58h-20z" />
    <glyph glyph-name="oslash" unicode="&#xf8;" horiz-adv-x="501" 
d="M119 25q-18 15 -28.5 37.5t-10.5 48.5v252q0 23 8.5 43.5t23.5 35.5t35 23.5t43 8.5h121q30 0 57 -16l38 66l14 -7l-39 -68q18 -15 29 -37.5t11 -48.5v-252q0 -23 -8.5 -43.5t-23.5 -35.5t-35 -23.5t-43 -8.5h-121q-32 0 -58 16l-38 -66l-14 7zM403 364q0 21 -8.5 39
t-22.5 31l-232 -403q22 -14 50 -14h121q39 0 65.5 27t26.5 66v254v0zM98 110q0 -43 30 -70l231 403q-22 14 -48 14h-121q-39 0 -65.5 -27t-26.5 -66v-254z" />
    <glyph glyph-name="ugrave" unicode="&#xf9;" horiz-adv-x="504" 
d="M103 474v-384q0 -39 23.5 -61t64.5 -22q22 0 56.5 6t69.5 17q15 4 29 11.5t25 18.5t18 25.5t7 32.5v356h18v-474h-18v63q-14 -20 -36 -32.5t-52 -20.5q-38 -11 -66.5 -15.5t-50.5 -4.5q-47 0 -76.5 26.5t-29.5 73.5v384h18zM248 553l-109 100l11 12l108 -101z" />
    <glyph glyph-name="uacute" unicode="&#xfa;" horiz-adv-x="504" 
d="M103 474v-384q0 -39 23.5 -61t64.5 -22q22 0 56.5 6t69.5 17q15 4 29 11.5t25 18.5t18 25.5t7 32.5v356h18v-474h-18v63q-14 -20 -36 -32.5t-52 -20.5q-38 -11 -66.5 -15.5t-50.5 -4.5q-47 0 -76.5 26.5t-29.5 73.5v384h18zM242 564l108 101l11 -12l-109 -100z" />
    <glyph glyph-name="ucircumflex" unicode="&#xfb;" horiz-adv-x="504" 
d="M103 474v-384q0 -39 23.5 -61t64.5 -22q22 0 56.5 6t69.5 17q15 4 29 11.5t25 18.5t18 25.5t7 32.5v356h18v-474h-18v63q-14 -20 -36 -32.5t-52 -20.5q-38 -11 -66.5 -15.5t-50.5 -4.5q-47 0 -76.5 26.5t-29.5 73.5v384h18zM351 537l-98 97l-98 -97l-11 11l109 108
l109 -108z" />
    <glyph glyph-name="udieresis" unicode="&#xfc;" horiz-adv-x="504" 
d="M103 474v-384q0 -39 23.5 -61t64.5 -22q22 0 56.5 6t69.5 17q15 4 29 11.5t25 18.5t18 25.5t7 32.5v356h18v-474h-18v63q-14 -20 -36 -32.5t-52 -20.5q-38 -11 -66.5 -15.5t-50.5 -4.5q-47 0 -76.5 26.5t-29.5 73.5v384h18zM164 556v47h21v-47h-21zM304 556v47h21v-47
h-21z" />
    <glyph glyph-name="yacute" unicode="&#xfd;" horiz-adv-x="429" 
d="M135 -190l70 191l-175 473h19l166 -451l167 451h19l-177 -474l-71 -190h-18zM208 564l108 101l11 -12l-109 -100z" />
    <glyph glyph-name="thorn" unicode="&#xfe;" horiz-adv-x="499" 
d="M90 666l18 3v-258q14 20 36 32.5t52 20.5q38 11 66.5 15.5t50.5 4.5q47 0 76.5 -26.5t29.5 -73.5v-294q0 -47 -29.5 -73.5t-76.5 -26.5q-22 0 -50.5 4.5t-66.5 15.5q-30 8 -52 20.5t-36 32.5v-253l-18 -3v859zM401 384q0 39 -23.5 61t-64.5 22q-22 0 -56.5 -6t-69.5 -17
q-15 -5 -29 -12t-25 -18t-18 -25.5t-7 -32.5v-238q0 -18 7 -32.5t18 -25.5t25 -18.5t29 -11.5q35 -11 69.5 -17t56.5 -6q41 0 64.5 22t23.5 61v294v0z" />
    <glyph glyph-name="ydieresis" unicode="&#xff;" horiz-adv-x="429" 
d="M135 -190l70 191l-175 473h19l166 -451l167 451h19l-177 -474l-71 -190h-18zM135 556v47h21v-47h-21zM275 556v47h21v-47h-21z" />
    <glyph glyph-name="OE" unicode="&#x152;" horiz-adv-x="909" 
d="M839 0h-639q-23 0 -43 8.5t-35 23.5t-23.5 35.5t-8.5 43.5v444q0 23 8.5 43.5t23.5 35.5t35 23.5t43 8.5h633v-17h-336v-288h305v-17h-305v-327h342v-17zM108 110q0 -39 26.5 -66t65.5 -27h279v632h-279q-39 0 -65.5 -27t-26.5 -66v-446v0z" />
    <glyph glyph-name="oe" unicode="&#x153;" horiz-adv-x="813" 
d="M738 137v-26q0 -23 -8.5 -43.5t-23.5 -35.5t-35 -23.5t-43 -8.5h-115q-35 0 -62 18.5t-39 47.5q-13 -29 -39.5 -47.5t-61.5 -18.5h-121q-23 0 -43 8.5t-35 23.5t-23.5 35.5t-8.5 43.5v252q0 23 8.5 43.5t23.5 35.5t35 23.5t43 8.5h121q35 0 61.5 -18.5t39.5 -47.5
q12 29 39 47.5t62 18.5h115q23 0 43 -8.5t35 -23.5t23.5 -35.5t8.5 -43.5v-119h-317v-138q0 -19 7.5 -35t20 -28t29 -19t35.5 -7h115q39 0 65.5 27t26.5 66v30zM98 110q0 -39 26.5 -66t65.5 -27h121q39 0 65.5 27t26.5 66v257q-2 38 -28 64t-64 26h-121q-39 0 -65.5 -27
t-26.5 -66v-254zM720 261v103q0 39 -26.5 66t-65.5 27h-115q-38 0 -64.5 -26t-27.5 -64v-106h299z" />
    <glyph glyph-name="Scaron" unicode="&#x160;" horiz-adv-x="568" 
d="M197 356q-45 13 -74 37.5t-29 70.5v91q0 23 8.5 43.5t23.5 35.5t35 23.5t43 8.5h160q23 0 43 -8.5t35 -23.5t23.5 -35.5t8.5 -43.5v-67l-18 -3v72q0 39 -26.5 66t-65.5 27h-160q-39 0 -65.5 -27t-26.5 -66v-93q0 -38 23.5 -59t61.5 -32q30 -9 53 -15.5t43 -12t39 -11
t42 -11.5q45 -13 74.5 -37.5t29.5 -71.5v-103q0 -23 -8.5 -43.5t-23.5 -35.5t-35 -23.5t-43 -8.5h-168q-23 0 -43 8.5t-35 23.5t-23.5 35.5t-8.5 43.5v70l18 3v-75q0 -39 26.5 -66t65.5 -27h168q39 0 65.5 27t26.5 66v105q0 39 -24 60t-62 32l-49 14t-40 11.5t-39.5 11
t-48.5 13.5zM390 826l-109 -108l-109 108l11 11l98 -97l98 97z" />
    <glyph glyph-name="scaron" unicode="&#x161;" horiz-adv-x="486" 
d="M193 244q-24 6 -44 14t-34.5 19.5t-23 27.5t-8.5 40v28q0 47 31 74t79 27h97q23 0 43 -8.5t35 -23.5t23.5 -35.5t8.5 -43.5v-24l-18 -3v28q0 39 -25.5 66t-66.5 27h-97q-42 0 -67 -22t-25 -61v-29q0 -39 25.5 -55.5t70.5 -28.5q15 -4 27.5 -7.5t23.5 -6.5t23 -6t27 -7
q24 -6 43.5 -14t33.5 -19.5t22 -28t8 -39.5v-32q0 -47 -31 -74t-79 -27h-105q-23 0 -43 8.5t-35 23.5t-23.5 35.5t-8.5 43.5v19l18 3v-23q0 -39 26.5 -66t65.5 -27h105q40 0 66 22t26 61v33q0 39 -27.5 56.5t-69.5 28.5q-15 4 -26.5 7t-22 6t-22 6t-26.5 7zM342 636
l-109 -108l-109 108l11 11l98 -97l98 97z" />
    <glyph glyph-name="Ydieresis" unicode="&#x178;" horiz-adv-x="510" 
d="M255 279l212 387h19l-222 -407v-259h-18v259l-222 407h19zM175 741v47h21v-47h-21zM315 741v47h21v-47h-21z" />
    <glyph glyph-name="florin" unicode="&#x192;" horiz-adv-x="455" 
d="M133 389l1 17h80l13 149q5 50 38 80.5t82 30.5h68l-3 -17h-67q-42 0 -69 -25.5t-31 -67.5l-13 -150h146l-3 -17h-144l-41 -468q-5 -48 -38 -79.5t-82 -31.5h-55l2 17h54q42 0 69.5 26t31.5 67l41 469h-80z" />
    <glyph glyph-name="circumflex" unicode="&#x2c6;" horiz-adv-x="458" 
d="M327 537l-98 97l-98 -97l-11 11l109 108l109 -108z" />
    <glyph glyph-name="tilde" unicode="&#x2dc;" horiz-adv-x="463" 
d="M343 618l-14 -42q-4 -11 -11.5 -16t-20.5 0l-136 46q-8 3 -11 -5l-15 -43l-15 5l14 42q8 24 33 15l135 -46q8 -3 12 6l14 42z" />
    <glyph glyph-name="endash" unicode="&#x2013;" horiz-adv-x="419" 
d="M60 303h299v-16h-299v16z" />
    <glyph glyph-name="emdash" unicode="&#x2014;" horiz-adv-x="598" 
d="M60 303h478v-16h-478v16z" />
    <glyph glyph-name="quoteleft" unicode="&#x2018;" horiz-adv-x="180" 
d="M135 664l-35 -88v-78h-20v78l38 95z" />
    <glyph glyph-name="quoteright" unicode="&#x2019;" horiz-adv-x="190" 
d="M55 500l35 88v78h20v-78l-38 -95z" />
    <glyph glyph-name="quotesinglbase" unicode="&#x201a;" horiz-adv-x="185" 
d="M50 -88l35 88v78h20v-78l-38 -95z" />
    <glyph glyph-name="quotedblleft" unicode="&#x201c;" horiz-adv-x="309" 
d="M135 664l-35 -88v-78h-20v78l38 95zM264 664l-35 -88v-78h-20v78l38 95z" />
    <glyph glyph-name="quotedblright" unicode="&#x201d;" horiz-adv-x="319" 
d="M184 500l35 88v78h20v-78l-38 -95zM55 500l35 88v78h20v-78l-38 -95z" />
    <glyph glyph-name="quotedblbase" unicode="&#x201e;" horiz-adv-x="314" 
d="M179 -88l35 88v78h20v-78l-38 -95zM50 -88l35 88v78h20v-78l-38 -95z" />
    <glyph glyph-name="dagger" unicode="&#x2020;" horiz-adv-x="612" 
d="M312 499h-18v167h18v-167zM312 -70h-18v409h18v-409zM532 428v-18l-146 2v14zM226 426v-14l-146 -2v18z" />
    <glyph glyph-name="daggerdbl" unicode="&#x2021;" horiz-adv-x="612" 
d="M312 529h-18v137h18v-137zM312 -70h-18v137h18v-137zM532 458v-18l-146 2v14zM80 138v18l146 -2v-14zM226 456v-14l-146 -2v18zM386 140v14l146 2v-18zM312 212h-18v172h18v-172z" />
    <glyph glyph-name="bullet" unicode="&#x2022;" horiz-adv-x="346" 
d="M85 327q0 37 25.5 62.5t62.5 25.5t62.5 -25.5t25.5 -62.5t-25.5 -62.5t-62.5 -25.5t-62.5 25.5t-25.5 62.5z" />
    <glyph glyph-name="ellipsis" unicode="&#x2026;" horiz-adv-x="600" 
d="M90 0v78h20v-78h-20zM290 0v78h20v-78h-20zM490 0v78h20v-78h-20z" />
    <glyph glyph-name="perthousand" unicode="&#x2030;" horiz-adv-x="1344" 
d="M849 99q0 -42 -28 -70.5t-70 -28.5h-90q-42 0 -70 28.5t-28 70.5v179q0 42 28 70.5t70 28.5h90q42 0 70 -28.5t28 -70.5v-179zM579 98q0 -35 23.5 -59t58.5 -24h90q35 0 58.5 24t23.5 59v181q0 35 -23.5 59t-58.5 24h-90q-35 0 -58.5 -24t-23.5 -59v-181zM376 388
q0 -42 -28 -70.5t-70 -28.5h-90q-42 0 -70 28.5t-28 70.5v179q0 42 28 70.5t70 28.5h90q42 0 70 -28.5t28 -70.5v-179zM106 387q0 -35 23.5 -59t58.5 -24h90q35 0 58.5 24t23.5 59v181q0 35 -23.5 59t-58.5 24h-90q-35 0 -58.5 -24t-23.5 -59v-181zM316 0h-17l325 666h17z
M1254 99q0 -42 -28 -70.5t-70 -28.5h-90q-42 0 -70 28.5t-28 70.5v179q0 42 28 70.5t70 28.5h90q42 0 70 -28.5t28 -70.5v-179zM984 98q0 -35 23.5 -59t58.5 -24h90q35 0 58.5 24t23.5 59v181q0 35 -23.5 59t-58.5 24h-90q-35 0 -58.5 -24t-23.5 -59v-181z" />
    <glyph glyph-name="guilsinglleft" unicode="&#x2039;" horiz-adv-x="312" 
d="M60 238l156 200l11 -9l-149 -191l149 -191l-11 -9z" />
    <glyph glyph-name="guilsinglright" unicode="&#x203a;" horiz-adv-x="312" 
d="M96 38l-11 9l149 191l-149 191l11 9l156 -200z" />
    <glyph glyph-name="Euro" unicode="&#x20ac;" horiz-adv-x="617" 
d="M37 412h91v143q0 23 8.5 43.5t23.5 35.5t35 23.5t43 8.5h184q23 0 43 -8.5t35 -23.5t23.5 -35.5t8.5 -43.5v-77l-18 -3v81q0 39 -26.5 66t-65.5 27h-184q-39 0 -65.5 -27t-26.5 -66v-144h182l-2 -14h-180v-124h182l-2 -14h-180v-150q0 -39 26.5 -66t65.5 -27h184
q39 0 65.5 27t26.5 66v84l18 -3v-80q0 -23 -8.5 -43.5t-23.5 -35.5t-35 -23.5t-43 -8.5h-184q-23 0 -43 8.5t-35 23.5t-23.5 35.5t-8.5 43.5v149h-93l2 14h91v124h-93z" />
    <glyph glyph-name="trademark" unicode="&#x2122;" horiz-adv-x="652" 
d="M456 456l99 210h12v-300h-12v272l-94 -200h-10l-95 198v-270h-12v300h12zM75 666h212v-11h-99v-289h-12v289h-101v11z" />
    <glyph glyph-name="Delta" horiz-adv-x="826" 
d="M413 -10q-71 0 -133.5 27t-109 73.5t-73.5 109t-27 133.5t27 133.5t73.5 109t109 73.5t133.5 27t133.5 -27t109 -73.5t73.5 -109t27 -133.5t-27 -133.5t-73.5 -109t-109 -73.5t-133.5 -27zM559 170v19h-273l319 318l-13 13l-318 -319v273h-19v-304h304z" />
    <glyph glyph-name="Omega" horiz-adv-x="826" 
d="M413 676q71 0 133.5 -27t109 -73.5t73.5 -109t27 -133.5t-27 -133.5t-73.5 -109t-109 -73.5t-133.5 -27t-133.5 27t-109 73.5t-73.5 109t-27 133.5t27 133.5t73.5 109t109 73.5t133.5 27zM413 571l-215 -216l14 -13l192 194v-451h18v451l192 -194l14 13z" />
    <glyph glyph-name="apple" horiz-adv-x="856" 
d="M443 333v-333h-333v666h666v-333h-333z" />
    <glyph glyph-name="approxequal" horiz-adv-x="826" 
d="M413 676q71 0 133.5 -27t109 -73.5t73.5 -109t27 -133.5t-27 -133.5t-73.5 -109t-109 -73.5t-133.5 -27t-133.5 27t-109 73.5t-73.5 109t-27 133.5t27 133.5t73.5 109t109 73.5t133.5 27zM273 499v-19h273l-319 -318l13 -13l318 319v-273h19v304h-304z" />
    <glyph glyph-name="greaterequal" horiz-adv-x="634" 
d="M564 295l-214 -214l-10 11l198 196h-468v14h468l-198 196l10 11z" />
    <glyph glyph-name="infinity" horiz-adv-x="826" 
d="M756 333q0 -71 -27 -133.5t-73.5 -109t-109 -73.5t-133.5 -27t-133.5 27t-109 73.5t-73.5 109t-27 133.5t27 133.5t73.5 109t109 73.5t133.5 27t133.5 -27t109 -73.5t73.5 -109t27 -133.5zM425 548l-13 -14l194 -192h-451v-18h451l-194 -192l13 -14l216 215z" />
    <glyph glyph-name="integral" horiz-adv-x="515" 
d="M420 364h-14v278l-331 -331l-10 10l331 331h-278v14h302v-302z" />
    <glyph glyph-name="lessequal" horiz-adv-x="634" 
d="M284 509l10 -11l-198 -196h468v-14h-468l198 -196l-10 -11l-214 214z" />
    <glyph glyph-name="lozenge" horiz-adv-x="826" 
d="M413 -10q-71 0 -133.5 27t-109 73.5t-73.5 109t-27 133.5t27 133.5t73.5 109t109 73.5t133.5 27t133.5 -27t109 -73.5t73.5 -109t27 -133.5t-27 -133.5t-73.5 -109t-109 -73.5t-133.5 -27zM575 171v304h-19v-273l-318 319l-13 -13l319 -318h-273v-19h304z" />
    <glyph glyph-name="notequal" horiz-adv-x="826" 
d="M70 333q0 71 27 133.5t73.5 109t109 73.5t133.5 27t133.5 -27t109 -73.5t73.5 -109t27 -133.5t-27 -133.5t-73.5 -109t-109 -73.5t-133.5 -27t-133.5 27t-109 73.5t-73.5 109t-27 133.5zM185 333l216 -215l13 14l-194 192h451v18h-451l194 192l-13 14z" />
    <glyph glyph-name="partialdiff" horiz-adv-x="548" 
d="M488 462l-11 -10l-196 198v-468h-14v468l-196 -198l-11 10l214 214z" />
    <glyph glyph-name="pi" horiz-adv-x="515" 
d="M95 666h302v-14h-278l331 -331l-10 -10l-331 331v-278h-14v302z" />
    <glyph glyph-name="product" horiz-adv-x="495" 
d="M400 0h-302v14h278l-331 331l10 10l331 -331v278h14v-302z" />
    <glyph glyph-name="radical" horiz-adv-x="826" 
d="M413 676q71 0 133.5 -27t109 -73.5t73.5 -109t27 -133.5t-27 -133.5t-73.5 -109t-109 -73.5t-133.5 -27t-133.5 27t-109 73.5t-73.5 109t-27 133.5t27 133.5t73.5 109t109 73.5t133.5 27zM249 499v-304h19v273l318 -319l13 13l-319 318h273v19h-304z" />
    <glyph glyph-name="summation" horiz-adv-x="495" 
d="M95 302h14v-278l331 331l10 -10l-331 -331h278v-14h-302v302z" />
    </font>
</defs>
</svg>
