<?xml version="1.0" standalone="no"?>
<!DOCTYPE svg PUBLIC "-//W3C//DTD SVG 1.1//EN" "http://www.w3.org/Graphics/SVG/1.1/DTD/svg11.dtd" >
<svg xmlns="http://www.w3.org/2000/svg" xmlns:xlink="http://www.w3.org/1999/xlink" version="1.1">
<metadata>
Created by FontForge 20160405 at Mon Feb 26 14:20:49 2018
 By www-data
Copyright 2004 Process Type Foundry. All rights reserved.
</metadata>
<defs>
<font id="StratumNo1-Light" horiz-adv-x="505" >
  <font-face 
    font-family="StratumNo1"
    font-weight="300"
    font-stretch="normal"
    units-per-em="1000"
    panose-1="2 0 5 6 3 0 0 2 0 3"
    ascent="800"
    descent="-200"
    x-height="474"
    cap-height="666"
    bbox="-45 -213 1265 858"
    underline-thickness="50"
    underline-position="-150"
    unicode-range="U+0005-2122"
  />
<missing-glyph horiz-adv-x="646" 
d="M90 666h466v-666h-466v666zM167 616l340 -527v527h-340zM139 49h339l-339 527v-527z" />
    <glyph glyph-name=".notdef" horiz-adv-x="646" 
d="M90 666h466v-666h-466v666zM167 616l340 -527v527h-340zM139 49h339l-339 527v-527z" />
    <glyph glyph-name=".null" horiz-adv-x="0" 
 />
    <glyph glyph-name="nonmarkingreturn" horiz-adv-x="219" 
 />
    <glyph glyph-name="breve" horiz-adv-x="440" 
d="M325 627v-66q0 -11 -7 -18t-18 -7h-161q-11 0 -17.5 7t-6.5 18v66h32v-53q0 -8 8 -8h130q8 0 8 8v53h32z" />
    <glyph glyph-name="dotaccent" horiz-adv-x="282" 
d="M115 553v73h52v-73h-52z" />
    <glyph glyph-name="ring" horiz-adv-x="349" 
d="M139 532q-11 0 -17.5 7t-6.5 18v68q0 11 6.5 18t17.5 7h70q11 0 18 -7t7 -18v-68q0 -11 -7 -18t-18 -7h-70v0zM208 617q0 8 -8 8h-51q-8 0 -8 -8v-52q0 -8 8 -8h51q8 0 8 8v52z" />
    <glyph glyph-name="hungarumlaut" unicode="&#xa;" horiz-adv-x="509" 
d="M138 545l-23 27l112 103l25 -28zM280 545l-23 27l112 103l25 -28z" />
    <glyph glyph-name="ogonek" horiz-adv-x="327" 
d="M137 0h44l-17 -61l47 -49l-29 -26l-63 67z" />
    <glyph glyph-name="caron" horiz-adv-x="453" 
d="M115 634l22 25l89 -87l90 87l22 -25l-112 -109z" />
    <glyph glyph-name="dotlessi" unicode="&#xd;" horiz-adv-x="224" 
d="M90 474h44v-474h-44v474z" />
    <glyph glyph-name="fraction" horiz-adv-x="366" 
d="M32 -117h-32l334 793h32z" />
    <glyph glyph-name="fi" horiz-adv-x="542" 
d="M309 628h-74q-32 0 -53.5 -21t-21.5 -53v-80h145l-5 -38h-140v-436h-44v436h-76v38h76v85q0 22 8.5 42t23 35t34.5 23.5t43 8.5h84v-40zM405 474h45v-474h-45v474zM405 668h45v-99h-45v99z" />
    <glyph glyph-name="fl" horiz-adv-x="533" 
d="M309 627h-74q-32 0 -53.5 -21.5t-21.5 -53.5v-78h145l-5 -38h-140v-436h-44v436h-76v38h76v83q0 23 8.5 43t23 34.5t34.5 23t43 8.5h84v-39zM400 666l44 8v-674h-44v666z" />
    <glyph glyph-name="Lslash" horiz-adv-x="518" 
d="M30 282l85 44v340h45v-317l94 48l14 -27l-108 -57v-271h308v-42h-353v290l-71 -37z" />
    <glyph glyph-name="lslash" horiz-adv-x="292" 
d="M45 282l79 40v344l44 8v-329l85 43l14 -27l-99 -52v-309h-44v286l-65 -33z" />
    <glyph glyph-name="Zcaron" horiz-adv-x="566" 
d="M491 0h-416v40l365 586h-354v40h404v-40l-366 -586h367v-40zM173 824l22 25l89 -87l90 87l22 -25l-112 -109z" />
    <glyph glyph-name="zcaron" horiz-adv-x="465" 
d="M83 474h309v-40l-268 -394h271v-40h-320v40l267 394h-259v40zM126 634l22 25l89 -87l90 87l22 -25l-112 -109z" />
    <glyph glyph-name="space" unicode=" " horiz-adv-x="219" 
 />
    <glyph glyph-name="exclam" unicode="!" horiz-adv-x="228" 
d="M128 179h-28l-8 148v339h44v-339zM90 0v94h48v-94h-48z" />
    <glyph glyph-name="quotedbl" unicode="&#x22;" horiz-adv-x="314" 
d="M65 431v235h36v-235h-36zM213 431v235h36v-235h-36z" />
    <glyph glyph-name="numbersign" unicode="#" horiz-adv-x="716" 
d="M435 205h-206l-33 -205h-39l33 205h-140l6 35h139l31 188h-144l6 35h143l34 203h39l-34 -203h206l34 203h39l-34 -203h156l-6 -35h-155l-31 -188h160l-6 -35h-159l-33 -205h-39zM234 240h206l31 188h-206z" />
    <glyph glyph-name="dollar" unicode="$" horiz-adv-x="541" 
d="M256 0h-60q-50 0 -80.5 30.5t-30.5 81.5v67l44 7v-71q0 -74 73 -74h137q73 0 73 74v104q0 32 -20 48t-51 27q-26 9 -42.5 14.5l-31.5 10.5t-32 10.5t-43 14.5q-44 15 -74 39t-30 70v101q0 51 30.5 81.5t80.5 30.5h57v98h35v-98h51q50 0 80.5 -30.5t30.5 -81.5v-64l-44 -7
v68q0 74 -73 74h-131q-73 0 -73 -74v-92q0 -32 21 -48.5t51 -26.5q28 -9 45.5 -15t32.5 -11t31 -10t40 -13q22 -7 40.5 -16.5t32.5 -22t22 -30t8 -40.5v-114q0 -51 -30.5 -81.5t-80.5 -30.5h-54v-98h-35v98z" />
    <glyph glyph-name="percent" unicode="%" horiz-adv-x="954" 
d="M620 666h40l-327 -666h-41zM384 387q0 -21 -8 -38.5t-21.5 -31t-32 -21t-39.5 -7.5h-97q-21 0 -39.5 7.5t-32 21t-21.5 31t-8 38.5v181q0 21 8 38.5t21.5 31t32 21t39.5 7.5h97q21 0 39.5 -7.5t32 -21t21.5 -31t8 -38.5v-181zM276 325q32 0 51 19.5t19 50.5v165
q0 31 -19 50.5t-51 19.5h-83q-32 0 -51 -19.5t-19 -50.5v-165q0 -31 19 -50.5t51 -19.5h83zM869 98q0 -21 -8 -38.5t-21.5 -31t-32 -21t-39.5 -7.5h-97q-21 0 -39.5 7.5t-32 21t-21.5 31t-8 38.5v181q0 21 8 38.5t21.5 31t32 21t39.5 7.5h97q21 0 39.5 -7.5t32 -21t21.5 -31
t8 -38.5v-181zM761 36q32 0 51 19.5t19 50.5v165q0 31 -19 50.5t-51 19.5h-83q-32 0 -51 -19.5t-19 -50.5v-165q0 -31 19 -50.5t51 -19.5h83z" />
    <glyph glyph-name="ampersand" unicode="&#x26;" horiz-adv-x="588" 
d="M473 325v-213q0 -51 -30.5 -81.5t-80.5 -30.5h-166q-50 0 -80.5 30.5t-30.5 81.5v141q0 38 15.5 61.5t37.5 32.5q-23 16 -34.5 36.5t-11.5 53.5v117q0 51 30.5 81.5t80.5 30.5h134q50 0 80.5 -30.5t30.5 -81.5v-35l-44 -7v39q0 74 -73 74h-122q-73 0 -73 -74v-113
q0 -35 17 -54.5t49 -19.5h374v-39h-103zM356 41q73 0 73 74v210h-227q-73 0 -73 -74v-136q0 -74 73 -74h154v0z" />
    <glyph glyph-name="quotesingle" unicode="'" horiz-adv-x="166" 
d="M65 431v235h36v-235h-36z" />
    <glyph glyph-name="parenleft" unicode="(" horiz-adv-x="244" 
d="M128 -56q0 -20 6 -33t18 -24q20 -18 36 -32.5t41 -36.5l-30 -31q-23 20 -41 36t-38 33q-16 15 -25.5 35t-9.5 47v694q0 27 9.5 47t25.5 35q20 17 38 33t41 36l30 -31q-25 -22 -41 -36.5t-36 -32.5q-12 -11 -18 -24t-6 -33v-682v0z" />
    <glyph glyph-name="parenright" unicode=")" horiz-adv-x="244" 
d="M116 626q0 20 -6 33t-18 24q-20 18 -36 32.5t-41 36.5l30 31q23 -20 41 -36t38 -33q16 -15 25.5 -35t9.5 -47v-694q0 -27 -9.5 -47t-25.5 -35q-20 -17 -38 -33t-41 -36l-30 31q25 22 41 36.5t36 32.5q12 11 18 24t6 33v682z" />
    <glyph glyph-name="asterisk" unicode="*" horiz-adv-x="456" 
d="M252 528h154v-26h-154l86 -128l-23 -14l-87 131l-87 -131l-23 14l85 128h-153v26h153l-85 129l22 14l88 -132l88 132l22 -14z" />
    <glyph glyph-name="plus" unicode="+" horiz-adv-x="526" 
d="M243 275v191h40v-191h188v-36h-188v-191h-40v191h-188v36h188z" />
    <glyph glyph-name="comma" unicode="," horiz-adv-x="198" 
d="M56 -84l37 84h-18v94h48v-94l-43 -95z" />
    <glyph glyph-name="hyphen" unicode="-" horiz-adv-x="361" 
d="M65 270v35h231v-35h-231z" />
    <glyph glyph-name="period" unicode="." horiz-adv-x="218" 
d="M85 0v94h48v-94h-48z" />
    <glyph glyph-name="slash" unicode="/" horiz-adv-x="414" 
d="M81 -117h-41l288 793h41z" />
    <glyph glyph-name="zero" unicode="0" horiz-adv-x="549" 
d="M464 112q0 -51 -30.5 -81.5t-80.5 -30.5h-157q-50 0 -80.5 30.5t-30.5 81.5v442q0 51 30.5 81.5t80.5 30.5h157q50 0 80.5 -30.5t30.5 -81.5v-442zM420 551q0 74 -73 74h-145q-73 0 -73 -74v-436q0 -74 73 -74h145q73 0 73 74v436v0z" />
    <glyph glyph-name="one" unicode="1" horiz-adv-x="333" 
d="M243 666v-666h-44v622l-194 -65v44l194 65h44z" />
    <glyph glyph-name="two" unicode="2" horiz-adv-x="528" 
d="M401 551q0 74 -73 74h-132q-73 0 -73 -74v-50l-43 7v46q0 51 30.5 81.5t80.5 30.5h143q50 0 80.5 -30.5t30.5 -81.5v-122q0 -44 -21.5 -64.5t-70.5 -38.5q-23 -8 -41 -14.5t-35.5 -13t-36.5 -13.5t-43 -16q-18 -7 -32 -13.5t-23 -14.5t-13.5 -19.5t-4.5 -28.5v-155h324
v-41h-368v204q0 23 7 39.5t20.5 28.5t31.5 21.5t41 17.5q24 9 42 15t34.5 12t34.5 12t41 14q22 7 35.5 13.5t21 14.5t10 18.5t2.5 26.5v114v0z" />
    <glyph glyph-name="three" unicode="3" horiz-adv-x="530" 
d="M155 363h173q32 0 49 19.5t17 54.5v114q0 74 -73 74h-128q-73 0 -73 -74v-48l-44 7v44q0 51 30.5 81.5t80.5 30.5h140q50 0 80.5 -30.5t30.5 -81.5v-119q0 -33 -11.5 -53.5t-34.5 -36.5q22 -9 37.5 -32.5t15.5 -61.5v-139q0 -51 -30.5 -81.5t-80.5 -30.5h-153
q-50 0 -80.5 30.5t-30.5 81.5v40l44 7v-44q0 -74 73 -74h141q73 0 73 74v134q0 74 -73 74h-173v40z" />
    <glyph glyph-name="four" unicode="4" horiz-adv-x="519" 
d="M22 233l315 433h44v-433h118l-4 -38h-114v-195h-43v195h-316v38zM338 233v368l-267 -368h267z" />
    <glyph glyph-name="five" unicode="5" horiz-adv-x="525" 
d="M88 261v405h349v-41h-305v-261q14 9 30.5 15t36.5 11q26 6 63.5 12.5t76.5 6.5q50 0 80.5 -30.5t30.5 -81.5v-185q0 -51 -30.5 -81.5t-80.5 -30.5h-143q-50 0 -80.5 30.5t-30.5 81.5v22l43 7v-26q0 -74 73 -74h132q73 0 73 74v179q0 74 -73 74q-31 0 -67.5 -6.5
t-61.5 -12.5q-35 -8 -53.5 -23t-18.5 -51v-21z" />
    <glyph glyph-name="six" unicode="6" horiz-adv-x="526" 
d="M451 112q0 -51 -30.5 -81.5t-80.5 -30.5h-144q-50 0 -80.5 30.5t-30.5 81.5v442q0 51 30.5 81.5t80.5 30.5h138q50 0 80.5 -30.5t30.5 -81.5v-41l-43 -7v45q0 74 -73 74h-127q-73 0 -73 -74v-219q27 20 67 31q15 4 34 8t39.5 6t39 3.5t31.5 1.5q50 0 80.5 -30.5
t30.5 -81.5v-158v0zM129 115q0 -74 73 -74h132q73 0 73 74v152q0 74 -73 74q-9 0 -25.5 -1.5t-35.5 -3.5t-38 -6t-33 -8q-34 -11 -53.5 -28t-19.5 -49v-130z" />
    <glyph glyph-name="seven" unicode="7" horiz-adv-x="425" 
d="M15 666h380v-38l-226 -628h-44l225 626h-335v40z" />
    <glyph glyph-name="eight" unicode="8" horiz-adv-x="553" 
d="M196 0q-50 0 -80.5 30.5t-30.5 81.5v139q0 38 15.5 61.5t37.5 32.5q-23 16 -34.5 36.5t-11.5 53.5v119q0 51 30.5 81.5t80.5 30.5h147q50 0 80.5 -30.5t30.5 -81.5v-119q0 -33 -11.5 -53.5t-34.5 -36.5q22 -9 37.5 -32.5t15.5 -61.5v-139q0 -51 -30.5 -81.5t-80.5 -30.5
h-161zM202 323q-73 0 -73 -74v-134q0 -74 73 -74h149q73 0 73 74v134q0 74 -73 74h-149zM209 625q-73 0 -73 -74v-114q0 -35 17 -54.5t49 -19.5h149q32 0 49 19.5t17 54.5v114q0 74 -73 74h-135z" />
    <glyph glyph-name="nine" unicode="9" horiz-adv-x="527" 
d="M76 554q0 51 30.5 81.5t80.5 30.5h144q50 0 80.5 -30.5t30.5 -81.5v-442q0 -51 -30.5 -81.5t-80.5 -30.5h-145q-50 0 -80.5 30.5t-30.5 81.5v41l43 7v-45q0 -74 73 -74h134q73 0 73 74v219q-27 -20 -67 -31q-15 -5 -34 -8.5t-39.5 -5.5t-39 -3.5t-31.5 -1.5
q-50 0 -80.5 30.5t-30.5 81.5v158v0zM398 551q0 74 -73 74h-132q-73 0 -73 -74v-152q0 -74 73 -74q9 0 25.5 1.5t35.5 3.5t38 5.5t33 8.5q34 11 53.5 28t19.5 49v130z" />
    <glyph glyph-name="colon" unicode=":" horiz-adv-x="218" 
d="M85 0v94h48v-94h-48zM85 332v94h48v-94h-48z" />
    <glyph glyph-name="semicolon" unicode=";" horiz-adv-x="217" 
d="M82 332v94h50v-94h-50zM65 -84l37 84h-18v94h48v-94l-43 -95z" />
    <glyph glyph-name="less" unicode="&#x3c;" horiz-adv-x="583" 
d="M502 494l16 -31l-436 -221l436 -221l-16 -31l-467 239v26z" />
    <glyph glyph-name="equal" unicode="=" horiz-adv-x="439" 
d="M65 318v36h309v-36h-309zM65 160v36h309v-36h-309z" />
    <glyph glyph-name="greater" unicode="&#x3e;" horiz-adv-x="583" 
d="M548 255v-26l-467 -239l-16 31l436 221l-436 221l16 31z" />
    <glyph glyph-name="question" unicode="?" horiz-adv-x="508" 
d="M443 463q0 -23 -3 -37.5t-11.5 -26t-23 -21.5t-36.5 -23q-21 -13 -38 -22.5t-35 -19.5q-25 -14 -34 -29.5t-9 -44.5v-68h-44v76q0 22 3.5 36.5t11 25.5t19 19.5t26.5 17.5q23 14 39.5 22.5t33.5 18.5q19 12 30.5 20t17.5 16.5t7.5 19.5t1.5 28v80q0 74 -73 74h-134
q-73 0 -73 -74v-68l-44 7v64q0 51 30.5 81.5t80.5 30.5h146q50 0 80.5 -30.5t30.5 -81.5v-91v0zM207 0v94h48v-94h-48z" />
    <glyph glyph-name="at" unicode="@" horiz-adv-x="601" 
d="M488 549q0 38 -21.5 59.5t-58.5 21.5h-204q-37 0 -58.5 -21.5t-21.5 -59.5v-432q0 -38 21.5 -59.5t58.5 -21.5h293v-36h-304q-24 0 -43.5 8.5t-34 22.5t-22.5 33.5t-8 42.5v452q0 22 8 42t22.5 34t34 22.5t43.5 8.5h225q24 0 43.5 -8.5t34 -22.5t22.5 -34t8 -42v-310h-38
v32q-20 -14 -51 -24q-11 -3 -25 -6t-29 -5.5t-29 -3.5t-24 -1q-38 0 -62 23.5t-24 62.5v69q0 40 24 63t62 23q10 0 24.5 -0.5t29.5 -1.5t29 -3t24 -4q17 -4 29 -10t22 -14v100v0zM488 382q0 24 -14.5 37t-40.5 21q-11 3 -25 5t-28 3t-26.5 1.5t-19.5 0.5q-54 0 -54 -57v-63
q0 -56 54 -56q7 0 19.5 1t26.5 2.5t28 4.5t25 6q26 9 40.5 21.5t14.5 38.5v34z" />
    <glyph glyph-name="A" unicode="A" horiz-adv-x="597" 
d="M552 0h-45l-66 186h-285l-65 -186h-46l233 666h41zM170 227h257l-129 382z" />
    <glyph glyph-name="B" unicode="B" horiz-adv-x="574" 
d="M90 666h286q50 0 80.5 -30.5t30.5 -81.5v-118q0 -60 -45 -89q26 -11 39 -36.5t13 -57.5v-141q0 -51 -30.5 -81.5t-80.5 -30.5h-293v666zM135 42h241q73 0 73 74v134q0 35 -17.5 54.5t-50.5 19.5h-246v-282zM376 365q32 0 49 19.5t17 54.5v111q0 74 -73 74h-234v-259h241z
" />
    <glyph glyph-name="C" unicode="C" horiz-adv-x="579" 
d="M499 196v-84q0 -51 -30.5 -81.5t-80.5 -30.5h-192q-50 0 -80.5 30.5t-30.5 81.5v442q0 51 30.5 81.5t80.5 30.5h192q50 0 80.5 -30.5t30.5 -81.5v-81l-45 -7v84q0 74 -73 74h-178q-73 0 -73 -74v-434q0 -74 73 -74h178q73 0 73 74v88z" />
    <glyph glyph-name="D" unicode="D" horiz-adv-x="573" 
d="M90 666h287q50 0 80.5 -30.5t30.5 -81.5v-442q0 -51 -30.5 -81.5t-80.5 -30.5h-287v666zM135 42h235q73 0 73 74v434q0 74 -73 74h-235v-582z" />
    <glyph glyph-name="E" unicode="E" horiz-adv-x="526" 
d="M90 666h367v-42h-322v-255h293v-42h-293v-285h326v-42h-371v666z" />
    <glyph glyph-name="F" unicode="F" horiz-adv-x="501" 
d="M90 0v666h371v-42h-326v-255h297v-42h-297v-327h-45z" />
    <glyph glyph-name="G" unicode="G" horiz-adv-x="571" 
d="M301 318h195v-206q0 -51 -30.5 -81.5t-80.5 -30.5h-189q-50 0 -80.5 30.5t-30.5 81.5v442q0 51 30.5 81.5t80.5 30.5h189q50 0 80.5 -30.5t30.5 -81.5v-68l-45 -7v71q0 74 -73 74h-175q-73 0 -73 -74v-434q0 -74 73 -74h175q73 0 73 74v161h-150v41z" />
    <glyph glyph-name="H" unicode="H" horiz-adv-x="598" 
d="M463 326h-328v-326h-45v666h45v-298h328v298h45v-666h-45v326z" />
    <glyph glyph-name="I" unicode="I" horiz-adv-x="235" 
d="M140 0h-45v666h45v-666z" />
    <glyph glyph-name="J" unicode="J" horiz-adv-x="497" 
d="M412 666v-554q0 -51 -30.5 -81.5t-80.5 -30.5h-145q-50 0 -80.5 30.5t-30.5 81.5v69l45 8v-73q0 -74 73 -74h131q73 0 73 74v550h45z" />
    <glyph glyph-name="K" unicode="K" horiz-adv-x="532" 
d="M90 666h45v-318l301 318h57l-310 -326l324 -340h-58l-314 331v-331h-45v666z" />
    <glyph glyph-name="L" unicode="L" horiz-adv-x="493" 
d="M90 666h45v-624h308v-42h-353v666z" />
    <glyph glyph-name="M" unicode="M" horiz-adv-x="688" 
d="M134 562v-562h-44v666h44l210 -464l210 464h44v-666h-44v562l-190 -414h-39z" />
    <glyph glyph-name="N" unicode="N" horiz-adv-x="608" 
d="M518 0h-43l-342 580v-580h-43v666h43l342 -581v581h43v-666z" />
    <glyph glyph-name="O" unicode="O" horiz-adv-x="590" 
d="M505 112q0 -51 -30.5 -81.5t-80.5 -30.5h-198q-50 0 -80.5 30.5t-30.5 81.5v442q0 51 30.5 81.5t80.5 30.5h198q50 0 80.5 -30.5t30.5 -81.5v-442zM460 550q0 74 -73 74h-184q-73 0 -73 -74v-434q0 -74 73 -74h184q73 0 73 74v434v0z" />
    <glyph glyph-name="P" unicode="P" horiz-adv-x="523" 
d="M90 666h282q50 0 80.5 -30.5t30.5 -81.5v-153q0 -51 -30.5 -81.5t-80.5 -30.5h-237v-289h-45v666zM135 331h230q73 0 73 74v145q0 74 -73 74h-230v-293z" />
    <glyph glyph-name="Q" unicode="Q" horiz-adv-x="590" 
d="M273 0h-77q-50 0 -80.5 30.5t-30.5 81.5v442q0 51 30.5 81.5t80.5 30.5h198q50 0 80.5 -30.5t30.5 -81.5v-442q0 -51 -30.5 -81.5t-80.5 -30.5h-76v-138h-45v138zM460 550q0 74 -73 74h-184q-73 0 -73 -74v-434q0 -74 73 -74h184q73 0 73 74v434v0z" />
    <glyph glyph-name="R" unicode="R" horiz-adv-x="577" 
d="M90 666h288q50 0 80.5 -30.5t30.5 -81.5v-150q0 -48 -26.5 -77.5t-71.5 -34.5l141 -292h-49l-140 292h-208v-292h-45v666zM135 334h236q73 0 73 74v142q0 74 -73 74h-236v-290z" />
    <glyph glyph-name="S" unicode="S" horiz-adv-x="565" 
d="M192 339q-45 13 -74.5 37.5t-29.5 70.5v107q0 51 30.5 81.5t80.5 30.5h172q50 0 80.5 -30.5t30.5 -81.5v-69l-45 -7v72q0 74 -73 74h-158q-73 0 -73 -74v-96q0 -33 19.5 -49t50.5 -25t52.5 -15t40.5 -11.5t38.5 -11t46.5 -13.5q45 -13 74.5 -37t29.5 -72v-108
q0 -51 -30.5 -81.5t-80.5 -30.5h-178q-50 0 -80.5 30.5t-30.5 81.5v70l45 8v-74q0 -74 73 -74h164q73 0 73 74v98q0 32 -17.5 48.5t-52.5 26.5q-29 8 -49.5 14t-40 11t-40 11t-48.5 14z" />
    <glyph glyph-name="T" unicode="T" horiz-adv-x="521" 
d="M30 666h461v-42h-208v-624h-45v624h-208v42z" />
    <glyph glyph-name="U" unicode="U" horiz-adv-x="574" 
d="M489 666v-554q0 -51 -30.5 -81.5t-80.5 -30.5h-182q-50 0 -80.5 30.5t-30.5 81.5v554h45v-550q0 -74 73 -74h168q73 0 73 74v550h45z" />
    <glyph glyph-name="V" unicode="V" horiz-adv-x="552" 
d="M300 0h-48l-217 666h47l194 -602l194 602h47z" />
    <glyph glyph-name="W" unicode="W" horiz-adv-x="811" 
d="M385 666h42l154 -596l136 596h44l-156 -666h-46l-153 596l-153 -596h-47l-156 666h44l136 -596z" />
    <glyph glyph-name="X" unicode="X" horiz-adv-x="589" 
d="M294 378l177 288h47l-199 -328l205 -338h-47l-183 298l-182 -298h-47l205 338l-199 328h47z" />
    <glyph glyph-name="Y" unicode="Y" horiz-adv-x="517" 
d="M258 289l191 377h48l-216 -425v-241h-46v241l-215 425h48z" />
    <glyph glyph-name="Z" unicode="Z" horiz-adv-x="566" 
d="M491 0h-416v40l365 586h-354v40h404v-40l-366 -586h367v-40z" />
    <glyph glyph-name="bracketleft" unicode="[" horiz-adv-x="258" 
d="M132 -89h131v-37h-173v922h173v-37h-131v-848z" />
    <glyph glyph-name="backslash" unicode="\" horiz-adv-x="414" 
d="M40 676h41l288 -793h-41z" />
    <glyph glyph-name="bracketright" unicode="]" horiz-adv-x="258" 
d="M126 759h-131v37h173v-922h-173v37h131v848z" />
    <glyph glyph-name="asciicircum" unicode="^" horiz-adv-x="442" 
d="M358 341l-138 279l-137 -279l-33 17l155 308h32l155 -308z" />
    <glyph glyph-name="underscore" unicode="_" horiz-adv-x="404" 
d="M-2 -28v22h408v-22h-408z" />
    <glyph glyph-name="grave" unicode="`" horiz-adv-x="357" 
d="M75 647l25 28l112 -103l-23 -27z" />
    <glyph glyph-name="a" unicode="a" horiz-adv-x="499" 
d="M72 153q0 51 30.5 81.5t80.5 30.5q26 0 61 -2.5t64 -10.5q41 -12 67 -32v139q0 74 -73 74h-102q-73 0 -73 -74v-20l-43 7v16q0 51 30.5 81.5t80.5 30.5h113q50 0 80.5 -30.5t30.5 -81.5v-362h-44v42q-26 -20 -67 -32q-29 -9 -64 -14.5t-61 -5.5q-50 0 -80.5 30.5
t-30.5 81.5v51zM375 135q0 32 -19.5 49t-53.5 28q-29 9 -61.5 11t-51.5 2q-73 0 -73 -74v-47q0 -74 73 -74q19 0 51.5 5.5t61.5 14.5q34 11 53.5 28t19.5 49v8z" />
    <glyph glyph-name="b" unicode="b" 
d="M430 102q0 -51 -30.5 -81.5t-80.5 -30.5q-26 0 -60 7t-63 16q-41 12 -67 32v-45h-44v666l44 8v-245q26 20 67 32q29 9 63 16t60 7q50 0 80.5 -30.5t30.5 -81.5v-270zM129 131q0 -32 19.5 -49t53.5 -28q29 -9 60.5 -16t50.5 -7q73 0 73 74v264q0 74 -73 74q-19 0 -50.5 -7
t-60.5 -16q-34 -11 -53.5 -28t-19.5 -49v-212z" />
    <glyph glyph-name="c" unicode="c" horiz-adv-x="480" 
d="M377 329v30q0 74 -73 74h-112q-73 0 -73 -74v-244q0 -74 73 -74h112q73 0 73 74v38l43 -7v-34q0 -51 -30.5 -81.5t-80.5 -30.5h-123q-50 0 -80.5 30.5t-30.5 81.5v250q0 51 30.5 81.5t80.5 30.5h123q50 0 80.5 -30.5t30.5 -81.5v-26z" />
    <glyph glyph-name="d" unicode="d" 
d="M75 372q0 51 30.5 81.5t80.5 30.5q26 0 60 -7t63 -16q41 -12 67 -32v237l44 8v-674h-44v45q-26 -20 -67 -32q-29 -9 -63 -16t-60 -7q-50 0 -80.5 30.5t-30.5 81.5v270zM376 343q0 32 -19.5 49t-53.5 28q-29 9 -60.5 16t-50.5 7q-73 0 -73 -74v-264q0 -74 73 -74
q19 0 50.5 7t60.5 16q34 11 53.5 28t19.5 49v212z" />
    <glyph glyph-name="e" unicode="e" horiz-adv-x="492" 
d="M119 238v-123q0 -74 73 -74h114q73 0 73 74v28l43 -7v-24q0 -51 -30.5 -81.5t-80.5 -30.5h-125q-50 0 -80.5 30.5t-30.5 81.5v250q0 51 30.5 81.5t80.5 30.5h123q50 0 80.5 -30.5t30.5 -81.5v-124h-301zM119 277h258v84q0 74 -73 74h-112q-73 0 -73 -74v-84z" />
    <glyph glyph-name="f" unicode="f" horiz-adv-x="318" 
d="M40 474h76v80q0 51 30.5 81.5t80.5 30.5h85v-40h-79q-73 0 -73 -74v-78h145l-5 -39h-140v-435h-44v435h-76v39z" />
    <glyph glyph-name="g" unicode="g" horiz-adv-x="500" 
d="M376 51q-26 -20 -67 -32q-29 -9 -63 -16t-60 -7q-50 0 -80.5 30.5t-30.5 81.5v264q0 51 30.5 81.5t80.5 30.5q26 0 60 -7t63 -16q41 -12 67 -32v45h44v-552q0 -51 -30.5 -81.5t-80.5 -30.5h-195v40h189q73 0 73 74v127v0zM376 343q0 32 -19.5 49t-53.5 28q-29 9 -60.5 16
t-50.5 7q-73 0 -73 -74v-258q0 -74 73 -74q19 0 50.5 7t60.5 16q34 11 53.5 28t19.5 49v206z" />
    <glyph glyph-name="h" unicode="h" horiz-adv-x="510" 
d="M386 0v368q0 74 -73 74q-19 0 -50.5 -7t-60.5 -16q-34 -11 -53.5 -28t-19.5 -49v-342h-44v666l44 8v-245q26 20 67 32q29 9 63 16t60 7q50 0 80.5 -30.5t30.5 -81.5v-372h-44z" />
    <glyph glyph-name="i" unicode="i" horiz-adv-x="224" 
d="M90 474h44v-474h-44v474zM90 668h44v-99h-44v99z" />
    <glyph glyph-name="j" unicode="j" horiz-adv-x="211" 
d="M126 474v-552q0 -51 -30.5 -81.5t-80.5 -30.5h-60v40h54q73 0 73 74v550h44zM82 668h44v-99h-44v99z" />
    <glyph glyph-name="k" unicode="k" horiz-adv-x="440" 
d="M179 238l236 -238h-59l-227 232v-232h-44v666l44 8v-429l221 229h55z" />
    <glyph glyph-name="l" unicode="l" horiz-adv-x="214" 
d="M85 666l44 8v-674h-44v666z" />
    <glyph glyph-name="m" unicode="m" horiz-adv-x="811" 
d="M503 419q-32 -11 -51.5 -28t-21.5 -44v-347h-44v368q0 74 -73 74q-19 0 -50.5 -7t-60.5 -16q-34 -11 -53.5 -28t-19.5 -49v-342h-44v474h44v-45q26 20 67 32q29 9 63 16t60 7q35 0 62.5 -17t38.5 -45q14 11 35 22t42 17q29 9 63 16t60 7q50 0 80.5 -30.5t30.5 -81.5v-372
h-44v368q0 74 -73 74q-19 0 -50.5 -7t-60.5 -16z" />
    <glyph glyph-name="n" unicode="n" horiz-adv-x="510" 
d="M85 0v474h44v-45q26 20 67 32q29 9 63 16t60 7q50 0 80.5 -30.5t30.5 -81.5v-372h-44v368q0 74 -73 74q-19 0 -50.5 -7t-60.5 -16q-34 -11 -53.5 -28t-19.5 -49v-342h-44z" />
    <glyph glyph-name="o" unicode="o" 
d="M430 112q0 -51 -30.5 -81.5t-80.5 -30.5h-133q-50 0 -80.5 30.5t-30.5 81.5v250q0 51 30.5 81.5t80.5 30.5h133q50 0 80.5 -30.5t30.5 -81.5v-250zM386 359q0 74 -73 74h-121q-73 0 -73 -74v-244q0 -74 73 -74h121q73 0 73 74v244v0z" />
    <glyph glyph-name="p" unicode="p" 
d="M430 102q0 -51 -30.5 -81.5t-80.5 -30.5q-26 0 -60 7t-63 16q-41 12 -67 32v-235l-44 -8v672h44v-45q26 20 67 32q29 9 63 16t60 7q50 0 80.5 -30.5t30.5 -81.5v-270zM129 131q0 -32 19.5 -49t53.5 -28q29 -9 60.5 -16t50.5 -7q73 0 73 74v264q0 74 -73 74
q-19 0 -50.5 -7t-60.5 -16q-34 -11 -53.5 -28t-19.5 -49v-212z" />
    <glyph glyph-name="q" unicode="q" 
d="M75 372q0 51 30.5 81.5t80.5 30.5q26 0 60 -7t63 -16q41 -12 67 -32v45h44v-664l-44 -7v242q-26 -20 -67 -32q-29 -9 -63 -16t-60 -7q-50 0 -80.5 30.5t-30.5 81.5v270zM376 343q0 32 -19.5 49t-53.5 28q-29 9 -60.5 16t-50.5 7q-73 0 -73 -74v-264q0 -74 73 -74
q19 0 50.5 7t60.5 16q34 11 53.5 28t19.5 49v212z" />
    <glyph glyph-name="r" unicode="r" horiz-adv-x="298" 
d="M293 443q-25 -12 -47 -23.5t-44 -24.5q-31 -18 -52 -38t-21 -52v-305h-44v474h44v-79q27 21 70 45t90 44z" />
    <glyph glyph-name="s" unicode="s" horiz-adv-x="461" 
d="M364 135q0 29 -17 43.5t-59 26.5q-33 10 -57.5 16.5t-58.5 16.5q-22 6 -40.5 14.5t-32 20t-21 27t-7.5 37.5v25q0 51 30.5 81.5t80.5 30.5h109q50 0 80.5 -30.5t30.5 -81.5v-22l-43 -7v26q0 74 -73 74h-98q-73 0 -73 -74v-16q0 -32 20 -45.5t55 -23.5q31 -8 59 -16
t60 -17q45 -14 72 -37t27 -67v-25q0 -51 -30.5 -81.5t-80.5 -30.5h-118q-50 0 -80.5 30.5t-30.5 81.5v19l43 7v-23q0 -74 73 -74h107q73 0 73 74v20v0z" />
    <glyph glyph-name="t" unicode="t" horiz-adv-x="317" 
d="M20 474h81v121l44 8v-129h147l-7 -39h-140v-321q0 -74 73 -74h63v-40h-69q-50 0 -80.5 30.5t-30.5 81.5v323h-81v39z" />
    <glyph glyph-name="u" unicode="u" horiz-adv-x="510" 
d="M425 474v-474h-44v45q-26 -20 -67 -32q-29 -9 -63 -16t-60 -7q-50 0 -80.5 30.5t-30.5 81.5v372h44v-368q0 -74 73 -74q19 0 50.5 7t60.5 16q34 11 53.5 28t19.5 49v342h44z" />
    <glyph glyph-name="v" unicode="v" horiz-adv-x="428" 
d="M20 474h46l148 -422l148 422h46l-170 -474h-48z" />
    <glyph glyph-name="w" unicode="w" horiz-adv-x="630" 
d="M40 474h43l78 -414l133 414h42l133 -414l78 414h43l-94 -474h-47l-134 417l-134 -417h-47z" />
    <glyph glyph-name="x" unicode="x" horiz-adv-x="460" 
d="M206 238l-155 236h50l129 -200l129 200h50l-155 -236l156 -238h-50l-130 203l-130 -203h-50z" />
    <glyph glyph-name="y" unicode="y" horiz-adv-x="432" 
d="M20 474h46l148 -419l149 419h46l-238 -664h-45l65 190z" />
    <glyph glyph-name="z" unicode="z" horiz-adv-x="450" 
d="M78 474h309v-40l-268 -394h271v-40h-320v40l267 394h-259v40z" />
    <glyph glyph-name="braceleft" unicode="{" horiz-adv-x="310" 
d="M80 329l74 62l-33 259q-5 50 20.5 79t73.5 39q25 5 44.5 8.5t39.5 5.5l6 -34q-20 -3 -38 -6.5t-40 -8.5q-35 -8 -51 -27.5t-11 -55.5q6 -48 10 -76t7 -52t7 -52t10 -77q1 -11 -9 -20l-69 -58l69 -58q10 -9 9 -20q-6 -49 -10 -77t-7 -52t-7 -52t-10 -76q-5 -36 11 -55.5
t51 -27.5q22 -5 40 -8.5t38 -6.5l-6 -34q-20 2 -39.5 5.5t-44.5 8.5q-48 10 -73.5 39t-20.5 79l33 259l-74 62v28z" />
    <glyph glyph-name="bar" unicode="|" horiz-adv-x="236" 
d="M100 -200v1000h36v-1000h-36z" />
    <glyph glyph-name="braceright" unicode="}" horiz-adv-x="310" 
d="M230 301l-74 -62l33 -259q5 -50 -20.5 -79t-73.5 -39q-25 -5 -44.5 -8.5t-39.5 -5.5l-6 34q20 3 38 6.5t40 8.5q35 8 51 27.5t11 55.5q-6 48 -10 76t-7 52t-7 52t-10 77q-1 11 9 20l69 58l-69 58q-10 9 -9 20q6 49 10 77t7 52t7 52t10 76q5 36 -11 55.5t-51 27.5
q-22 5 -40 8.5t-38 6.5l6 34q20 -2 39.5 -5.5t44.5 -8.5q48 -10 73.5 -39t20.5 -79l-33 -259l74 -62v-28z" />
    <glyph glyph-name="asciitilde" unicode="~" horiz-adv-x="447" 
d="M412 293l-28 -46q-29 -48 -78 -48q-28 0 -54 16l-74 45q-20 12 -38 12q-29 0 -49 -32l-26 -43l-30 19l28 46q29 48 78 48q28 0 54 -16l74 -46q19 -12 37 -12q30 0 50 33l25 42z" />
    <glyph glyph-name="uni00A0" unicode="&#xa0;" horiz-adv-x="219" 
 />
    <glyph glyph-name="exclamdown" unicode="&#xa1;" horiz-adv-x="228" 
d="M136 147v-337h-44v337l8 148h28zM138 474v-94h-48v94h48z" />
    <glyph glyph-name="cent" unicode="&#xa2;" horiz-adv-x="480" 
d="M229 95h-43q-50 0 -80.5 30.5t-30.5 81.5v250q0 51 30.5 81.5t80.5 30.5h43v97h38v-97h42q50 0 80.5 -30.5t30.5 -81.5v-26l-43 -7v30q0 74 -73 74h-112q-73 0 -73 -74v-244q0 -74 73 -74h112q73 0 73 74v38l43 -7v-34q0 -51 -30.5 -81.5t-80.5 -30.5h-42v-95h-38v95z
" />
    <glyph glyph-name="sterling" unicode="&#xa3;" horiz-adv-x="573" 
d="M488 146v-34q0 -51 -30.5 -81.5t-80.5 -30.5h-347l5 41h133v513q0 51 30.5 81.5t80.5 30.5h157v-41h-151q-73 0 -73 -74v-149h185l-4 -41h-181v-320h159q73 0 73 74v39z" />
    <glyph glyph-name="currency" unicode="&#xa4;" horiz-adv-x="613" 
d="M34 423h85v131q0 51 30.5 81.5t80.5 30.5h192q50 0 80.5 -30.5t30.5 -81.5v-81l-45 -7v84q0 74 -73 74h-178q-73 0 -73 -74v-127h166l-3 -31h-163v-113h165l-3 -31h-162v-132q0 -74 73 -74h178q73 0 73 74v88l45 -8v-84q0 -51 -30.5 -81.5t-80.5 -30.5h-192
q-50 0 -80.5 30.5t-30.5 81.5v136h-89l3 31h86v113h-88z" />
    <glyph glyph-name="yen" unicode="&#xa5;" horiz-adv-x="517" 
d="M258 289l191 377h48l-170 -334h127v-34h-144l-29 -57v-52h173v-34h-173v-155h-46v155h-172v34h172v52l-29 57h-143v34h126l-169 334h48z" />
    <glyph glyph-name="brokenbar" unicode="&#xa6;" horiz-adv-x="236" 
d="M100 -200v417h36v-417h-36zM136 383h-36v417h36v-417z" />
    <glyph glyph-name="section" unicode="&#xa7;" horiz-adv-x="510" 
d="M414 256q-37 10 -64.5 17.5t-52 14.5t-49 13.5t-55.5 15.5q-44 12 -72.5 34t-28.5 66v147q0 46 30.5 74t77.5 28h114q23 0 43 -8.5t34.5 -23t23 -34.5t8.5 -43v-45l-43 -8v48q0 32 -21 53.5t-53 21.5h-95q-34 0 -54.5 -18t-20.5 -50v-136q0 -31 20 -46t55 -24
q31 -8 55.5 -14.5t48.5 -13t50 -14t60 -16.5zM96 220q36 -10 62.5 -17.5t50.5 -14t49.5 -13.5t59.5 -16q43 -11 72 -33.5t29 -66.5v-147q0 -46 -30.5 -74t-78.5 -28h-114q-23 0 -42.5 8.5t-34 23t-23 34.5t-8.5 43v45l42 8v-48q0 -32 21 -53.5t54 -21.5h95q33 0 54 18t21 50
v136q0 31 -20.5 46t-55.5 24q-33 9 -57.5 15.5t-47.5 12.5t-48 13t-61 17z" />
    <glyph glyph-name="dieresis" unicode="&#xa8;" horiz-adv-x="425" 
d="M115 554v65h44v-65h-44zM266 554v65h44v-65h-44z" />
    <glyph glyph-name="copyright" unicode="&#xa9;" horiz-adv-x="661" 
d="M176 0q-39 0 -65 27t-26 65v482q0 38 26 65t65 27h309q19 0 35.5 -7t29 -19.5t19.5 -29.5t7 -36v-482q0 -19 -7 -36t-19.5 -29.5t-29 -19.5t-35.5 -7h-309v0zM481 26q29 0 48.5 19t19.5 48v480q0 29 -19.5 48t-48.5 19h-301q-29 0 -48.5 -19t-19.5 -48v-480
q0 -29 19.5 -48t48.5 -19h301v0zM420 274l29 -4v-40q0 -35 -23 -58.5t-58 -23.5h-70q-35 0 -58.5 23.5t-23.5 58.5v207q0 35 23.5 58.5t58.5 23.5h70q35 0 58 -23.5t23 -58.5v-38l-29 -5v40q0 25 -16.5 41.5t-40.5 16.5h-60q-25 0 -41.5 -16.5t-16.5 -41.5v-201
q0 -25 16.5 -42t41.5 -17h60q24 0 40.5 17t16.5 42v41z" />
    <glyph glyph-name="ordfeminine" unicode="&#xaa;" horiz-adv-x="332" 
d="M65 484q0 29 17 46.5t46 17.5q15 0 34.5 -1.5t36.5 -6.5q12 -3 21 -7.5t17 -10.5v79q0 42 -42 42h-57q-42 0 -42 -42v-11l-24 3v10q0 29 17 46t46 17h64q28 0 45.5 -17t17.5 -46v-206h-25v24q-15 -11 -38 -18q-17 -5 -36.5 -8t-34.5 -3q-29 0 -46 17t-17 46v29zM237 473
q0 19 -11 28.5t-31 15.5q-16 5 -34.5 6t-29.5 1q-41 0 -41 -42v-25q0 -42 41 -42q11 0 29.5 3t34.5 8q20 6 31 16t11 28v3z" />
    <glyph glyph-name="guillemotleft" unicode="&#xab;" horiz-adv-x="494" 
d="M55 238l151 200l29 -20l-136 -180l136 -179l-29 -20zM234 238l151 200l29 -20l-136 -180l136 -179l-29 -20z" />
    <glyph glyph-name="logicalnot" unicode="&#xac;" horiz-adv-x="503" 
d="M375 319h-330v40h373v-243h-43v203z" />
    <glyph glyph-name="minus" unicode="&#xad;" horiz-adv-x="435" 
d="M65 270v35h305v-35h-305z" />
    <glyph glyph-name="registered" unicode="&#xae;" horiz-adv-x="501" 
d="M150 267q-37 0 -61 25t-24 61v227q0 36 24 61t61 25h200q37 0 61.5 -25t24.5 -61v-227q0 -36 -24.5 -61t-61.5 -25h-200v0zM349 287q27 0 46 19t19 45v231q0 26 -19 45t-46 19h-198q-27 0 -45.5 -19t-18.5 -45v-231q0 -26 18.5 -45t45.5 -19h198v0zM270 454h-61v-91h-19
v212h92q16 0 26.5 -10.5t10.5 -26.5v-48q0 -16 -8.5 -25t-20.5 -11l43 -91h-20zM300 537q0 9 -5.5 15t-15.5 6h-70v-87h70q21 0 21 20v46z" />
    <glyph glyph-name="macron" unicode="&#xaf;" horiz-adv-x="433" 
d="M115 569v35h203v-35h-203z" />
    <glyph glyph-name="degree" unicode="&#xb0;" horiz-adv-x="290" 
d="M99 495q-11 0 -17.5 7t-6.5 18v121q0 11 6.5 18t17.5 7h91q11 0 18 -7t7 -18v-121q0 -11 -7 -18t-18 -7h-91v0zM193 638q0 8 -8 8h-80q-8 0 -8 -8v-115q0 -8 8 -8h80q8 0 8 8v115z" />
    <glyph glyph-name="plusminus" unicode="&#xb1;" horiz-adv-x="557" 
d="M70 37h188v202h-188v36h188v191h40v-191h189v-36h-189v-202h189v-37h-417v37z" />
    <glyph glyph-name="twosuperior" unicode="&#xb2;" horiz-adv-x="746" 
d="M373 -10l-338 676h676z" />
    <glyph glyph-name="threesuperior" unicode="&#xb3;" horiz-adv-x="746" 
d="M711 0h-676l338 676z" />
    <glyph glyph-name="acute" unicode="&#xb4;" horiz-adv-x="357" 
d="M168 545l-23 27l112 103l25 -28z" />
    <glyph glyph-name="mu" unicode="&#xb5;" horiz-adv-x="510" 
d="M80 474h44v-368q0 -74 73 -74q19 0 50.5 7t60.5 16q34 11 53.5 28t19.5 49v342h44v-474h-44v45q-26 -20 -67 -32q-29 -9 -63 -16t-60 -7q-39 0 -67 19v-199h-44v664z" />
    <glyph glyph-name="paragraph" unicode="&#xb6;" horiz-adv-x="519" 
d="M282 638h-180q-10 0 -10 -10v-276q0 -10 10 -10h77v-28h-88q-14 0 -22.5 9t-8.5 23v288q0 14 8.5 23t22.5 9h338v-666h-32v636h-83v-794q0 -14 -8.5 -23t-22.5 -9h-98v28h87q10 0 10 10v790z" />
    <glyph glyph-name="periodcentered" unicode="&#xb7;" horiz-adv-x="218" 
d="M85 281v94h48v-94h-48z" />
    <glyph glyph-name="periodcentered" unicode="&#x2219;" horiz-adv-x="218" 
d="M85 281v94h48v-94h-48z" />
    <glyph glyph-name="cedilla" unicode="&#xb8;" horiz-adv-x="327" 
d="M150 -136l-35 16l54 130h43z" />
    <glyph glyph-name="onesuperior" unicode="&#xb9;" horiz-adv-x="816" 
d="M776 333l-686 -343v686z" />
    <glyph glyph-name="ordmasculine" unicode="&#xba;" horiz-adv-x="331" 
d="M266 461q0 -29 -17 -46.5t-46 -17.5h-75q-29 0 -46 17.5t-17 46.5v142q0 29 17 46t46 17h75q29 0 46 -17t17 -46v-142zM241 601q0 42 -41 42h-69q-41 0 -41 -42v-138q0 -42 41 -42h69q41 0 41 42v138v0z" />
    <glyph glyph-name="guillemotright" unicode="&#xbb;" horiz-adv-x="494" 
d="M288 39l-29 20l136 179l-136 180l29 20l151 -200zM109 39l-29 20l136 179l-136 180l29 20l151 -200z" />
    <glyph glyph-name="onequarter" unicode="&#xbc;" horiz-adv-x="644" 
d="M85 474h474v-474h-474v474z" />
    <glyph glyph-name="onehalf" unicode="&#xbd;" horiz-adv-x="846" 
d="M90 666h666v-666h-666v666z" />
    <glyph glyph-name="threequarters" unicode="&#xbe;" horiz-adv-x="614" 
d="M85 484l494 -247l-494 -247v494z" />
    <glyph glyph-name="questiondown" unicode="&#xbf;" horiz-adv-x="508" 
d="M65 13q0 23 3 37.5t11.5 26t22.5 21t37 23.5q21 13 38 22.5t35 19.5q25 14 34 29.5t9 44.5v66h44v-74q0 -22 -3.5 -36.5t-11 -25.5t-19 -19.5t-26.5 -17.5q-23 -14 -39.5 -22.5t-33.5 -18.5q-19 -12 -30.5 -20t-17.5 -16.5t-7.5 -19.5t-1.5 -28v-80q0 -74 73 -74h134
q73 0 73 74v68l44 -7v-64q0 -51 -30.5 -81.5t-80.5 -30.5h-146q-50 0 -80.5 30.5t-30.5 81.5v91v0zM301 474v-94h-48v94h48z" />
    <glyph glyph-name="Agrave" unicode="&#xc0;" horiz-adv-x="597" 
d="M552 0h-45l-66 186h-285l-65 -186h-46l233 666h41zM170 227h257l-129 382zM178 830l25 28l112 -103l-23 -27z" />
    <glyph glyph-name="Aacute" unicode="&#xc1;" horiz-adv-x="597" 
d="M552 0h-45l-66 186h-285l-65 -186h-46l233 666h41zM170 227h257l-129 382zM303 728l-23 27l112 103l25 -28z" />
    <glyph glyph-name="Acircumflex" unicode="&#xc2;" horiz-adv-x="597" 
d="M552 0h-45l-66 186h-285l-65 -186h-46l233 666h41zM170 227h257l-129 382zM298 850l112 -109l-22 -25l-90 87l-89 -87l-22 25z" />
    <glyph glyph-name="Atilde" unicode="&#xc3;" horiz-adv-x="597" 
d="M552 0h-45l-66 186h-285l-65 -186h-46l233 666h41zM170 227h257l-129 382zM236 762q-12 3 -15 -8l-7 -25l-28 8l9 34q5 17 18.5 23.5t28.5 1.5l109 -32q12 -3 15 8l9 31l29 -8l-12 -40q-5 -17 -18.5 -23t-28.5 -2z" />
    <glyph glyph-name="Adieresis" unicode="&#xc4;" horiz-adv-x="597" 
d="M552 0h-45l-66 186h-285l-65 -186h-46l233 666h41zM170 227h257l-129 382zM201 739v65h44v-65h-44zM352 739v65h44v-65h-44z" />
    <glyph glyph-name="Aring" unicode="&#xc5;" horiz-adv-x="597" 
d="M552 0h-45l-66 186h-285l-65 -186h-46l233 666h41zM170 227h257l-129 382zM263 697q-11 0 -17.5 7t-6.5 18v68q0 11 6.5 18t17.5 7h70q11 0 18 -7t7 -18v-68q0 -11 -7 -18t-18 -7h-70v0zM332 782q0 8 -8 8h-51q-8 0 -8 -8v-52q0 -8 8 -8h51q8 0 8 8v52z" />
    <glyph glyph-name="AE" unicode="&#xc6;" horiz-adv-x="807" 
d="M737 624h-409l88 -252h286v-42h-271l101 -288h210v-42h-241l-65 186h-285l-66 -186h-45l232 666h465v-42zM164 227h258l-129 377z" />
    <glyph glyph-name="Ccedilla" unicode="&#xc7;" horiz-adv-x="579" 
d="M499 196v-84q0 -51 -30.5 -81.5t-80.5 -30.5h-70l-58 -136l-35 16l49 120h-78q-50 0 -80.5 30.5t-30.5 81.5v442q0 51 30.5 81.5t80.5 30.5h192q50 0 80.5 -30.5t30.5 -81.5v-81l-45 -7v84q0 74 -73 74h-178q-73 0 -73 -74v-434q0 -74 73 -74h178q73 0 73 74v88z" />
    <glyph glyph-name="Egrave" unicode="&#xc8;" horiz-adv-x="526" 
d="M90 666h367v-42h-322v-255h293v-42h-293v-285h326v-42h-371v666zM155 830l25 28l112 -103l-23 -27z" />
    <glyph glyph-name="Eacute" unicode="&#xc9;" horiz-adv-x="526" 
d="M90 666h367v-42h-322v-255h293v-42h-293v-285h326v-42h-371v666zM259 728l-23 27l112 103l25 -28z" />
    <glyph glyph-name="Ecircumflex" unicode="&#xca;" horiz-adv-x="526" 
d="M90 666h367v-42h-322v-255h293v-42h-293v-285h326v-42h-371v666zM274 850l112 -109l-22 -25l-90 87l-89 -87l-22 25z" />
    <glyph glyph-name="Edieresis" unicode="&#xcb;" horiz-adv-x="526" 
d="M90 666h367v-42h-322v-255h293v-42h-293v-285h326v-42h-371v666zM178 739v65h44v-65h-44zM329 739v65h44v-65h-44z" />
    <glyph glyph-name="Igrave" unicode="&#xcc;" horiz-adv-x="235" 
d="M142 0h-45v666h45v-666zM-2 830l25 28l112 -103l-23 -27z" />
    <glyph glyph-name="Iacute" unicode="&#xcd;" horiz-adv-x="235" 
d="M138 0h-45v666h45v-666zM118 728l-23 27l112 103l25 -28z" />
    <glyph glyph-name="Icircumflex" unicode="&#xce;" horiz-adv-x="235" 
d="M142 0h-45v666h45v-666zM119 850l112 -109l-22 -25l-90 87l-89 -87l-22 25z" />
    <glyph glyph-name="Idieresis" unicode="&#xcf;" horiz-adv-x="235" 
d="M138 0h-45v666h45v-666zM18 739v65h44v-65h-44zM169 739v65h44v-65h-44z" />
    <glyph glyph-name="Eth" unicode="&#xd0;" horiz-adv-x="604" 
d="M121 314h-81v40h81v312h287q50 0 80.5 -30.5t30.5 -81.5v-442q0 -51 -30.5 -81.5t-80.5 -30.5h-287v314zM166 354h136v-40h-136v-272h235q73 0 73 74v434q0 74 -73 74h-235v-270z" />
    <glyph glyph-name="Ntilde" unicode="&#xd1;" horiz-adv-x="608" 
d="M518 0h-43l-342 580v-580h-43v666h43l342 -581v581h43v-666zM249 762q-12 3 -15 -8l-7 -25l-28 8l9 34q5 17 18.5 23.5t28.5 1.5l109 -32q12 -3 15 8l9 31l29 -8l-12 -40q-5 -17 -18.5 -23t-28.5 -2z" />
    <glyph glyph-name="Ograve" unicode="&#xd2;" horiz-adv-x="590" 
d="M505 112q0 -51 -30.5 -81.5t-80.5 -30.5h-198q-50 0 -80.5 30.5t-30.5 81.5v442q0 51 30.5 81.5t80.5 30.5h198q50 0 80.5 -30.5t30.5 -81.5v-442zM460 550q0 74 -73 74h-184q-73 0 -73 -74v-434q0 -74 73 -74h184q73 0 73 74v434v0zM163 830l25 28l112 -103l-23 -27z
" />
    <glyph glyph-name="Oacute" unicode="&#xd3;" horiz-adv-x="590" 
d="M505 112q0 -51 -30.5 -81.5t-80.5 -30.5h-198q-50 0 -80.5 30.5t-30.5 81.5v442q0 51 30.5 81.5t80.5 30.5h198q50 0 80.5 -30.5t30.5 -81.5v-442zM460 550q0 74 -73 74h-184q-73 0 -73 -74v-434q0 -74 73 -74h184q73 0 73 74v434v0zM293 728l-23 27l112 103l25 -28z" />
    <glyph glyph-name="Ocircumflex" unicode="&#xd4;" horiz-adv-x="590" 
d="M505 112q0 -51 -30.5 -81.5t-80.5 -30.5h-198q-50 0 -80.5 30.5t-30.5 81.5v442q0 51 30.5 81.5t80.5 30.5h198q50 0 80.5 -30.5t30.5 -81.5v-442zM460 550q0 74 -73 74h-184q-73 0 -73 -74v-434q0 -74 73 -74h184q73 0 73 74v434v0zM295 850l112 -109l-22 -25l-90 87
l-89 -87l-22 25z" />
    <glyph glyph-name="Otilde" unicode="&#xd5;" horiz-adv-x="590" 
d="M505 112q0 -51 -30.5 -81.5t-80.5 -30.5h-198q-50 0 -80.5 30.5t-30.5 81.5v442q0 51 30.5 81.5t80.5 30.5h198q50 0 80.5 -30.5t30.5 -81.5v-442zM460 550q0 74 -73 74h-184q-73 0 -73 -74v-434q0 -74 73 -74h184q73 0 73 74v434v0zM234 762q-12 3 -15 -8l-7 -25l-28 8
l9 34q5 17 18.5 23.5t28.5 1.5l109 -32q12 -3 15 8l9 31l29 -8l-12 -40q-5 -17 -18.5 -23t-28.5 -2z" />
    <glyph glyph-name="Odieresis" unicode="&#xd6;" horiz-adv-x="590" 
d="M505 112q0 -51 -30.5 -81.5t-80.5 -30.5h-198q-50 0 -80.5 30.5t-30.5 81.5v442q0 51 30.5 81.5t80.5 30.5h198q50 0 80.5 -30.5t30.5 -81.5v-442zM460 550q0 74 -73 74h-184q-73 0 -73 -74v-434q0 -74 73 -74h184q73 0 73 74v434v0zM197 739v65h44v-65h-44zM348 739v65
h44v-65h-44z" />
    <glyph glyph-name="multiply" unicode="&#xd7;" horiz-adv-x="434" 
d="M217 278l134 134l28 -28l-134 -134l133 -133l-28 -28l-133 133l-134 -134l-28 28l134 134l-133 133l28 28z" />
    <glyph glyph-name="Oslash" unicode="&#xd8;" horiz-adv-x="620" 
d="M123 32q-29 29 -29 80v442q0 51 30.5 81.5t80.5 30.5h198q39 0 68 -21l40 71l24 -15l-43 -76q22 -28 22 -71v-442q0 -51 -30.5 -81.5t-80.5 -30.5h-198q-35 0 -60 15l-36 -65l-24 15zM139 116q0 -23 8 -41l302 531q-18 18 -53 18h-184q-73 0 -73 -74v-434v0zM469 550
q0 17 -4 28l-298 -525q15 -11 45 -11h184q73 0 73 74v434v0z" />
    <glyph glyph-name="Ugrave" unicode="&#xd9;" horiz-adv-x="574" 
d="M489 666v-554q0 -51 -30.5 -81.5t-80.5 -30.5h-182q-50 0 -80.5 30.5t-30.5 81.5v554h45v-550q0 -74 73 -74h168q73 0 73 74v550h45zM162 830l25 28l112 -103l-23 -27z" />
    <glyph glyph-name="Uacute" unicode="&#xda;" horiz-adv-x="574" 
d="M489 666v-554q0 -51 -30.5 -81.5t-80.5 -30.5h-182q-50 0 -80.5 30.5t-30.5 81.5v554h45v-550q0 -74 73 -74h168q73 0 73 74v550h45zM295 728l-23 27l112 103l25 -28z" />
    <glyph glyph-name="Ucircumflex" unicode="&#xdb;" horiz-adv-x="574" 
d="M489 666v-554q0 -51 -30.5 -81.5t-80.5 -30.5h-182q-50 0 -80.5 30.5t-30.5 81.5v554h45v-550q0 -74 73 -74h168q73 0 73 74v550h45zM287 850l112 -109l-22 -25l-90 87l-89 -87l-22 25z" />
    <glyph glyph-name="Udieresis" unicode="&#xdc;" horiz-adv-x="574" 
d="M489 666v-554q0 -51 -30.5 -81.5t-80.5 -30.5h-182q-50 0 -80.5 30.5t-30.5 81.5v554h45v-550q0 -74 73 -74h168q73 0 73 74v550h45zM190 739v65h44v-65h-44zM341 739v65h44v-65h-44z" />
    <glyph glyph-name="Yacute" unicode="&#xdd;" horiz-adv-x="517" 
d="M258 289l191 377h48l-216 -425v-241h-46v241l-215 425h48zM254 728l-23 27l112 103l25 -28z" />
    <glyph glyph-name="Thorn" unicode="&#xde;" horiz-adv-x="523" 
d="M90 666h45v-137h237q50 0 80.5 -30.5t30.5 -81.5v-153q0 -51 -30.5 -81.5t-80.5 -30.5h-237v-152h-45v666zM135 194h230q73 0 73 74v145q0 74 -73 74h-230v-293z" />
    <glyph glyph-name="germandbls" unicode="&#xdf;" horiz-adv-x="608" 
d="M510 132q0 15 -3 25.5t-10 18.5t-17 16.5t-23 20.5q-14 13 -23.5 21.5t-18 16t-18 16.5t-23.5 22q-13 12 -20.5 21.5t-12 20t-6 24t-1.5 33.5v164q0 74 -73 74h-59q-73 0 -73 -74v-552h-44v554q0 51 30.5 81.5t80.5 30.5h71q50 0 80.5 -30.5t30.5 -81.5v-163
q0 -15 0.5 -25t3 -17.5t7 -14t13.5 -15.5q13 -13 23 -22t19 -17.5t19.5 -17t24.5 -21.5q17 -15 29.5 -27t20.5 -24t11.5 -26t3.5 -33v-19q0 -51 -30.5 -81.5t-80.5 -30.5h-94q-50 0 -80.5 30.5t-30.5 81.5v19l42 7v-24q0 -74 73 -74h85q73 0 73 74v18v0z" />
    <glyph glyph-name="agrave" unicode="&#xe0;" horiz-adv-x="499" 
d="M72 153q0 51 30.5 81.5t80.5 30.5q26 0 61 -2.5t64 -10.5q41 -12 67 -32v139q0 74 -73 74h-102q-73 0 -73 -74v-20l-43 7v16q0 51 30.5 81.5t80.5 30.5h113q50 0 80.5 -30.5t30.5 -81.5v-362h-44v42q-26 -20 -67 -32q-29 -9 -64 -14.5t-61 -5.5q-50 0 -80.5 30.5
t-30.5 81.5v51zM375 135q0 32 -19.5 49t-53.5 28q-29 9 -61.5 11t-51.5 2q-73 0 -73 -74v-47q0 -74 73 -74q19 0 51.5 5.5t61.5 14.5q34 11 53.5 28t19.5 49v8zM125 647l25 28l112 -103l-23 -27z" />
    <glyph glyph-name="aacute" unicode="&#xe1;" horiz-adv-x="499" 
d="M72 153q0 51 30.5 81.5t80.5 30.5q26 0 61 -2.5t64 -10.5q41 -12 67 -32v139q0 74 -73 74h-102q-73 0 -73 -74v-20l-43 7v16q0 51 30.5 81.5t80.5 30.5h113q50 0 80.5 -30.5t30.5 -81.5v-362h-44v42q-26 -20 -67 -32q-29 -9 -64 -14.5t-61 -5.5q-50 0 -80.5 30.5
t-30.5 81.5v51zM375 135q0 32 -19.5 49t-53.5 28q-29 9 -61.5 11t-51.5 2q-73 0 -73 -74v-47q0 -74 73 -74q19 0 51.5 5.5t61.5 14.5q34 11 53.5 28t19.5 49v8zM247 545l-23 27l112 103l25 -28z" />
    <glyph glyph-name="acircumflex" unicode="&#xe2;" horiz-adv-x="499" 
d="M72 153q0 51 30.5 81.5t80.5 30.5q26 0 61 -2.5t64 -10.5q41 -12 67 -32v139q0 74 -73 74h-102q-73 0 -73 -74v-20l-43 7v16q0 51 30.5 81.5t80.5 30.5h113q50 0 80.5 -30.5t30.5 -81.5v-362h-44v42q-26 -20 -67 -32q-29 -9 -64 -14.5t-61 -5.5q-50 0 -80.5 30.5
t-30.5 81.5v51zM375 135q0 32 -19.5 49t-53.5 28q-29 9 -61.5 11t-51.5 2q-73 0 -73 -74v-47q0 -74 73 -74q19 0 51.5 5.5t61.5 14.5q34 11 53.5 28t19.5 49v8zM250 670l112 -109l-22 -25l-90 87l-89 -87l-22 25z" />
    <glyph glyph-name="atilde" unicode="&#xe3;" horiz-adv-x="499" 
d="M72 153q0 51 30.5 81.5t80.5 30.5q26 0 61 -2.5t64 -10.5q41 -12 67 -32v139q0 74 -73 74h-102q-73 0 -73 -74v-20l-43 7v16q0 51 30.5 81.5t80.5 30.5h113q50 0 80.5 -30.5t30.5 -81.5v-362h-44v42q-26 -20 -67 -32q-29 -9 -64 -14.5t-61 -5.5q-50 0 -80.5 30.5
t-30.5 81.5v51zM375 135q0 32 -19.5 49t-53.5 28q-29 9 -61.5 11t-51.5 2q-73 0 -73 -74v-47q0 -74 73 -74q19 0 51.5 5.5t61.5 14.5q34 11 53.5 28t19.5 49v8zM185 583q-12 3 -15 -8l-7 -25l-28 8l9 34q5 17 18.5 23.5t28.5 1.5l109 -32q12 -3 15 8l9 31l29 -8l-12 -40
q-5 -17 -18.5 -23t-28.5 -2z" />
    <glyph glyph-name="adieresis" unicode="&#xe4;" horiz-adv-x="499" 
d="M72 153q0 51 30.5 81.5t80.5 30.5q26 0 61 -2.5t64 -10.5q41 -12 67 -32v139q0 74 -73 74h-102q-73 0 -73 -74v-20l-43 7v16q0 51 30.5 81.5t80.5 30.5h113q50 0 80.5 -30.5t30.5 -81.5v-362h-44v42q-26 -20 -67 -32q-29 -9 -64 -14.5t-61 -5.5q-50 0 -80.5 30.5
t-30.5 81.5v51zM375 135q0 32 -19.5 49t-53.5 28q-29 9 -61.5 11t-51.5 2q-73 0 -73 -74v-47q0 -74 73 -74q19 0 51.5 5.5t61.5 14.5q34 11 53.5 28t19.5 49v8zM154 554v65h44v-65h-44zM305 554v65h44v-65h-44z" />
    <glyph glyph-name="aring" unicode="&#xe5;" horiz-adv-x="499" 
d="M72 153q0 51 30.5 81.5t80.5 30.5q26 0 61 -2.5t64 -10.5q41 -12 67 -32v139q0 74 -73 74h-102q-73 0 -73 -74v-20l-43 7v16q0 51 30.5 81.5t80.5 30.5h113q50 0 80.5 -30.5t30.5 -81.5v-362h-44v42q-26 -20 -67 -32q-29 -9 -64 -14.5t-61 -5.5q-50 0 -80.5 30.5
t-30.5 81.5v51zM375 135q0 32 -19.5 49t-53.5 28q-29 9 -61.5 11t-51.5 2q-73 0 -73 -74v-47q0 -74 73 -74q19 0 51.5 5.5t61.5 14.5q34 11 53.5 28t19.5 49v8zM219 539q-11 0 -17.5 7t-6.5 18v68q0 11 6.5 18t17.5 7h70q11 0 18 -7t7 -18v-68q0 -11 -7 -18t-18 -7h-70v0z
M288 624q0 8 -8 8h-51q-8 0 -8 -8v-52q0 -8 8 -8h51q8 0 8 8v52z" />
    <glyph glyph-name="ae" unicode="&#xe6;" horiz-adv-x="795" 
d="M422 238v-130q3 -67 73 -67h114q73 0 73 74v28l43 -7v-24q0 -51 -30.5 -81.5t-80.5 -30.5h-125q-66 0 -96 50q-17 -14 -42 -25t-40 -15q-29 -9 -60 -14.5t-65 -5.5q-50 0 -80.5 30.5t-30.5 81.5v51q0 51 30.5 81.5t80.5 30.5q26 0 61 -2.5t64 -10.5q41 -12 67 -32v142
q-2 71 -73 71h-102q-73 0 -73 -74v-20l-43 7v16q0 51 30.5 81.5t80.5 30.5h113q29 0 51.5 -10.5t37.5 -30.5q30 41 89 41h123q50 0 80.5 -30.5t30.5 -81.5v-124h-301zM305 211q-29 9 -61.5 11t-51.5 2q-73 0 -73 -74v-45q0 -74 73 -74q19 0 51.5 5.5t61.5 14.5
q32 10 51.5 25.5t21.5 44.5v19q-2 29 -21.5 44.5t-51.5 26.5zM422 277h258v84q0 74 -73 74h-112q-73 0 -73 -73v-85z" />
    <glyph glyph-name="ccedilla" unicode="&#xe7;" horiz-adv-x="480" 
d="M377 329v30q0 74 -73 74h-112q-73 0 -73 -74v-244q0 -74 73 -74h112q73 0 73 74v38l43 -7v-34q0 -51 -30.5 -81.5t-80.5 -30.5h-31l-54 -127l-35 16l45 111h-48q-50 0 -80.5 30.5t-30.5 81.5v250q0 51 30.5 81.5t80.5 30.5h123q50 0 80.5 -30.5t30.5 -81.5v-26z" />
    <glyph glyph-name="egrave" unicode="&#xe8;" horiz-adv-x="492" 
d="M119 238v-123q0 -74 73 -74h114q73 0 73 74v28l43 -7v-24q0 -51 -30.5 -81.5t-80.5 -30.5h-125q-50 0 -80.5 30.5t-30.5 81.5v250q0 51 30.5 81.5t80.5 30.5h123q50 0 80.5 -30.5t30.5 -81.5v-124h-301zM119 277h258v84q0 74 -73 74h-112q-73 0 -73 -74v-84zM115 647
l25 28l112 -103l-23 -27z" />
    <glyph glyph-name="eacute" unicode="&#xe9;" horiz-adv-x="492" 
d="M119 238v-123q0 -74 73 -74h114q73 0 73 74v28l43 -7v-24q0 -51 -30.5 -81.5t-80.5 -30.5h-125q-50 0 -80.5 30.5t-30.5 81.5v250q0 51 30.5 81.5t80.5 30.5h123q50 0 80.5 -30.5t30.5 -81.5v-124h-301zM119 277h258v84q0 74 -73 74h-112q-73 0 -73 -74v-84zM240 545
l-23 27l112 103l25 -28z" />
    <glyph glyph-name="ecircumflex" unicode="&#xea;" horiz-adv-x="492" 
d="M119 238v-123q0 -74 73 -74h114q73 0 73 74v28l43 -7v-24q0 -51 -30.5 -81.5t-80.5 -30.5h-125q-50 0 -80.5 30.5t-30.5 81.5v250q0 51 30.5 81.5t80.5 30.5h123q50 0 80.5 -30.5t30.5 -81.5v-124h-301zM119 277h258v84q0 74 -73 74h-112q-73 0 -73 -74v-84zM252 670
l112 -109l-22 -25l-90 87l-89 -87l-22 25z" />
    <glyph glyph-name="edieresis" unicode="&#xeb;" horiz-adv-x="492" 
d="M119 238v-123q0 -74 73 -74h114q73 0 73 74v28l43 -7v-24q0 -51 -30.5 -81.5t-80.5 -30.5h-125q-50 0 -80.5 30.5t-30.5 81.5v250q0 51 30.5 81.5t80.5 30.5h123q50 0 80.5 -30.5t30.5 -81.5v-124h-301zM119 277h258v84q0 74 -73 74h-112q-73 0 -73 -74v-84zM150 554v65
h44v-65h-44zM301 554v65h44v-65h-44z" />
    <glyph glyph-name="igrave" unicode="&#xec;" horiz-adv-x="224" 
d="M94 474h44v-474h-44v474zM-10 647l25 28l112 -103l-23 -27z" />
    <glyph glyph-name="iacute" unicode="&#xed;" horiz-adv-x="224" 
d="M84 474h44v-474h-44v474zM109 545l-23 27l112 103l25 -28z" />
    <glyph glyph-name="icircumflex" unicode="&#xee;" horiz-adv-x="224" 
d="M88 474h44v-474h-44v474zM110 670l112 -109l-22 -25l-90 87l-89 -87l-22 25z" />
    <glyph glyph-name="idieresis" unicode="&#xef;" horiz-adv-x="224" 
d="M91 474h44v-474h-44v474zM16 554v65h44v-65h-44zM167 554v65h44v-65h-44z" />
    <glyph glyph-name="eth" unicode="&#xf0;" horiz-adv-x="496" 
d="M436 702l25 -21l-45 -52q25 -30 25 -75v-442q0 -51 -30.5 -81.5t-80.5 -30.5h-144q-50 0 -80.5 30.5t-30.5 81.5v158q0 51 30.5 81.5t80.5 30.5q13 0 31.5 -1.5t39 -3.5t39.5 -6t34 -8q40 -11 67 -31v219q0 25 -11 44l-75 -87l-24 22l75 87q-16 8 -38 8h-201v41h207
q34 0 61 -16zM397 245q0 32 -19.5 49t-53.5 28q-14 4 -33 8t-38 6t-35.5 3.5t-25.5 1.5q-73 0 -73 -74v-152q0 -74 73 -74h132q73 0 73 74v130z" />
    <glyph glyph-name="ntilde" unicode="&#xf1;" horiz-adv-x="510" 
d="M85 0v474h44v-45q26 20 67 32q29 9 63 16t60 7q50 0 80.5 -30.5t30.5 -81.5v-372h-44v368q0 74 -73 74q-19 0 -50.5 -7t-60.5 -16q-34 -11 -53.5 -28t-19.5 -49v-342h-44zM197 583q-12 3 -15 -8l-7 -25l-28 8l9 34q5 17 18.5 23.5t28.5 1.5l109 -32q12 -3 15 8l9 31
l29 -8l-12 -40q-5 -17 -18.5 -23t-28.5 -2z" />
    <glyph glyph-name="ograve" unicode="&#xf2;" 
d="M430 112q0 -51 -30.5 -81.5t-80.5 -30.5h-133q-50 0 -80.5 30.5t-30.5 81.5v250q0 51 30.5 81.5t80.5 30.5h133q50 0 80.5 -30.5t30.5 -81.5v-250zM386 359q0 74 -73 74h-121q-73 0 -73 -74v-244q0 -74 73 -74h121q73 0 73 74v244v0zM121 647l25 28l112 -103l-23 -27z
" />
    <glyph glyph-name="oacute" unicode="&#xf3;" 
d="M430 112q0 -51 -30.5 -81.5t-80.5 -30.5h-133q-50 0 -80.5 30.5t-30.5 81.5v250q0 51 30.5 81.5t80.5 30.5h133q50 0 80.5 -30.5t30.5 -81.5v-250zM386 359q0 74 -73 74h-121q-73 0 -73 -74v-244q0 -74 73 -74h121q73 0 73 74v244v0zM255 545l-23 27l112 103l25 -28z" />
    <glyph glyph-name="ocircumflex" unicode="&#xf4;" 
d="M430 112q0 -51 -30.5 -81.5t-80.5 -30.5h-133q-50 0 -80.5 30.5t-30.5 81.5v250q0 51 30.5 81.5t80.5 30.5h133q50 0 80.5 -30.5t30.5 -81.5v-250zM386 359q0 74 -73 74h-121q-73 0 -73 -74v-244q0 -74 73 -74h121q73 0 73 74v244v0zM252 670l112 -109l-22 -25l-90 87
l-89 -87l-22 25z" />
    <glyph glyph-name="otilde" unicode="&#xf5;" 
d="M430 112q0 -51 -30.5 -81.5t-80.5 -30.5h-133q-50 0 -80.5 30.5t-30.5 81.5v250q0 51 30.5 81.5t80.5 30.5h133q50 0 80.5 -30.5t30.5 -81.5v-250zM386 359q0 74 -73 74h-121q-73 0 -73 -74v-244q0 -74 73 -74h121q73 0 73 74v244v0zM189 583q-12 3 -15 -8l-7 -25l-28 8
l9 34q5 17 18.5 23.5t28.5 1.5l109 -32q12 -3 15 8l9 31l29 -8l-12 -40q-5 -17 -18.5 -23t-28.5 -2z" />
    <glyph glyph-name="odieresis" unicode="&#xf6;" 
d="M430 112q0 -51 -30.5 -81.5t-80.5 -30.5h-133q-50 0 -80.5 30.5t-30.5 81.5v250q0 51 30.5 81.5t80.5 30.5h133q50 0 80.5 -30.5t30.5 -81.5v-250zM386 359q0 74 -73 74h-121q-73 0 -73 -74v-244q0 -74 73 -74h121q73 0 73 74v244v0zM155 554v65h44v-65h-44zM306 554v65
h44v-65h-44z" />
    <glyph glyph-name="divide" unicode="&#xf7;" horiz-adv-x="520" 
d="M235 29v79h49v-79h-49zM65 226v35h390v-35h-390zM235 351v79h49v-79h-49z" />
    <glyph glyph-name="oslash" unicode="&#xf8;" 
d="M112 25q-37 29 -37 87v250q0 51 30.5 81.5t80.5 30.5h133q29 0 53 -12l37 62l21 -13l-37 -62q17 -15 27 -37t10 -50v-250q0 -51 -30.5 -81.5t-80.5 -30.5h-133q-29 0 -54 11l-36 -61l-21 13zM119 115q0 -34 15 -52l216 363q-8 3 -17 5t-20 2h-121q-73 0 -73 -74v-244v0z
M386 359q0 33 -16 52l-216 -363q15 -7 38 -7h121q73 0 73 74v244v0z" />
    <glyph glyph-name="ugrave" unicode="&#xf9;" horiz-adv-x="510" 
d="M425 474v-474h-44v45q-26 -20 -67 -32q-29 -9 -63 -16t-60 -7q-50 0 -80.5 30.5t-30.5 81.5v372h44v-368q0 -74 73 -74q19 0 50.5 7t60.5 16q34 11 53.5 28t19.5 49v342h44zM133 647l25 28l112 -103l-23 -27z" />
    <glyph glyph-name="uacute" unicode="&#xfa;" horiz-adv-x="510" 
d="M425 474v-474h-44v45q-26 -20 -67 -32q-29 -9 -63 -16t-60 -7q-50 0 -80.5 30.5t-30.5 81.5v372h44v-368q0 -74 73 -74q19 0 50.5 7t60.5 16q34 11 53.5 28t19.5 49v342h44zM247 545l-23 27l112 103l25 -28z" />
    <glyph glyph-name="ucircumflex" unicode="&#xfb;" horiz-adv-x="510" 
d="M425 474v-474h-44v45q-26 -20 -67 -32q-29 -9 -63 -16t-60 -7q-50 0 -80.5 30.5t-30.5 81.5v372h44v-368q0 -74 73 -74q19 0 50.5 7t60.5 16q34 11 53.5 28t19.5 49v342h44zM255 670l112 -109l-22 -25l-90 87l-89 -87l-22 25z" />
    <glyph glyph-name="udieresis" unicode="&#xfc;" horiz-adv-x="510" 
d="M425 474v-474h-44v45q-26 -20 -67 -32q-29 -9 -63 -16t-60 -7q-50 0 -80.5 30.5t-30.5 81.5v372h44v-368q0 -74 73 -74q19 0 50.5 7t60.5 16q34 11 53.5 28t19.5 49v342h44zM156 554v65h44v-65h-44zM307 554v65h44v-65h-44z" />
    <glyph glyph-name="yacute" unicode="&#xfd;" horiz-adv-x="432" 
d="M20 474h46l148 -419l149 419h46l-238 -664h-45l65 190zM216 545l-23 27l112 103l25 -28z" />
    <glyph glyph-name="thorn" unicode="&#xfe;" 
d="M430 102q0 -51 -30.5 -81.5t-80.5 -30.5q-26 0 -60 7t-63 16q-41 12 -67 32v-235l-44 -8v864l44 8v-245q26 20 67 32q29 9 63 16t60 7q50 0 80.5 -30.5t30.5 -81.5v-270zM129 131q0 -32 19.5 -49t53.5 -28q29 -9 60.5 -16t50.5 -7q73 0 73 74v264q0 74 -73 74
q-19 0 -50.5 -7t-60.5 -16q-34 -11 -53.5 -28t-19.5 -49v-212z" />
    <glyph glyph-name="ydieresis" unicode="&#xff;" horiz-adv-x="432" 
d="M20 474h46l148 -419l149 419h46l-238 -664h-45l65 190zM119 554v65h44v-65h-44zM270 554v65h44v-65h-44z" />
    <glyph glyph-name="OE" unicode="&#x152;" horiz-adv-x="896" 
d="M196 0q-50 0 -80.5 30.5t-30.5 81.5v442q0 51 30.5 81.5t80.5 30.5h631v-42h-322v-255h292v-42h-292v-285h326v-42h-635zM460 624h-257q-73 0 -73 -74v-434q0 -74 73 -74h257v582z" />
    <glyph glyph-name="oe" unicode="&#x153;" horiz-adv-x="803" 
d="M430 238v-130q3 -67 73 -67h114q73 0 73 74v28l43 -7v-24q0 -51 -30.5 -81.5t-80.5 -30.5h-125q-29 0 -52 10.5t-37 29.5q-15 -19 -37.5 -29.5t-51.5 -10.5h-133q-50 0 -80.5 30.5t-30.5 81.5v250q0 51 30.5 81.5t80.5 30.5h133q29 0 51.5 -10.5t37.5 -30.5q30 41 89 41
h123q50 0 80.5 -30.5t30.5 -81.5v-124h-301zM386 359q0 74 -73 74h-121q-73 0 -73 -74v-244q0 -74 73 -74h121q73 0 73 74v244v0zM430 277h258v84q0 74 -73 74h-112q-73 0 -73 -73v-85z" />
    <glyph glyph-name="Scaron" unicode="&#x160;" horiz-adv-x="570" 
d="M192 339q-45 13 -74.5 37.5t-29.5 70.5v107q0 51 30.5 81.5t80.5 30.5h172q50 0 80.5 -30.5t30.5 -81.5v-69l-45 -7v72q0 74 -73 74h-158q-73 0 -73 -74v-96q0 -33 19.5 -49t50.5 -25t52.5 -15t40.5 -11.5t38.5 -11t46.5 -13.5q45 -13 74.5 -37t29.5 -72v-108
q0 -51 -30.5 -81.5t-80.5 -30.5h-178q-50 0 -80.5 30.5t-30.5 81.5v70l45 8v-74q0 -74 73 -74h164q73 0 73 74v98q0 32 -17.5 48.5t-52.5 26.5q-29 8 -49.5 14t-40 11t-40 11t-48.5 14zM171 824l22 25l89 -87l90 87l22 -25l-112 -109z" />
    <glyph glyph-name="scaron" unicode="&#x161;" horiz-adv-x="476" 
d="M366 135q0 29 -17 43.5t-59 26.5q-33 10 -57.5 16.5t-58.5 16.5q-22 6 -40.5 14.5t-32 20t-21 27t-7.5 37.5v25q0 51 30.5 81.5t80.5 30.5h109q50 0 80.5 -30.5t30.5 -81.5v-22l-43 -7v26q0 74 -73 74h-98q-73 0 -73 -74v-16q0 -32 20 -45.5t55 -23.5q31 -8 59 -16
t60 -17q45 -14 72 -37t27 -67v-25q0 -51 -30.5 -81.5t-80.5 -30.5h-118q-50 0 -80.5 30.5t-30.5 81.5v19l43 7v-23q0 -74 73 -74h107q73 0 73 74v20v0zM121 634l22 25l89 -87l90 87l22 -25l-112 -109z" />
    <glyph glyph-name="Ydieresis" unicode="&#x178;" horiz-adv-x="517" 
d="M258 289l191 377h48l-216 -425v-241h-46v241l-215 425h48zM160 739v65h44v-65h-44zM311 739v65h44v-65h-44z" />
    <glyph glyph-name="florin" unicode="&#x192;" horiz-adv-x="440" 
d="M108 406h76l13 148q5 51 38 81.5t83 30.5h77l-5 -40h-70q-73 0 -79 -74l-13 -146h135l-8 -39h-130l-39 -445q-5 -51 -38 -81.5t-83 -30.5h-65l4 40h58q74 0 80 74l39 443h-76z" />
    <glyph glyph-name="circumflex" unicode="&#x2c6;" horiz-adv-x="453" 
d="M226 670l112 -109l-22 -25l-90 87l-89 -87l-22 25z" />
    <glyph glyph-name="tilde" unicode="&#x2dc;" horiz-adv-x="448" 
d="M165 583q-12 3 -15 -8l-7 -25l-28 8l9 34q5 17 18.5 23.5t28.5 1.5l109 -32q12 -3 15 8l9 31l29 -8l-12 -40q-5 -17 -18.5 -23t-28.5 -2z" />
    <glyph glyph-name="endash" unicode="&#x2013;" horiz-adv-x="435" 
d="M65 270v35h305v-35h-305z" />
    <glyph glyph-name="emdash" unicode="&#x2014;" horiz-adv-x="614" 
d="M65 270v35h484v-35h-484z" />
    <glyph glyph-name="quoteleft" unicode="&#x2018;" horiz-adv-x="197" 
d="M142 661l-37 -84h18v-94h-48v94l43 95z" />
    <glyph glyph-name="quoteright" unicode="&#x2019;" horiz-adv-x="162" 
d="M40 488l37 84h-18v94h48v-94l-43 -95z" />
    <glyph glyph-name="quotesinglbase" unicode="&#x201a;" horiz-adv-x="198" 
d="M56 -84l37 84h-18v94h48v-94l-43 -95z" />
    <glyph glyph-name="quotedblleft" unicode="&#x201c;" horiz-adv-x="344" 
d="M289 661l-37 -84h18v-94h-48v94l43 95zM142 661l-37 -84h18v-94h-48v94l43 95z" />
    <glyph glyph-name="quotedblright" unicode="&#x201d;" horiz-adv-x="349" 
d="M60 488l37 84h-18v94h48v-94l-43 -95zM207 488l37 84h-18v94h48v-94l-43 -95z" />
    <glyph glyph-name="quotedblbase" unicode="&#x201e;" horiz-adv-x="345" 
d="M56 -84l37 84h-18v94h48v-94l-43 -95zM203 -84l37 84h-18v94h48v-94l-43 -95z" />
    <glyph glyph-name="dagger" unicode="&#x2020;" horiz-adv-x="592" 
d="M315 339v-409h-43v409h43zM315 666v-167h-43v167h43zM216 405l-146 -7v42l146 -7v-28zM376 433l146 7v-42l-146 7v28z" />
    <glyph glyph-name="daggerdbl" unicode="&#x2021;" horiz-adv-x="592" 
d="M315 666v-137h-42v137h42zM216 435l-146 -7v42l146 -7v-28zM376 463l146 7v-42l-146 7v28zM273 216v164h42v-164h-42zM273 -70v137h42v-137h-42zM216 133l-146 -7v42l146 -7v-28zM376 161l146 7v-42l-146 7v28z" />
    <glyph glyph-name="bullet" unicode="&#x2022;" horiz-adv-x="350" 
d="M80 325q0 40 27.5 67.5t67.5 27.5t67.5 -27.5t27.5 -67.5t-27.5 -67.5t-67.5 -27.5t-67.5 27.5t-27.5 67.5z" />
    <glyph glyph-name="ellipsis" unicode="&#x2026;" horiz-adv-x="654" 
d="M85 0v94h48v-94h-48zM303 0v94h48v-94h-48zM521 0v94h48v-94h-48z" />
    <glyph glyph-name="perthousand" unicode="&#x2030;" horiz-adv-x="1350" 
d="M620 666h40l-327 -666h-41zM384 387q0 -21 -8 -38.5t-21.5 -31t-32 -21t-39.5 -7.5h-97q-21 0 -39.5 7.5t-32 21t-21.5 31t-8 38.5v181q0 21 8 38.5t21.5 31t32 21t39.5 7.5h97q21 0 39.5 -7.5t32 -21t21.5 -31t8 -38.5v-181zM276 325q32 0 51 19.5t19 50.5v165
q0 31 -19 50.5t-51 19.5h-83q-32 0 -51 -19.5t-19 -50.5v-165q0 -31 19 -50.5t51 -19.5h83zM869 98q0 -21 -8 -38.5t-21.5 -31t-32 -21t-39.5 -7.5h-97q-21 0 -39.5 7.5t-32 21t-21.5 31t-8 38.5v181q0 21 8 38.5t21.5 31t32 21t39.5 7.5h97q21 0 39.5 -7.5t32 -21t21.5 -31
t8 -38.5v-181zM761 36q32 0 51 19.5t19 50.5v165q0 31 -19 50.5t-51 19.5h-83q-32 0 -51 -19.5t-19 -50.5v-165q0 -31 19 -50.5t51 -19.5h83zM1265 98q0 -21 -8 -38.5t-21.5 -31t-32 -21t-39.5 -7.5h-97q-21 0 -39.5 7.5t-32 21t-21.5 31t-8 38.5v181q0 21 8 38.5t21.5 31
t32 21t39.5 7.5h97q21 0 39.5 -7.5t32 -21t21.5 -31t8 -38.5v-181zM1157 36q32 0 51 19.5t19 50.5v165q0 31 -19 50.5t-51 19.5h-83q-32 0 -51 -19.5t-19 -50.5v-165q0 -31 19 -50.5t51 -19.5h83z" />
    <glyph glyph-name="guilsinglleft" unicode="&#x2039;" horiz-adv-x="315" 
d="M55 238l151 200l29 -20l-136 -180l136 -179l-29 -20z" />
    <glyph glyph-name="guilsinglright" unicode="&#x203a;" horiz-adv-x="315" 
d="M109 39l-29 20l136 179l-136 180l29 20l151 -200z" />
    <glyph glyph-name="Euro" unicode="&#x20ac;" horiz-adv-x="613" 
d="M34 423h85v131q0 51 30.5 81.5t80.5 30.5h192q50 0 80.5 -30.5t30.5 -81.5v-81l-45 -7v84q0 74 -73 74h-178q-73 0 -73 -74v-127h166l-3 -31h-163v-113h165l-3 -31h-162v-132q0 -74 73 -74h178q73 0 73 74v88l45 -8v-84q0 -51 -30.5 -81.5t-80.5 -30.5h-192
q-50 0 -80.5 30.5t-30.5 81.5v136h-89l3 31h86v113h-88z" />
    <glyph glyph-name="trademark" unicode="&#x2122;" horiz-adv-x="660" 
d="M365 609v-242h-25v299h25l95 -205l95 205h25v-299h-25v242l-84 -177h-22zM70 666h216v-23h-95v-276h-25v276h-96v23z" />
    <glyph glyph-name="Delta" horiz-adv-x="816" 
d="M575 525l-294 -295v245h-36v-306h306v35l-244 1l294 293zM65 333q0 71 27 133.5t73.5 109t109 73.5t133.5 27t133.5 -27t109 -73.5t73.5 -109t27 -133.5t-27 -133.5t-73.5 -109t-109 -73.5t-133.5 -27t-133.5 27t-109 73.5t-73.5 109t-27 133.5z" />
    <glyph glyph-name="Omega" horiz-adv-x="816" 
d="M426 88v416l173 -174l25 26l-216 217l-217 -217l26 -26l172 174v-416h37zM408 676q71 0 133.5 -27t109 -73.5t73.5 -109t27 -133.5t-27 -133.5t-73.5 -109t-109 -73.5t-133.5 -27t-133.5 27t-109 73.5t-73.5 109t-27 133.5t27 133.5t73.5 109t109 73.5t133.5 27z" />
    <glyph glyph-name="apple" horiz-adv-x="846" 
d="M438 333v-333h-333v666h666v-333h-333z" />
    <glyph glyph-name="approxequal" horiz-adv-x="816" 
d="M245 144l294 294v-245h36v307h-307v-36h245l-295 -294zM751 333q0 -71 -27 -133.5t-73.5 -109t-109 -73.5t-133.5 -27t-133.5 27t-109 73.5t-73.5 109t-27 133.5t27 133.5t73.5 109t109 73.5t133.5 27t133.5 -27t109 -73.5t73.5 -109t27 -133.5z" />
    <glyph glyph-name="greaterequal" horiz-adv-x="626" 
d="M65 312h434l-176 175l23 24l215 -216l-215 -216l-23 24l177 175h-435v34z" />
    <glyph glyph-name="infinity" horiz-adv-x="816" 
d="M155 315h417l-174 -173l25 -25l217 216l-217 216l-25 -25l173 -172h-416v-37zM751 333q0 -71 -27 -133.5t-73.5 -109t-109 -73.5t-133.5 -27t-133.5 27t-109 73.5t-73.5 109t-27 133.5t27 133.5t73.5 109t109 73.5t133.5 27t133.5 -27t109 -73.5t73.5 -109t27 -133.5z
" />
    <glyph glyph-name="integral" horiz-adv-x="523" 
d="M70 327l307 307h-249v32h305v-304h-32v248l-307 -307z" />
    <glyph glyph-name="lessequal" horiz-adv-x="626" 
d="M561 278h-434l177 -175l-23 -24l-216 216l216 216l23 -24l-177 -175h434v-34z" />
    <glyph glyph-name="lozenge" horiz-adv-x="816" 
d="M217 499l294 -294h-244v-36h306v307h-36v-245l-294 294zM751 333q0 -71 -27 -133.5t-73.5 -109t-109 -73.5t-133.5 -27t-133.5 27t-109 73.5t-73.5 109t-27 133.5t27 133.5t73.5 109t109 73.5t133.5 27t133.5 -27t109 -73.5t73.5 -109t27 -133.5z" />
    <glyph glyph-name="notequal" horiz-adv-x="816" 
d="M660 352h-416l174 172l-26 25l-217 -216l217 -216l26 25l-175 173h417v37zM65 333q0 71 27 133.5t73.5 109t109 73.5t133.5 27t133.5 -27t109 -73.5t73.5 -109t27 -133.5t-27 -133.5t-73.5 -109t-109 -73.5t-133.5 -27t-133.5 27t-109 73.5t-73.5 109t-27 133.5z" />
    <glyph glyph-name="partialdiff" horiz-adv-x="541" 
d="M254 180v434l-176 -177l-23 23l216 216l215 -216l-23 -23l-175 177v-434h-34z" />
    <glyph glyph-name="pi" horiz-adv-x="523" 
d="M429 303l-307 307v-248h-32v304h304v-32h-249l308 -307z" />
    <glyph glyph-name="product" horiz-adv-x="513" 
d="M84 363l307 -307v248h32v-304h-305v32h249l-307 307z" />
    <glyph glyph-name="radical" horiz-adv-x="816" 
d="M597 170l-295 294h245v36h-306v-307h36v245l294 -294zM65 333q0 71 27 133.5t73.5 109t109 73.5t133.5 27t133.5 -27t109 -73.5t73.5 -109t27 -133.5t-27 -133.5t-73.5 -109t-109 -73.5t-133.5 -27t-133.5 27t-109 73.5t-73.5 109t-27 133.5z" />
    <glyph glyph-name="summation" horiz-adv-x="513" 
d="M453 339l-308 -307h249v-32h-304v304h32v-248l307 307z" />
    </font>
</defs>
</svg>
